  0
SECTION
  2
HEADER
  9
$ACADVER
  1
AC1009
  0
ENDSEC
  0
SECTION
  2
ENTITIES
  0
POLYLINE
  5
90
  8
Layer_1
  62
5
  66
1
  10
0
  20
0
  30
0
  0
VERTEX
  5
90
  8
Layer_1
  10
198.44067
  20
148.43707
  0
VERTEX
  5
91
  8
Layer_1
  10
466.19751
  20
148.43707
  0
SEQEND
  0
POLYLINE
  5
93
  8
Layer_1
  62
5
  66
1
  10
0
  20
0
  30
0
  0
VERTEX
  5
93
  8
Layer_1
  10
198.44067
  20
260.97357
  0
VERTEX
  5
94
  8
Layer_1
  10
466.19751
  20
260.97314
  0
SEQEND
  0
POLYLINE
  5
96
  8
Layer_1
  62
5
  66
1
  10
0
  20
0
  30
0
  0
VERTEX
  5
96
  8
Layer_1
  10
198.44067
  20
365.7486
  0
VERTEX
  5
97
  8
Layer_1
  10
466.19751
  20
365.7486
  0
SEQEND
  0
POLYLINE
  5
99
  8
Layer_1
  62
5
  66
1
  10
0
  20
0
  30
0
  0
VERTEX
  5
99
  8
Layer_1
  10
466.19751
  20
365.7486
  0
VERTEX
  5
9a
  8
Layer_1
  10
466.19751
  20
260.97314
  0
SEQEND
  0
POLYLINE
  5
9c
  8
Layer_2
  62
254
  66
1
  10
0
  20
0
  30
0
  0
VERTEX
  5
9c
  8
Layer_2
  10
466.19324
  20
260.97314
  0
VERTEX
  5
9d
  8
Layer_2
  10
466.19324
  20
148.43665
  0
SEQEND
  0
POLYLINE
  5
9f
  8
Layer_2
  62
254
  66
1
  10
0
  20
0
  30
0
  0
VERTEX
  5
9f
  8
Layer_2
  10
198.41418
  20
478.30096
  0
VERTEX
  5
a0
  8
Layer_2
  10
93.63916
  20
478.30096
  0
SEQEND
  0
POLYLINE
  5
a2
  8
Layer_2
  62
254
  66
1
  10
0
  20
0
  30
0
  0
VERTEX
  5
a2
  8
Layer_2
  10
466.19324
  20
365.74817
  0
VERTEX
  5
a3
  8
Layer_2
  10
466.19324
  20
478.28381
  0
SEQEND
  0
POLYLINE
  5
a5
  8
Layer_2
  62
254
  66
1
  10
0
  20
0
  30
0
  0
VERTEX
  5
a5
  8
Layer_2
  10
466.19324
  20
478.28381
  0
VERTEX
  5
a6
  8
Layer_2
  10
198.43652
  20
478.28381
  0
SEQEND
  0
POLYLINE
  5
a8
  8
Layer_3
  62
138
  66
1
  10
0
  20
0
  30
0
  0
VERTEX
  5
a8
  8
Layer_3
  10
458.4314
  20
264.85294
  0
VERTEX
  5
a9
  8
Layer_3
  10
458.4314
  20
260.97314
  0
SEQEND
  0
POLYLINE
  5
ab
  8
Layer_3
  62
138
  66
1
  10
0
  20
0
  30
0
  0
VERTEX
  5
ab
  8
Layer_3
  10
206.19836
  20
260.97314
  0
VERTEX
  5
ac
  8
Layer_3
  10
206.19836
  20
264.85294
  0
SEQEND
  0
POLYLINE
  5
ae
  8
Layer_3
  62
138
  66
1
  10
0
  20
0
  30
0
  0
VERTEX
  5
ae
  8
Layer_3
  10
206.19836
  20
264.85294
  0
VERTEX
  5
af
  8
Layer_3
  10
458.4314
  20
264.85294
  0
SEQEND
  0
POLYLINE
  5
b1
  8
Layer_3
  62
138
  66
1
  10
0
  20
0
  30
0
  0
VERTEX
  5
b1
  8
Layer_3
  10
206.19836
  20
260.97314
  0
VERTEX
  5
b2
  8
Layer_3
  10
206.19836
  20
268.73389
  0
SEQEND
  0
POLYLINE
  5
b4
  8
Layer_3
  62
138
  66
1
  10
0
  20
0
  30
0
  0
VERTEX
  5
b4
  8
Layer_3
  10
206.19836
  20
268.73389
  0
VERTEX
  5
b5
  8
Layer_3
  10
198.43652
  20
268.73389
  0
SEQEND
  0
POLYLINE
  5
b7
  8
Layer_3
  62
138
  66
1
  10
0
  20
0
  30
0
  0
VERTEX
  5
b7
  8
Layer_3
  10
198.43652
  20
357.98663
  0
VERTEX
  5
b8
  8
Layer_3
  10
206.19836
  20
357.98663
  0
SEQEND
  0
POLYLINE
  5
ba
  8
Layer_3
  62
138
  66
1
  10
0
  20
0
  30
0
  0
VERTEX
  5
ba
  8
Layer_3
  10
206.19836
  20
357.98663
  0
VERTEX
  5
bb
  8
Layer_3
  10
206.19836
  20
365.74817
  0
SEQEND
  0
POLYLINE
  5
bd
  8
Layer_3
  62
138
  66
1
  10
0
  20
0
  30
0
  0
VERTEX
  5
bd
  8
Layer_3
  10
206.19836
  20
268.73389
  0
VERTEX
  5
be
  8
Layer_3
  10
206.19836
  20
357.98663
  0
SEQEND
  0
POLYLINE
  5
c0
  8
Layer_3
  62
138
  66
1
  10
0
  20
0
  30
0
  0
VERTEX
  5
c0
  8
Layer_3
  10
206.19836
  20
357.98663
  0
VERTEX
  5
c1
  8
Layer_3
  10
198.43652
  20
357.98663
  0
SEQEND
  0
POLYLINE
  5
c3
  8
Layer_3
  62
138
  66
1
  10
0
  20
0
  30
0
  0
VERTEX
  5
c3
  8
Layer_3
  10
198.43652
  20
268.73389
  0
VERTEX
  5
c4
  8
Layer_3
  10
206.19836
  20
268.73389
  0
SEQEND
  0
POLYLINE
  5
c6
  8
Layer_3
  62
138
  66
1
  10
0
  20
0
  30
0
  0
VERTEX
  5
c6
  8
Layer_3
  10
458.4314
  20
268.73389
  0
VERTEX
  5
c7
  8
Layer_3
  10
458.4314
  20
260.97314
  0
SEQEND
  0
POLYLINE
  5
c9
  8
Layer_3
  62
138
  66
1
  10
0
  20
0
  30
0
  0
VERTEX
  5
c9
  8
Layer_3
  10
466.19324
  20
268.73389
  0
VERTEX
  5
ca
  8
Layer_3
  10
458.4314
  20
268.73389
  0
SEQEND
  0
POLYLINE
  5
cc
  8
Layer_3
  62
138
  66
1
  10
0
  20
0
  30
0
  0
VERTEX
  5
cc
  8
Layer_3
  10
458.4314
  20
365.74817
  0
VERTEX
  5
cd
  8
Layer_3
  10
458.4314
  20
357.98663
  0
SEQEND
  0
POLYLINE
  5
cf
  8
Layer_3
  62
138
  66
1
  10
0
  20
0
  30
0
  0
VERTEX
  5
cf
  8
Layer_3
  10
458.4314
  20
357.98663
  0
VERTEX
  5
d0
  8
Layer_3
  10
466.19324
  20
357.98663
  0
SEQEND
  0
POLYLINE
  5
d2
  8
Layer_3
  62
138
  66
1
  10
0
  20
0
  30
0
  0
VERTEX
  5
d2
  8
Layer_3
  10
466.19324
  20
357.98663
  0
VERTEX
  5
d3
  8
Layer_3
  10
466.19324
  20
365.74817
  0
SEQEND
  0
POLYLINE
  5
d5
  8
Layer_3
  62
138
  66
1
  10
0
  20
0
  30
0
  0
VERTEX
  5
d5
  8
Layer_3
  10
210.07788
  20
357.98663
  0
VERTEX
  5
d6
  8
Layer_3
  10
210.07788
  20
268.73389
  0
SEQEND
  0
POLYLINE
  5
d8
  8
Layer_3
  62
138
  66
1
  10
0
  20
0
  30
0
  0
VERTEX
  5
d8
  8
Layer_3
  10
210.07788
  20
268.73389
  0
VERTEX
  5
d9
  8
Layer_3
  10
217.83972
  20
268.73389
  0
SEQEND
  0
POLYLINE
  5
db
  8
Layer_3
  62
138
  66
1
  10
0
  20
0
  30
0
  0
VERTEX
  5
db
  8
Layer_3
  10
217.83972
  20
268.73389
  0
VERTEX
  5
dc
  8
Layer_3
  10
217.83972
  20
357.98663
  0
SEQEND
  0
POLYLINE
  5
de
  8
Layer_3
  62
138
  66
1
  10
0
  20
0
  30
0
  0
VERTEX
  5
de
  8
Layer_3
  10
217.83972
  20
357.98663
  0
VERTEX
  5
df
  8
Layer_3
  10
210.07788
  20
357.98663
  0
SEQEND
  0
POLYLINE
  5
e1
  8
Layer_3
  62
138
  66
1
  10
0
  20
0
  30
0
  0
VERTEX
  5
e1
  8
Layer_3
  10
225.98853
  20
357.98663
  0
VERTEX
  5
e2
  8
Layer_3
  10
225.98853
  20
268.73389
  0
SEQEND
  0
POLYLINE
  5
e4
  8
Layer_3
  62
138
  66
1
  10
0
  20
0
  30
0
  0
VERTEX
  5
e4
  8
Layer_3
  10
225.98853
  20
268.73389
  0
VERTEX
  5
e5
  8
Layer_3
  10
233.75
  20
268.73389
  0
SEQEND
  0
POLYLINE
  5
e7
  8
Layer_3
  62
138
  66
1
  10
0
  20
0
  30
0
  0
VERTEX
  5
e7
  8
Layer_3
  10
233.75
  20
268.73389
  0
VERTEX
  5
e8
  8
Layer_3
  10
233.75
  20
357.98663
  0
SEQEND
  0
POLYLINE
  5
ea
  8
Layer_3
  62
138
  66
1
  10
0
  20
0
  30
0
  0
VERTEX
  5
ea
  8
Layer_3
  10
233.75
  20
357.98663
  0
VERTEX
  5
eb
  8
Layer_3
  10
225.98853
  20
357.98663
  0
SEQEND
  0
POLYLINE
  5
ed
  8
Layer_3
  62
138
  66
1
  10
0
  20
0
  30
0
  0
VERTEX
  5
ed
  8
Layer_3
  10
241.51025
  20
357.98663
  0
VERTEX
  5
ee
  8
Layer_3
  10
241.51025
  20
268.73389
  0
SEQEND
  0
POLYLINE
  5
f0
  8
Layer_3
  62
138
  66
1
  10
0
  20
0
  30
0
  0
VERTEX
  5
f0
  8
Layer_3
  10
241.51025
  20
268.73389
  0
VERTEX
  5
f1
  8
Layer_3
  10
249.27222
  20
268.73389
  0
SEQEND
  0
POLYLINE
  5
f3
  8
Layer_3
  62
138
  66
1
  10
0
  20
0
  30
0
  0
VERTEX
  5
f3
  8
Layer_3
  10
249.27222
  20
268.73389
  0
VERTEX
  5
f4
  8
Layer_3
  10
249.27222
  20
357.98663
  0
SEQEND
  0
POLYLINE
  5
f6
  8
Layer_3
  62
138
  66
1
  10
0
  20
0
  30
0
  0
VERTEX
  5
f6
  8
Layer_3
  10
249.27222
  20
357.98663
  0
VERTEX
  5
f7
  8
Layer_3
  10
241.51025
  20
357.98663
  0
SEQEND
  0
POLYLINE
  5
f9
  8
Layer_3
  62
138
  66
1
  10
0
  20
0
  30
0
  0
VERTEX
  5
f9
  8
Layer_3
  10
257.4209
  20
357.98663
  0
VERTEX
  5
fa
  8
Layer_3
  10
257.4209
  20
268.73389
  0
SEQEND
  0
POLYLINE
  5
fc
  8
Layer_3
  62
138
  66
1
  10
0
  20
0
  30
0
  0
VERTEX
  5
fc
  8
Layer_3
  10
257.4209
  20
268.73389
  0
VERTEX
  5
fd
  8
Layer_3
  10
265.1825
  20
268.73389
  0
SEQEND
  0
POLYLINE
  5
ff
  8
Layer_3
  62
138
  66
1
  10
0
  20
0
  30
0
  0
VERTEX
  5
ff
  8
Layer_3
  10
265.1825
  20
268.73389
  0
VERTEX
  5
100
  8
Layer_3
  10
265.1825
  20
357.98663
  0
SEQEND
  0
POLYLINE
  5
102
  8
Layer_3
  62
138
  66
1
  10
0
  20
0
  30
0
  0
VERTEX
  5
102
  8
Layer_3
  10
265.1825
  20
357.98663
  0
VERTEX
  5
103
  8
Layer_3
  10
257.4209
  20
357.98663
  0
SEQEND
  0
POLYLINE
  5
105
  8
Layer_3
  62
138
  66
1
  10
0
  20
0
  30
0
  0
VERTEX
  5
105
  8
Layer_3
  10
273.33118
  20
357.98663
  0
VERTEX
  5
106
  8
Layer_3
  10
273.33118
  20
268.73389
  0
SEQEND
  0
POLYLINE
  5
108
  8
Layer_3
  62
138
  66
1
  10
0
  20
0
  30
0
  0
VERTEX
  5
108
  8
Layer_3
  10
273.33118
  20
268.73389
  0
VERTEX
  5
109
  8
Layer_3
  10
281.09277
  20
268.73389
  0
SEQEND
  0
POLYLINE
  5
10b
  8
Layer_3
  62
138
  66
1
  10
0
  20
0
  30
0
  0
VERTEX
  5
10b
  8
Layer_3
  10
281.09277
  20
268.73389
  0
VERTEX
  5
10c
  8
Layer_3
  10
281.09277
  20
357.98663
  0
SEQEND
  0
POLYLINE
  5
10e
  8
Layer_3
  62
138
  66
1
  10
0
  20
0
  30
0
  0
VERTEX
  5
10e
  8
Layer_3
  10
281.09277
  20
357.98663
  0
VERTEX
  5
10f
  8
Layer_3
  10
273.33118
  20
357.98663
  0
SEQEND
  0
POLYLINE
  5
111
  8
Layer_3
  62
138
  66
1
  10
0
  20
0
  30
0
  0
VERTEX
  5
111
  8
Layer_3
  10
288.85339
  20
357.98663
  0
VERTEX
  5
112
  8
Layer_3
  10
288.85339
  20
268.73389
  0
SEQEND
  0
POLYLINE
  5
114
  8
Layer_3
  62
138
  66
1
  10
0
  20
0
  30
0
  0
VERTEX
  5
114
  8
Layer_3
  10
288.85339
  20
268.73389
  0
VERTEX
  5
115
  8
Layer_3
  10
296.61499
  20
268.73389
  0
SEQEND
  0
POLYLINE
  5
117
  8
Layer_3
  62
138
  66
1
  10
0
  20
0
  30
0
  0
VERTEX
  5
117
  8
Layer_3
  10
296.61499
  20
268.73389
  0
VERTEX
  5
118
  8
Layer_3
  10
296.61499
  20
357.98663
  0
SEQEND
  0
POLYLINE
  5
11a
  8
Layer_3
  62
138
  66
1
  10
0
  20
0
  30
0
  0
VERTEX
  5
11a
  8
Layer_3
  10
296.61499
  20
357.98663
  0
VERTEX
  5
11b
  8
Layer_3
  10
288.85339
  20
357.98663
  0
SEQEND
  0
POLYLINE
  5
11d
  8
Layer_3
  62
138
  66
1
  10
0
  20
0
  30
0
  0
VERTEX
  5
11d
  8
Layer_3
  10
304.76379
  20
357.98663
  0
VERTEX
  5
11e
  8
Layer_3
  10
304.76379
  20
268.73389
  0
SEQEND
  0
POLYLINE
  5
120
  8
Layer_3
  62
138
  66
1
  10
0
  20
0
  30
0
  0
VERTEX
  5
120
  8
Layer_3
  10
304.76379
  20
268.73389
  0
VERTEX
  5
121
  8
Layer_3
  10
312.52515
  20
268.73389
  0
SEQEND
  0
POLYLINE
  5
123
  8
Layer_3
  62
138
  66
1
  10
0
  20
0
  30
0
  0
VERTEX
  5
123
  8
Layer_3
  10
312.52515
  20
268.73389
  0
VERTEX
  5
124
  8
Layer_3
  10
312.52515
  20
357.98663
  0
SEQEND
  0
POLYLINE
  5
126
  8
Layer_3
  62
138
  66
1
  10
0
  20
0
  30
0
  0
VERTEX
  5
126
  8
Layer_3
  10
312.52515
  20
357.98663
  0
VERTEX
  5
127
  8
Layer_3
  10
304.76379
  20
357.98663
  0
SEQEND
  0
POLYLINE
  5
129
  8
Layer_3
  62
138
  66
1
  10
0
  20
0
  30
0
  0
VERTEX
  5
129
  8
Layer_3
  10
320.67407
  20
357.98663
  0
VERTEX
  5
12a
  8
Layer_3
  10
320.67407
  20
268.73389
  0
SEQEND
  0
POLYLINE
  5
12c
  8
Layer_3
  62
138
  66
1
  10
0
  20
0
  30
0
  0
VERTEX
  5
12c
  8
Layer_3
  10
320.67407
  20
268.73389
  0
VERTEX
  5
12d
  8
Layer_3
  10
328.43591
  20
268.73389
  0
SEQEND
  0
POLYLINE
  5
12f
  8
Layer_3
  62
138
  66
1
  10
0
  20
0
  30
0
  0
VERTEX
  5
12f
  8
Layer_3
  10
328.43591
  20
268.73389
  0
VERTEX
  5
130
  8
Layer_3
  10
328.43591
  20
357.98663
  0
SEQEND
  0
POLYLINE
  5
132
  8
Layer_3
  62
138
  66
1
  10
0
  20
0
  30
0
  0
VERTEX
  5
132
  8
Layer_3
  10
328.43591
  20
357.98663
  0
VERTEX
  5
133
  8
Layer_3
  10
320.67407
  20
357.98663
  0
SEQEND
  0
POLYLINE
  5
135
  8
Layer_3
  62
138
  66
1
  10
0
  20
0
  30
0
  0
VERTEX
  5
135
  8
Layer_3
  10
336.19629
  20
357.98663
  0
VERTEX
  5
136
  8
Layer_3
  10
336.19629
  20
268.73389
  0
SEQEND
  0
POLYLINE
  5
138
  8
Layer_3
  62
138
  66
1
  10
0
  20
0
  30
0
  0
VERTEX
  5
138
  8
Layer_3
  10
336.19629
  20
268.73389
  0
VERTEX
  5
139
  8
Layer_3
  10
343.95581
  20
268.73389
  0
SEQEND
  0
POLYLINE
  5
13b
  8
Layer_3
  62
138
  66
1
  10
0
  20
0
  30
0
  0
VERTEX
  5
13b
  8
Layer_3
  10
343.95581
  20
268.73389
  0
VERTEX
  5
13c
  8
Layer_3
  10
343.95581
  20
357.98663
  0
SEQEND
  0
POLYLINE
  5
13e
  8
Layer_3
  62
138
  66
1
  10
0
  20
0
  30
0
  0
VERTEX
  5
13e
  8
Layer_3
  10
343.95581
  20
357.98663
  0
VERTEX
  5
13f
  8
Layer_3
  10
336.19629
  20
357.98663
  0
SEQEND
  0
POLYLINE
  5
141
  8
Layer_3
  62
138
  66
1
  10
0
  20
0
  30
0
  0
VERTEX
  5
141
  8
Layer_3
  10
352.10449
  20
357.98663
  0
VERTEX
  5
142
  8
Layer_3
  10
352.10449
  20
268.73389
  0
SEQEND
  0
POLYLINE
  5
144
  8
Layer_3
  62
138
  66
1
  10
0
  20
0
  30
0
  0
VERTEX
  5
144
  8
Layer_3
  10
352.10449
  20
268.73389
  0
VERTEX
  5
145
  8
Layer_3
  10
359.86621
  20
268.73389
  0
SEQEND
  0
POLYLINE
  5
147
  8
Layer_3
  62
138
  66
1
  10
0
  20
0
  30
0
  0
VERTEX
  5
147
  8
Layer_3
  10
359.86621
  20
268.73389
  0
VERTEX
  5
148
  8
Layer_3
  10
359.86621
  20
357.98663
  0
SEQEND
  0
POLYLINE
  5
14a
  8
Layer_3
  62
138
  66
1
  10
0
  20
0
  30
0
  0
VERTEX
  5
14a
  8
Layer_3
  10
359.86621
  20
357.98663
  0
VERTEX
  5
14b
  8
Layer_3
  10
352.10449
  20
357.98663
  0
SEQEND
  0
POLYLINE
  5
14d
  8
Layer_3
  62
138
  66
1
  10
0
  20
0
  30
0
  0
VERTEX
  5
14d
  8
Layer_3
  10
368.01489
  20
357.98663
  0
VERTEX
  5
14e
  8
Layer_3
  10
368.01489
  20
268.73389
  0
SEQEND
  0
POLYLINE
  5
150
  8
Layer_3
  62
138
  66
1
  10
0
  20
0
  30
0
  0
VERTEX
  5
150
  8
Layer_3
  10
368.01489
  20
268.73389
  0
VERTEX
  5
151
  8
Layer_3
  10
375.77637
  20
268.73389
  0
SEQEND
  0
POLYLINE
  5
153
  8
Layer_3
  62
138
  66
1
  10
0
  20
0
  30
0
  0
VERTEX
  5
153
  8
Layer_3
  10
375.77637
  20
268.73389
  0
VERTEX
  5
154
  8
Layer_3
  10
375.77637
  20
357.98663
  0
SEQEND
  0
POLYLINE
  5
156
  8
Layer_3
  62
138
  66
1
  10
0
  20
0
  30
0
  0
VERTEX
  5
156
  8
Layer_3
  10
375.77637
  20
357.98663
  0
VERTEX
  5
157
  8
Layer_3
  10
368.01489
  20
357.98663
  0
SEQEND
  0
POLYLINE
  5
159
  8
Layer_3
  62
138
  66
1
  10
0
  20
0
  30
0
  0
VERTEX
  5
159
  8
Layer_3
  10
383.53711
  20
357.98663
  0
VERTEX
  5
15a
  8
Layer_3
  10
383.53711
  20
268.73389
  0
SEQEND
  0
POLYLINE
  5
15c
  8
Layer_3
  62
138
  66
1
  10
0
  20
0
  30
0
  0
VERTEX
  5
15c
  8
Layer_3
  10
383.53711
  20
268.73389
  0
VERTEX
  5
15d
  8
Layer_3
  10
391.29858
  20
268.73389
  0
SEQEND
  0
POLYLINE
  5
15f
  8
Layer_3
  62
138
  66
1
  10
0
  20
0
  30
0
  0
VERTEX
  5
15f
  8
Layer_3
  10
391.29858
  20
268.73389
  0
VERTEX
  5
160
  8
Layer_3
  10
391.29858
  20
357.98663
  0
SEQEND
  0
POLYLINE
  5
162
  8
Layer_3
  62
138
  66
1
  10
0
  20
0
  30
0
  0
VERTEX
  5
162
  8
Layer_3
  10
391.29858
  20
357.98663
  0
VERTEX
  5
163
  8
Layer_3
  10
383.53711
  20
357.98663
  0
SEQEND
  0
POLYLINE
  5
165
  8
Layer_3
  62
138
  66
1
  10
0
  20
0
  30
0
  0
VERTEX
  5
165
  8
Layer_3
  10
399.44739
  20
357.98663
  0
VERTEX
  5
166
  8
Layer_3
  10
399.44739
  20
268.73389
  0
SEQEND
  0
POLYLINE
  5
168
  8
Layer_3
  62
138
  66
1
  10
0
  20
0
  30
0
  0
VERTEX
  5
168
  8
Layer_3
  10
399.44739
  20
268.73389
  0
VERTEX
  5
169
  8
Layer_3
  10
407.20886
  20
268.73389
  0
SEQEND
  0
POLYLINE
  5
16b
  8
Layer_3
  62
138
  66
1
  10
0
  20
0
  30
0
  0
VERTEX
  5
16b
  8
Layer_3
  10
407.20886
  20
268.73389
  0
VERTEX
  5
16c
  8
Layer_3
  10
407.20886
  20
357.98663
  0
SEQEND
  0
POLYLINE
  5
16e
  8
Layer_3
  62
138
  66
1
  10
0
  20
0
  30
0
  0
VERTEX
  5
16e
  8
Layer_3
  10
407.20886
  20
357.98663
  0
VERTEX
  5
16f
  8
Layer_3
  10
399.44739
  20
357.98663
  0
SEQEND
  0
POLYLINE
  5
171
  8
Layer_3
  62
138
  66
1
  10
0
  20
0
  30
0
  0
VERTEX
  5
171
  8
Layer_3
  10
415.35767
  20
357.98663
  0
VERTEX
  5
172
  8
Layer_3
  10
415.35767
  20
268.73389
  0
SEQEND
  0
POLYLINE
  5
174
  8
Layer_3
  62
138
  66
1
  10
0
  20
0
  30
0
  0
VERTEX
  5
174
  8
Layer_3
  10
415.35767
  20
268.73389
  0
VERTEX
  5
175
  8
Layer_3
  10
423.11951
  20
268.73389
  0
SEQEND
  0
POLYLINE
  5
177
  8
Layer_3
  62
138
  66
1
  10
0
  20
0
  30
0
  0
VERTEX
  5
177
  8
Layer_3
  10
423.11951
  20
268.73389
  0
VERTEX
  5
178
  8
Layer_3
  10
423.11951
  20
357.98663
  0
SEQEND
  0
POLYLINE
  5
17a
  8
Layer_3
  62
138
  66
1
  10
0
  20
0
  30
0
  0
VERTEX
  5
17a
  8
Layer_3
  10
423.11951
  20
357.98663
  0
VERTEX
  5
17b
  8
Layer_3
  10
415.35767
  20
357.98663
  0
SEQEND
  0
POLYLINE
  5
17d
  8
Layer_3
  62
138
  66
1
  10
0
  20
0
  30
0
  0
VERTEX
  5
17d
  8
Layer_3
  10
430.87988
  20
357.98663
  0
VERTEX
  5
17e
  8
Layer_3
  10
430.87988
  20
268.73389
  0
SEQEND
  0
POLYLINE
  5
180
  8
Layer_3
  62
138
  66
1
  10
0
  20
0
  30
0
  0
VERTEX
  5
180
  8
Layer_3
  10
430.87988
  20
268.73389
  0
VERTEX
  5
181
  8
Layer_3
  10
438.64136
  20
268.73389
  0
SEQEND
  0
POLYLINE
  5
183
  8
Layer_3
  62
138
  66
1
  10
0
  20
0
  30
0
  0
VERTEX
  5
183
  8
Layer_3
  10
438.64136
  20
268.73389
  0
VERTEX
  5
184
  8
Layer_3
  10
438.64136
  20
357.98663
  0
SEQEND
  0
POLYLINE
  5
186
  8
Layer_3
  62
138
  66
1
  10
0
  20
0
  30
0
  0
VERTEX
  5
186
  8
Layer_3
  10
438.64136
  20
357.98663
  0
VERTEX
  5
187
  8
Layer_3
  10
430.87988
  20
357.98663
  0
SEQEND
  0
POLYLINE
  5
189
  8
Layer_3
  62
138
  66
1
  10
0
  20
0
  30
0
  0
VERTEX
  5
189
  8
Layer_3
  10
446.79016
  20
357.98663
  0
VERTEX
  5
18a
  8
Layer_3
  10
446.79016
  20
268.73389
  0
SEQEND
  0
POLYLINE
  5
18c
  8
Layer_3
  62
138
  66
1
  10
0
  20
0
  30
0
  0
VERTEX
  5
18c
  8
Layer_3
  10
446.79016
  20
268.73389
  0
VERTEX
  5
18d
  8
Layer_3
  10
454.552
  20
268.73389
  0
SEQEND
  0
POLYLINE
  5
18f
  8
Layer_3
  62
138
  66
1
  10
0
  20
0
  30
0
  0
VERTEX
  5
18f
  8
Layer_3
  10
454.552
  20
268.73389
  0
VERTEX
  5
190
  8
Layer_3
  10
454.552
  20
357.98663
  0
SEQEND
  0
POLYLINE
  5
192
  8
Layer_3
  62
138
  66
1
  10
0
  20
0
  30
0
  0
VERTEX
  5
192
  8
Layer_3
  10
454.552
  20
357.98663
  0
VERTEX
  5
193
  8
Layer_3
  10
446.79016
  20
357.98663
  0
SEQEND
  0
POLYLINE
  5
195
  8
Layer_3
  62
138
  66
1
  10
0
  20
0
  30
0
  0
VERTEX
  5
195
  8
Layer_3
  10
458.4314
  20
156.19812
  0
VERTEX
  5
196
  8
Layer_3
  10
458.4314
  20
148.43665
  0
SEQEND
  0
POLYLINE
  5
198
  8
Layer_3
  62
138
  66
1
  10
0
  20
0
  30
0
  0
VERTEX
  5
198
  8
Layer_3
  10
466.19324
  20
148.43665
  0
VERTEX
  5
199
  8
Layer_3
  10
466.19324
  20
156.19812
  0
SEQEND
  0
POLYLINE
  5
19b
  8
Layer_3
  62
138
  66
1
  10
0
  20
0
  30
0
  0
VERTEX
  5
19b
  8
Layer_3
  10
466.19324
  20
156.19812
  0
VERTEX
  5
19c
  8
Layer_3
  10
458.4314
  20
156.19812
  0
SEQEND
  0
POLYLINE
  5
19e
  8
Layer_3
  62
138
  66
1
  10
0
  20
0
  30
0
  0
VERTEX
  5
19e
  8
Layer_3
  10
458.4314
  20
260.97314
  0
VERTEX
  5
19f
  8
Layer_3
  10
458.4314
  20
253.21164
  0
SEQEND
  0
POLYLINE
  5
1a1
  8
Layer_3
  62
138
  66
1
  10
0
  20
0
  30
0
  0
VERTEX
  5
1a1
  8
Layer_3
  10
458.4314
  20
253.21164
  0
VERTEX
  5
1a2
  8
Layer_3
  10
466.19324
  20
253.21164
  0
SEQEND
  0
POLYLINE
  5
1a4
  8
Layer_3
  62
138
  66
1
  10
0
  20
0
  30
0
  0
VERTEX
  5
1a4
  8
Layer_3
  10
466.19324
  20
253.21164
  0
VERTEX
  5
1a5
  8
Layer_3
  10
466.19324
  20
260.97314
  0
SEQEND
  0
POLYLINE
  5
1a7
  8
Layer_3
  62
138
  66
1
  10
0
  20
0
  30
0
  0
VERTEX
  5
1a7
  8
Layer_3
  10
466.19324
  20
253.21164
  0
VERTEX
  5
1a8
  8
Layer_3
  10
458.4314
  20
253.21164
  0
SEQEND
  0
POLYLINE
  5
1aa
  8
Layer_3
  62
138
  66
1
  10
0
  20
0
  30
0
  0
VERTEX
  5
1aa
  8
Layer_3
  10
458.4314
  20
253.21164
  0
VERTEX
  5
1ab
  8
Layer_3
  10
458.4314
  20
156.19812
  0
SEQEND
  0
POLYLINE
  5
1ad
  8
Layer_3
  62
138
  66
1
  10
0
  20
0
  30
0
  0
VERTEX
  5
1ad
  8
Layer_3
  10
458.4314
  20
156.19812
  0
VERTEX
  5
1ae
  8
Layer_3
  10
466.19324
  20
156.19812
  0
SEQEND
  0
POLYLINE
  5
1b0
  8
Layer_3
  62
138
  66
1
  10
0
  20
0
  30
0
  0
VERTEX
  5
1b0
  8
Layer_3
  10
206.19836
  20
148.43665
  0
VERTEX
  5
1b1
  8
Layer_3
  10
206.19836
  20
156.19812
  0
SEQEND
  0
POLYLINE
  5
1b3
  8
Layer_3
  62
138
  66
1
  10
0
  20
0
  30
0
  0
VERTEX
  5
1b3
  8
Layer_3
  10
206.19836
  20
156.19812
  0
VERTEX
  5
1b4
  8
Layer_3
  10
198.43652
  20
156.19812
  0
SEQEND
  0
POLYLINE
  5
1b6
  8
Layer_3
  62
138
  66
1
  10
0
  20
0
  30
0
  0
VERTEX
  5
1b6
  8
Layer_3
  10
198.43652
  20
253.21164
  0
VERTEX
  5
1b7
  8
Layer_3
  10
206.19836
  20
253.21164
  0
SEQEND
  0
POLYLINE
  5
1b9
  8
Layer_3
  62
138
  66
1
  10
0
  20
0
  30
0
  0
VERTEX
  5
1b9
  8
Layer_3
  10
206.19836
  20
253.21164
  0
VERTEX
  5
1ba
  8
Layer_3
  10
206.19836
  20
260.97314
  0
SEQEND
  0
POLYLINE
  5
1bc
  8
Layer_3
  62
138
  66
1
  10
0
  20
0
  30
0
  0
VERTEX
  5
1bc
  8
Layer_3
  10
206.19836
  20
156.19812
  0
VERTEX
  5
1bd
  8
Layer_3
  10
206.19836
  20
253.21164
  0
SEQEND
  0
POLYLINE
  5
1bf
  8
Layer_3
  62
138
  66
1
  10
0
  20
0
  30
0
  0
VERTEX
  5
1bf
  8
Layer_3
  10
206.19836
  20
253.21164
  0
VERTEX
  5
1c0
  8
Layer_3
  10
198.43652
  20
253.21164
  0
SEQEND
  0
POLYLINE
  5
1c2
  8
Layer_3
  62
138
  66
1
  10
0
  20
0
  30
0
  0
VERTEX
  5
1c2
  8
Layer_3
  10
198.43652
  20
156.19812
  0
VERTEX
  5
1c3
  8
Layer_3
  10
206.19836
  20
156.19812
  0
SEQEND
  0
POLYLINE
  5
1c5
  8
Layer_3
  62
138
  66
1
  10
0
  20
0
  30
0
  0
VERTEX
  5
1c5
  8
Layer_3
  10
206.19836
  20
152.3172
  0
VERTEX
  5
1c6
  8
Layer_3
  10
206.19836
  20
148.43665
  0
SEQEND
  0
POLYLINE
  5
1c8
  8
Layer_3
  62
138
  66
1
  10
0
  20
0
  30
0
  0
VERTEX
  5
1c8
  8
Layer_3
  10
458.4314
  20
148.43665
  0
VERTEX
  5
1c9
  8
Layer_3
  10
458.4314
  20
152.3172
  0
SEQEND
  0
POLYLINE
  5
1cb
  8
Layer_3
  62
138
  66
1
  10
0
  20
0
  30
0
  0
VERTEX
  5
1cb
  8
Layer_3
  10
458.4314
  20
152.3172
  0
VERTEX
  5
1cc
  8
Layer_3
  10
206.19836
  20
152.3172
  0
SEQEND
  0
POLYLINE
  5
1ce
  8
Layer_3
  62
138
  66
1
  10
0
  20
0
  30
0
  0
VERTEX
  5
1ce
  8
Layer_3
  10
206.19836
  20
156.19812
  0
VERTEX
  5
1cf
  8
Layer_3
  10
206.19836
  20
152.3172
  0
SEQEND
  0
POLYLINE
  5
1d1
  8
Layer_3
  62
138
  66
1
  10
0
  20
0
  30
0
  0
VERTEX
  5
1d1
  8
Layer_3
  10
206.19836
  20
152.3172
  0
VERTEX
  5
1d2
  8
Layer_3
  10
458.4314
  20
152.3172
  0
SEQEND
  0
POLYLINE
  5
1d4
  8
Layer_3
  62
138
  66
1
  10
0
  20
0
  30
0
  0
VERTEX
  5
1d4
  8
Layer_3
  10
458.4314
  20
152.3172
  0
VERTEX
  5
1d5
  8
Layer_3
  10
458.4314
  20
156.19812
  0
SEQEND
  0
POLYLINE
  5
1d7
  8
Layer_3
  62
138
  66
1
  10
0
  20
0
  30
0
  0
VERTEX
  5
1d7
  8
Layer_3
  10
458.4314
  20
156.19812
  0
VERTEX
  5
1d8
  8
Layer_3
  10
206.19836
  20
156.19812
  0
SEQEND
  0
POLYLINE
  5
1da
  8
Layer_3
  62
138
  66
1
  10
0
  20
0
  30
0
  0
VERTEX
  5
1da
  8
Layer_3
  10
206.19836
  20
260.97314
  0
VERTEX
  5
1db
  8
Layer_3
  10
206.19836
  20
257.09219
  0
SEQEND
  0
POLYLINE
  5
1dd
  8
Layer_3
  62
138
  66
1
  10
0
  20
0
  30
0
  0
VERTEX
  5
1dd
  8
Layer_3
  10
206.19836
  20
257.09219
  0
VERTEX
  5
1de
  8
Layer_3
  10
458.4314
  20
257.09219
  0
SEQEND
  0
POLYLINE
  5
1e0
  8
Layer_3
  62
138
  66
1
  10
0
  20
0
  30
0
  0
VERTEX
  5
1e0
  8
Layer_3
  10
458.4314
  20
257.09219
  0
VERTEX
  5
1e1
  8
Layer_3
  10
458.4314
  20
260.97314
  0
SEQEND
  0
POLYLINE
  5
1e3
  8
Layer_3
  62
138
  66
1
  10
0
  20
0
  30
0
  0
VERTEX
  5
1e3
  8
Layer_3
  10
213.95886
  20
257.09219
  0
VERTEX
  5
1e4
  8
Layer_3
  10
213.95886
  20
156.19812
  0
SEQEND
  0
POLYLINE
  5
1e6
  8
Layer_3
  62
138
  66
1
  10
0
  20
0
  30
0
  0
VERTEX
  5
1e6
  8
Layer_3
  10
213.95886
  20
156.19812
  0
VERTEX
  5
1e7
  8
Layer_3
  10
221.72021
  20
156.19812
  0
SEQEND
  0
POLYLINE
  5
1e9
  8
Layer_3
  62
138
  66
1
  10
0
  20
0
  30
0
  0
VERTEX
  5
1e9
  8
Layer_3
  10
221.72021
  20
156.19812
  0
VERTEX
  5
1ea
  8
Layer_3
  10
221.72021
  20
257.09219
  0
SEQEND
  0
POLYLINE
  5
1ec
  8
Layer_3
  62
138
  66
1
  10
0
  20
0
  30
0
  0
VERTEX
  5
1ec
  8
Layer_3
  10
221.72021
  20
257.09219
  0
VERTEX
  5
1ed
  8
Layer_3
  10
213.95886
  20
257.09219
  0
SEQEND
  0
POLYLINE
  5
1ef
  8
Layer_3
  62
138
  66
1
  10
0
  20
0
  30
0
  0
VERTEX
  5
1ef
  8
Layer_3
  10
244.61597
  20
257.09219
  0
VERTEX
  5
1f0
  8
Layer_3
  10
244.61597
  20
156.19812
  0
SEQEND
  0
POLYLINE
  5
1f2
  8
Layer_3
  62
138
  66
1
  10
0
  20
0
  30
0
  0
VERTEX
  5
1f2
  8
Layer_3
  10
244.61597
  20
156.19812
  0
VERTEX
  5
1f3
  8
Layer_3
  10
252.37622
  20
156.19812
  0
SEQEND
  0
POLYLINE
  5
1f5
  8
Layer_3
  62
138
  66
1
  10
0
  20
0
  30
0
  0
VERTEX
  5
1f5
  8
Layer_3
  10
252.37622
  20
156.19812
  0
VERTEX
  5
1f6
  8
Layer_3
  10
252.37622
  20
257.09219
  0
SEQEND
  0
POLYLINE
  5
1f8
  8
Layer_3
  62
138
  66
1
  10
0
  20
0
  30
0
  0
VERTEX
  5
1f8
  8
Layer_3
  10
252.37622
  20
257.09219
  0
VERTEX
  5
1f9
  8
Layer_3
  10
244.61597
  20
257.09219
  0
SEQEND
  0
POLYLINE
  5
1fb
  8
Layer_3
  62
138
  66
1
  10
0
  20
0
  30
0
  0
VERTEX
  5
1fb
  8
Layer_3
  10
259.74976
  20
257.09219
  0
VERTEX
  5
1fc
  8
Layer_3
  10
259.74976
  20
156.19812
  0
SEQEND
  0
POLYLINE
  5
1fe
  8
Layer_3
  62
138
  66
1
  10
0
  20
0
  30
0
  0
VERTEX
  5
1fe
  8
Layer_3
  10
259.74976
  20
156.19812
  0
VERTEX
  5
1ff
  8
Layer_3
  10
267.51001
  20
156.19812
  0
SEQEND
  0
POLYLINE
  5
201
  8
Layer_3
  62
138
  66
1
  10
0
  20
0
  30
0
  0
VERTEX
  5
201
  8
Layer_3
  10
267.51001
  20
156.19812
  0
VERTEX
  5
202
  8
Layer_3
  10
267.51001
  20
257.09219
  0
SEQEND
  0
POLYLINE
  5
204
  8
Layer_3
  62
138
  66
1
  10
0
  20
0
  30
0
  0
VERTEX
  5
204
  8
Layer_3
  10
267.51001
  20
257.09219
  0
VERTEX
  5
205
  8
Layer_3
  10
259.74976
  20
257.09219
  0
SEQEND
  0
POLYLINE
  5
207
  8
Layer_3
  62
138
  66
1
  10
0
  20
0
  30
0
  0
VERTEX
  5
207
  8
Layer_3
  10
274.88342
  20
257.09219
  0
VERTEX
  5
208
  8
Layer_3
  10
274.88342
  20
156.19812
  0
SEQEND
  0
POLYLINE
  5
20a
  8
Layer_3
  62
138
  66
1
  10
0
  20
0
  30
0
  0
VERTEX
  5
20a
  8
Layer_3
  10
274.88342
  20
156.19812
  0
VERTEX
  5
20b
  8
Layer_3
  10
282.64502
  20
156.19812
  0
SEQEND
  0
POLYLINE
  5
20d
  8
Layer_3
  62
138
  66
1
  10
0
  20
0
  30
0
  0
VERTEX
  5
20d
  8
Layer_3
  10
282.64502
  20
156.19812
  0
VERTEX
  5
20e
  8
Layer_3
  10
282.64502
  20
257.09219
  0
SEQEND
  0
POLYLINE
  5
210
  8
Layer_3
  62
138
  66
1
  10
0
  20
0
  30
0
  0
VERTEX
  5
210
  8
Layer_3
  10
282.64502
  20
257.09219
  0
VERTEX
  5
211
  8
Layer_3
  10
274.88342
  20
257.09219
  0
SEQEND
  0
POLYLINE
  5
213
  8
Layer_3
  62
138
  66
1
  10
0
  20
0
  30
0
  0
VERTEX
  5
213
  8
Layer_3
  10
290.40527
  20
257.09219
  0
VERTEX
  5
214
  8
Layer_3
  10
290.40527
  20
156.19812
  0
SEQEND
  0
POLYLINE
  5
216
  8
Layer_3
  62
138
  66
1
  10
0
  20
0
  30
0
  0
VERTEX
  5
216
  8
Layer_3
  10
290.40527
  20
156.19812
  0
VERTEX
  5
217
  8
Layer_3
  10
298.16724
  20
156.19812
  0
SEQEND
  0
POLYLINE
  5
219
  8
Layer_3
  62
138
  66
1
  10
0
  20
0
  30
0
  0
VERTEX
  5
219
  8
Layer_3
  10
298.16724
  20
156.19812
  0
VERTEX
  5
21a
  8
Layer_3
  10
298.16724
  20
257.09219
  0
SEQEND
  0
POLYLINE
  5
21c
  8
Layer_3
  62
138
  66
1
  10
0
  20
0
  30
0
  0
VERTEX
  5
21c
  8
Layer_3
  10
298.16724
  20
257.09219
  0
VERTEX
  5
21d
  8
Layer_3
  10
290.40527
  20
257.09219
  0
SEQEND
  0
POLYLINE
  5
21f
  8
Layer_3
  62
138
  66
1
  10
0
  20
0
  30
0
  0
VERTEX
  5
21f
  8
Layer_3
  10
305.54028
  20
257.09219
  0
VERTEX
  5
220
  8
Layer_3
  10
305.54028
  20
156.19812
  0
SEQEND
  0
POLYLINE
  5
222
  8
Layer_3
  62
138
  66
1
  10
0
  20
0
  30
0
  0
VERTEX
  5
222
  8
Layer_3
  10
305.54028
  20
156.19812
  0
VERTEX
  5
223
  8
Layer_3
  10
313.30103
  20
156.19812
  0
SEQEND
  0
POLYLINE
  5
225
  8
Layer_3
  62
138
  66
1
  10
0
  20
0
  30
0
  0
VERTEX
  5
225
  8
Layer_3
  10
313.30103
  20
156.19812
  0
VERTEX
  5
226
  8
Layer_3
  10
313.30103
  20
257.09219
  0
SEQEND
  0
POLYLINE
  5
228
  8
Layer_3
  62
138
  66
1
  10
0
  20
0
  30
0
  0
VERTEX
  5
228
  8
Layer_3
  10
313.30103
  20
257.09219
  0
VERTEX
  5
229
  8
Layer_3
  10
305.54028
  20
257.09219
  0
SEQEND
  0
POLYLINE
  5
22b
  8
Layer_3
  62
138
  66
1
  10
0
  20
0
  30
0
  0
VERTEX
  5
22b
  8
Layer_3
  10
320.67407
  20
257.09219
  0
VERTEX
  5
22c
  8
Layer_3
  10
320.67407
  20
156.19812
  0
SEQEND
  0
POLYLINE
  5
22e
  8
Layer_3
  62
138
  66
1
  10
0
  20
0
  30
0
  0
VERTEX
  5
22e
  8
Layer_3
  10
320.67407
  20
156.19812
  0
VERTEX
  5
22f
  8
Layer_3
  10
328.43591
  20
156.19812
  0
SEQEND
  0
POLYLINE
  5
231
  8
Layer_3
  62
138
  66
1
  10
0
  20
0
  30
0
  0
VERTEX
  5
231
  8
Layer_3
  10
328.43591
  20
156.19812
  0
VERTEX
  5
232
  8
Layer_3
  10
328.43591
  20
257.09219
  0
SEQEND
  0
POLYLINE
  5
234
  8
Layer_3
  62
138
  66
1
  10
0
  20
0
  30
0
  0
VERTEX
  5
234
  8
Layer_3
  10
328.43591
  20
257.09219
  0
VERTEX
  5
235
  8
Layer_3
  10
320.67407
  20
257.09219
  0
SEQEND
  0
POLYLINE
  5
237
  8
Layer_3
  62
138
  66
1
  10
0
  20
0
  30
0
  0
VERTEX
  5
237
  8
Layer_3
  10
336.19629
  20
257.09219
  0
VERTEX
  5
238
  8
Layer_3
  10
336.19629
  20
156.19812
  0
SEQEND
  0
POLYLINE
  5
23a
  8
Layer_3
  62
138
  66
1
  10
0
  20
0
  30
0
  0
VERTEX
  5
23a
  8
Layer_3
  10
336.19629
  20
156.19812
  0
VERTEX
  5
23b
  8
Layer_3
  10
343.95581
  20
156.19812
  0
SEQEND
  0
POLYLINE
  5
23d
  8
Layer_3
  62
138
  66
1
  10
0
  20
0
  30
0
  0
VERTEX
  5
23d
  8
Layer_3
  10
343.95581
  20
156.19812
  0
VERTEX
  5
23e
  8
Layer_3
  10
343.95581
  20
257.09219
  0
SEQEND
  0
POLYLINE
  5
240
  8
Layer_3
  62
138
  66
1
  10
0
  20
0
  30
0
  0
VERTEX
  5
240
  8
Layer_3
  10
343.95581
  20
257.09219
  0
VERTEX
  5
241
  8
Layer_3
  10
336.19629
  20
257.09219
  0
SEQEND
  0
POLYLINE
  5
243
  8
Layer_3
  62
138
  66
1
  10
0
  20
0
  30
0
  0
VERTEX
  5
243
  8
Layer_3
  10
351.32886
  20
257.09219
  0
VERTEX
  5
244
  8
Layer_3
  10
351.32886
  20
156.19812
  0
SEQEND
  0
POLYLINE
  5
246
  8
Layer_3
  62
138
  66
1
  10
0
  20
0
  30
0
  0
VERTEX
  5
246
  8
Layer_3
  10
351.32886
  20
156.19812
  0
VERTEX
  5
247
  8
Layer_3
  10
359.0896
  20
156.19812
  0
SEQEND
  0
POLYLINE
  5
249
  8
Layer_3
  62
138
  66
1
  10
0
  20
0
  30
0
  0
VERTEX
  5
249
  8
Layer_3
  10
359.0896
  20
156.19812
  0
VERTEX
  5
24a
  8
Layer_3
  10
359.0896
  20
257.09219
  0
SEQEND
  0
POLYLINE
  5
24c
  8
Layer_3
  62
138
  66
1
  10
0
  20
0
  30
0
  0
VERTEX
  5
24c
  8
Layer_3
  10
359.0896
  20
257.09219
  0
VERTEX
  5
24d
  8
Layer_3
  10
351.32886
  20
257.09219
  0
SEQEND
  0
POLYLINE
  5
24f
  8
Layer_3
  62
138
  66
1
  10
0
  20
0
  30
0
  0
VERTEX
  5
24f
  8
Layer_3
  10
366.46252
  20
257.09219
  0
VERTEX
  5
250
  8
Layer_3
  10
366.46252
  20
156.19812
  0
SEQEND
  0
POLYLINE
  5
252
  8
Layer_3
  62
138
  66
1
  10
0
  20
0
  30
0
  0
VERTEX
  5
252
  8
Layer_3
  10
366.46252
  20
156.19812
  0
VERTEX
  5
253
  8
Layer_3
  10
374.22437
  20
156.19812
  0
SEQEND
  0
POLYLINE
  5
255
  8
Layer_3
  62
138
  66
1
  10
0
  20
0
  30
0
  0
VERTEX
  5
255
  8
Layer_3
  10
374.22437
  20
156.19812
  0
VERTEX
  5
256
  8
Layer_3
  10
374.22437
  20
257.09219
  0
SEQEND
  0
POLYLINE
  5
258
  8
Layer_3
  62
138
  66
1
  10
0
  20
0
  30
0
  0
VERTEX
  5
258
  8
Layer_3
  10
374.22437
  20
257.09219
  0
VERTEX
  5
259
  8
Layer_3
  10
366.46252
  20
257.09219
  0
SEQEND
  0
POLYLINE
  5
25b
  8
Layer_3
  62
138
  66
1
  10
0
  20
0
  30
0
  0
VERTEX
  5
25b
  8
Layer_3
  10
381.98486
  20
257.09219
  0
VERTEX
  5
25c
  8
Layer_3
  10
381.98486
  20
156.19812
  0
SEQEND
  0
POLYLINE
  5
25e
  8
Layer_3
  62
138
  66
1
  10
0
  20
0
  30
0
  0
VERTEX
  5
25e
  8
Layer_3
  10
381.98486
  20
156.19812
  0
VERTEX
  5
25f
  8
Layer_3
  10
389.74622
  20
156.19812
  0
SEQEND
  0
POLYLINE
  5
261
  8
Layer_3
  62
138
  66
1
  10
0
  20
0
  30
0
  0
VERTEX
  5
261
  8
Layer_3
  10
389.74622
  20
156.19812
  0
VERTEX
  5
262
  8
Layer_3
  10
389.74622
  20
257.09219
  0
SEQEND
  0
POLYLINE
  5
264
  8
Layer_3
  62
138
  66
1
  10
0
  20
0
  30
0
  0
VERTEX
  5
264
  8
Layer_3
  10
389.74622
  20
257.09219
  0
VERTEX
  5
265
  8
Layer_3
  10
381.98486
  20
257.09219
  0
SEQEND
  0
POLYLINE
  5
267
  8
Layer_3
  62
138
  66
1
  10
0
  20
0
  30
0
  0
VERTEX
  5
267
  8
Layer_3
  10
397.11877
  20
257.09219
  0
VERTEX
  5
268
  8
Layer_3
  10
397.11877
  20
156.19812
  0
SEQEND
  0
POLYLINE
  5
26a
  8
Layer_3
  62
138
  66
1
  10
0
  20
0
  30
0
  0
VERTEX
  5
26a
  8
Layer_3
  10
397.11877
  20
156.19812
  0
VERTEX
  5
26b
  8
Layer_3
  10
404.88025
  20
156.19812
  0
SEQEND
  0
POLYLINE
  5
26d
  8
Layer_3
  62
138
  66
1
  10
0
  20
0
  30
0
  0
VERTEX
  5
26d
  8
Layer_3
  10
404.88025
  20
156.19812
  0
VERTEX
  5
26e
  8
Layer_3
  10
404.88025
  20
257.09219
  0
SEQEND
  0
POLYLINE
  5
270
  8
Layer_3
  62
138
  66
1
  10
0
  20
0
  30
0
  0
VERTEX
  5
270
  8
Layer_3
  10
404.88025
  20
257.09219
  0
VERTEX
  5
271
  8
Layer_3
  10
397.11877
  20
257.09219
  0
SEQEND
  0
POLYLINE
  5
273
  8
Layer_3
  62
138
  66
1
  10
0
  20
0
  30
0
  0
VERTEX
  5
273
  8
Layer_3
  10
412.25366
  20
257.09219
  0
VERTEX
  5
274
  8
Layer_3
  10
412.25366
  20
156.19812
  0
SEQEND
  0
POLYLINE
  5
276
  8
Layer_3
  62
138
  66
1
  10
0
  20
0
  30
0
  0
VERTEX
  5
276
  8
Layer_3
  10
412.25366
  20
156.19812
  0
VERTEX
  5
277
  8
Layer_3
  10
420.01392
  20
156.19812
  0
SEQEND
  0
POLYLINE
  5
279
  8
Layer_3
  62
138
  66
1
  10
0
  20
0
  30
0
  0
VERTEX
  5
279
  8
Layer_3
  10
420.01392
  20
156.19812
  0
VERTEX
  5
27a
  8
Layer_3
  10
420.01392
  20
257.09219
  0
SEQEND
  0
POLYLINE
  5
27c
  8
Layer_3
  62
138
  66
1
  10
0
  20
0
  30
0
  0
VERTEX
  5
27c
  8
Layer_3
  10
420.01392
  20
257.09219
  0
VERTEX
  5
27d
  8
Layer_3
  10
412.25366
  20
257.09219
  0
SEQEND
  0
POLYLINE
  5
27f
  8
Layer_3
  62
138
  66
1
  10
0
  20
0
  30
0
  0
VERTEX
  5
27f
  8
Layer_3
  10
427.77588
  20
257.09219
  0
VERTEX
  5
280
  8
Layer_3
  10
427.77588
  20
156.19812
  0
SEQEND
  0
POLYLINE
  5
282
  8
Layer_3
  62
138
  66
1
  10
0
  20
0
  30
0
  0
VERTEX
  5
282
  8
Layer_3
  10
427.77588
  20
156.19812
  0
VERTEX
  5
283
  8
Layer_3
  10
435.53625
  20
156.19812
  0
SEQEND
  0
POLYLINE
  5
285
  8
Layer_3
  62
138
  66
1
  10
0
  20
0
  30
0
  0
VERTEX
  5
285
  8
Layer_3
  10
435.53625
  20
156.19812
  0
VERTEX
  5
286
  8
Layer_3
  10
435.53625
  20
257.09219
  0
SEQEND
  0
POLYLINE
  5
288
  8
Layer_3
  62
138
  66
1
  10
0
  20
0
  30
0
  0
VERTEX
  5
288
  8
Layer_3
  10
435.53625
  20
257.09219
  0
VERTEX
  5
289
  8
Layer_3
  10
427.77588
  20
257.09219
  0
SEQEND
  0
POLYLINE
  5
28b
  8
Layer_3
  62
138
  66
1
  10
0
  20
0
  30
0
  0
VERTEX
  5
28b
  8
Layer_3
  10
442.90955
  20
257.09219
  0
VERTEX
  5
28c
  8
Layer_3
  10
442.90955
  20
156.19812
  0
SEQEND
  0
POLYLINE
  5
28e
  8
Layer_3
  62
138
  66
1
  10
0
  20
0
  30
0
  0
VERTEX
  5
28e
  8
Layer_3
  10
442.90955
  20
156.19812
  0
VERTEX
  5
28f
  8
Layer_3
  10
450.67102
  20
156.19812
  0
SEQEND
  0
POLYLINE
  5
291
  8
Layer_3
  62
138
  66
1
  10
0
  20
0
  30
0
  0
VERTEX
  5
291
  8
Layer_3
  10
450.67102
  20
156.19812
  0
VERTEX
  5
292
  8
Layer_3
  10
450.67102
  20
257.09219
  0
SEQEND
  0
POLYLINE
  5
294
  8
Layer_3
  62
138
  66
1
  10
0
  20
0
  30
0
  0
VERTEX
  5
294
  8
Layer_3
  10
450.67102
  20
257.09219
  0
VERTEX
  5
295
  8
Layer_3
  10
442.90955
  20
257.09219
  0
SEQEND
  0
POLYLINE
  5
297
  8
Layer_3
  62
138
  66
1
  10
0
  20
0
  30
0
  0
VERTEX
  5
297
  8
Layer_3
  10
229.09253
  20
257.09219
  0
VERTEX
  5
298
  8
Layer_3
  10
229.09253
  20
156.19812
  0
SEQEND
  0
POLYLINE
  5
29a
  8
Layer_3
  62
138
  66
1
  10
0
  20
0
  30
0
  0
VERTEX
  5
29a
  8
Layer_3
  10
229.09253
  20
156.19812
  0
VERTEX
  5
29b
  8
Layer_3
  10
236.854
  20
156.19812
  0
SEQEND
  0
POLYLINE
  5
29d
  8
Layer_3
  62
138
  66
1
  10
0
  20
0
  30
0
  0
VERTEX
  5
29d
  8
Layer_3
  10
236.854
  20
156.19812
  0
VERTEX
  5
29e
  8
Layer_3
  10
236.854
  20
257.09219
  0
SEQEND
  0
POLYLINE
  5
2a0
  8
Layer_3
  62
138
  66
1
  10
0
  20
0
  30
0
  0
VERTEX
  5
2a0
  8
Layer_3
  10
236.854
  20
257.09219
  0
VERTEX
  5
2a1
  8
Layer_3
  10
229.09253
  20
257.09219
  0
SEQEND
  0
POLYLINE
  5
2a3
  8
Layer_3
  62
138
  66
1
  10
0
  20
0
  30
0
  0
VERTEX
  5
2a3
  8
Layer_3
  10
101.3999
  20
470.53943
  0
VERTEX
  5
2a4
  8
Layer_3
  10
144.08643
  20
470.53943
  0
SEQEND
  0
POLYLINE
  5
2a6
  8
Layer_3
  62
138
  66
1
  10
0
  20
0
  30
0
  0
VERTEX
  5
2a6
  8
Layer_3
  10
144.08643
  20
369.64502
  0
VERTEX
  5
2a7
  8
Layer_3
  10
101.3999
  20
369.64502
  0
SEQEND
  0
POLYLINE
  5
2a9
  8
Layer_3
  62
138
  66
1
  10
0
  20
0
  30
0
  0
VERTEX
  5
2a9
  8
Layer_3
  10
144.08643
  20
369.64502
  0
VERTEX
  5
2aa
  8
Layer_3
  10
147.96692
  20
369.64502
  0
SEQEND
  0
POLYLINE
  5
2ac
  8
Layer_3
  62
138
  66
1
  10
0
  20
0
  30
0
  0
VERTEX
  5
2ac
  8
Layer_3
  10
147.96692
  20
369.64502
  0
VERTEX
  5
2ad
  8
Layer_3
  10
147.96692
  20
470.53943
  0
SEQEND
  0
POLYLINE
  5
2af
  8
Layer_3
  62
138
  66
1
  10
0
  20
0
  30
0
  0
VERTEX
  5
2af
  8
Layer_3
  10
147.96692
  20
470.53943
  0
VERTEX
  5
2b0
  8
Layer_3
  10
144.08643
  20
470.53943
  0
SEQEND
  0
POLYLINE
  5
2b2
  8
Layer_3
  62
138
  66
1
  10
0
  20
0
  30
0
  0
VERTEX
  5
2b2
  8
Layer_3
  10
147.96692
  20
369.64502
  0
VERTEX
  5
2b3
  8
Layer_3
  10
147.96692
  20
470.53943
  0
SEQEND
  0
POLYLINE
  5
2b5
  8
Layer_3
  62
138
  66
1
  10
0
  20
0
  30
0
  0
VERTEX
  5
2b5
  8
Layer_3
  10
147.96692
  20
470.53943
  0
VERTEX
  5
2b6
  8
Layer_3
  10
190.65265
  20
470.53943
  0
SEQEND
  0
POLYLINE
  5
2b8
  8
Layer_3
  62
138
  66
1
  10
0
  20
0
  30
0
  0
VERTEX
  5
2b8
  8
Layer_3
  10
190.65265
  20
470.53943
  0
VERTEX
  5
2b9
  8
Layer_3
  10
190.65265
  20
369.64502
  0
SEQEND
  0
POLYLINE
  5
2bb
  8
Layer_3
  62
138
  66
1
  10
0
  20
0
  30
0
  0
VERTEX
  5
2bb
  8
Layer_3
  10
190.65265
  20
369.64502
  0
VERTEX
  5
2bc
  8
Layer_3
  10
147.96692
  20
369.64502
  0
SEQEND
  0
POLYLINE
  5
2be
  8
Layer_3
  62
138
  66
1
  10
0
  20
0
  30
0
  0
VERTEX
  5
2be
  8
Layer_3
  10
198.41418
  20
373.52588
  0
VERTEX
  5
2bf
  8
Layer_3
  10
190.65265
  20
373.52588
  0
SEQEND
  0
POLYLINE
  5
2c1
  8
Layer_3
  62
138
  66
1
  10
0
  20
0
  30
0
  0
VERTEX
  5
2c1
  8
Layer_3
  10
190.65265
  20
373.52588
  0
VERTEX
  5
2c2
  8
Layer_3
  10
190.65265
  20
365.76447
  0
SEQEND
  0
POLYLINE
  5
2c4
  8
Layer_4
  62
13
  66
1
  10
0
  20
0
  30
0
  0
VERTEX
  5
2c4
  8
Layer_4
  10
191.78888
  20
369.64502
  0
VERTEX
  5
2c5
  8
Layer_4
  10
191.80304
  20
369.50473
  0
VERTEX
  5
2c6
  8
Layer_4
  10
191.8446
  20
369.3685
  0
VERTEX
  5
2c7
  8
Layer_4
  10
191.91223
  20
369.237
  0
VERTEX
  5
2c8
  8
Layer_4
  10
192.00452
  20
369.11096
  0
VERTEX
  5
2c9
  8
Layer_4
  10
192.25757
  20
368.87793
  0
VERTEX
  5
2ca
  8
Layer_4
  10
192.59265
  20
368.67493
  0
VERTEX
  5
2cb
  8
Layer_4
  10
192.99884
  20
368.50745
  0
VERTEX
  5
2cc
  8
Layer_4
  10
193.46497
  20
368.38101
  0
VERTEX
  5
2cd
  8
Layer_4
  10
193.98013
  20
368.30109
  0
VERTEX
  5
2ce
  8
Layer_4
  10
194.5332
  20
368.27325
  0
SEQEND
  0
POLYLINE
  5
2d0
  8
Layer_4
  62
13
  66
1
  10
0
  20
0
  30
0
  0
VERTEX
  5
2d0
  8
Layer_4
  10
194.5332
  20
368.27325
  0
VERTEX
  5
2d1
  8
Layer_4
  10
195.08636
  20
368.30109
  0
VERTEX
  5
2d2
  8
Layer_4
  10
195.6015
  20
368.38101
  0
VERTEX
  5
2d3
  8
Layer_4
  10
196.06757
  20
368.50745
  0
VERTEX
  5
2d4
  8
Layer_4
  10
196.47357
  20
368.67493
  0
VERTEX
  5
2d5
  8
Layer_4
  10
196.80847
  20
368.87793
  0
VERTEX
  5
2d6
  8
Layer_4
  10
197.06131
  20
369.11096
  0
VERTEX
  5
2d7
  8
Layer_4
  10
197.15353
  20
369.237
  0
VERTEX
  5
2d8
  8
Layer_4
  10
197.2211
  20
369.3685
  0
VERTEX
  5
2d9
  8
Layer_4
  10
197.26263
  20
369.50473
  0
VERTEX
  5
2da
  8
Layer_4
  10
197.27679
  20
369.64502
  0
SEQEND
  0
POLYLINE
  5
2dc
  8
Layer_4
  62
13
  66
1
  10
0
  20
0
  30
0
  0
VERTEX
  5
2dc
  8
Layer_4
  10
197.27679
  20
369.64502
  0
VERTEX
  5
2dd
  8
Layer_4
  10
197.26282
  20
369.78531
  0
VERTEX
  5
2de
  8
Layer_4
  10
197.22137
  20
369.92154
  0
VERTEX
  5
2df
  8
Layer_4
  10
197.15384
  20
370.05304
  0
VERTEX
  5
2e0
  8
Layer_4
  10
197.06165
  20
370.17908
  0
VERTEX
  5
2e1
  8
Layer_4
  10
196.80865
  20
370.41211
  0
VERTEX
  5
2e2
  8
Layer_4
  10
196.47354
  20
370.61511
  0
VERTEX
  5
2e3
  8
Layer_4
  10
196.06738
  20
370.78259
  0
VERTEX
  5
2e4
  8
Layer_4
  10
195.6012
  20
370.90903
  0
VERTEX
  5
2e5
  8
Layer_4
  10
195.08609
  20
370.98895
  0
VERTEX
  5
2e6
  8
Layer_4
  10
194.5332
  20
371.01678
  0
SEQEND
  0
POLYLINE
  5
2e8
  8
Layer_4
  62
13
  66
1
  10
0
  20
0
  30
0
  0
VERTEX
  5
2e8
  8
Layer_4
  10
194.5332
  20
371.01678
  0
VERTEX
  5
2e9
  8
Layer_4
  10
193.98013
  20
370.98895
  0
VERTEX
  5
2ea
  8
Layer_4
  10
193.46497
  20
370.90903
  0
VERTEX
  5
2eb
  8
Layer_4
  10
192.99884
  20
370.78259
  0
VERTEX
  5
2ec
  8
Layer_4
  10
192.59265
  20
370.61511
  0
VERTEX
  5
2ed
  8
Layer_4
  10
192.25757
  20
370.41211
  0
VERTEX
  5
2ee
  8
Layer_4
  10
192.00452
  20
370.17908
  0
VERTEX
  5
2ef
  8
Layer_4
  10
191.91223
  20
370.05304
  0
VERTEX
  5
2f0
  8
Layer_4
  10
191.8446
  20
369.92154
  0
VERTEX
  5
2f1
  8
Layer_4
  10
191.80304
  20
369.78531
  0
VERTEX
  5
2f2
  8
Layer_4
  10
191.78888
  20
369.64502
  0
SEQEND
  0
POLYLINE
  5
2f4
  8
Layer_3
  62
138
  66
1
  10
0
  20
0
  30
0
  0
VERTEX
  5
2f4
  8
Layer_3
  10
198.41418
  20
478.30096
  0
VERTEX
  5
2f5
  8
Layer_3
  10
190.65265
  20
478.30096
  0
SEQEND
  0
POLYLINE
  5
2f7
  8
Layer_3
  62
138
  66
1
  10
0
  20
0
  30
0
  0
VERTEX
  5
2f7
  8
Layer_3
  10
190.65265
  20
478.30096
  0
VERTEX
  5
2f8
  8
Layer_3
  10
190.65265
  20
470.53943
  0
SEQEND
  0
POLYLINE
  5
2fa
  8
Layer_3
  62
138
  66
1
  10
0
  20
0
  30
0
  0
VERTEX
  5
2fa
  8
Layer_3
  10
190.65265
  20
470.53943
  0
VERTEX
  5
2fb
  8
Layer_3
  10
198.41418
  20
470.53943
  0
SEQEND
  0
POLYLINE
  5
2fd
  8
Layer_4
  62
13
  66
1
  10
0
  20
0
  30
0
  0
VERTEX
  5
2fd
  8
Layer_4
  10
191.78888
  20
474.42004
  0
VERTEX
  5
2fe
  8
Layer_4
  10
191.80304
  20
474.27972
  0
VERTEX
  5
2ff
  8
Layer_4
  10
191.8446
  20
474.14349
  0
VERTEX
  5
300
  8
Layer_4
  10
191.91223
  20
474.01199
  0
VERTEX
  5
301
  8
Layer_4
  10
192.00452
  20
473.88596
  0
VERTEX
  5
302
  8
Layer_4
  10
192.25757
  20
473.65292
  0
VERTEX
  5
303
  8
Layer_4
  10
192.59265
  20
473.44989
  0
VERTEX
  5
304
  8
Layer_4
  10
192.99884
  20
473.28241
  0
VERTEX
  5
305
  8
Layer_4
  10
193.46497
  20
473.15598
  0
VERTEX
  5
306
  8
Layer_4
  10
193.98013
  20
473.07608
  0
VERTEX
  5
307
  8
Layer_4
  10
194.5332
  20
473.04822
  0
SEQEND
  0
POLYLINE
  5
309
  8
Layer_4
  62
13
  66
1
  10
0
  20
0
  30
0
  0
VERTEX
  5
309
  8
Layer_4
  10
194.5332
  20
473.04822
  0
VERTEX
  5
30a
  8
Layer_4
  10
195.08636
  20
473.07608
  0
VERTEX
  5
30b
  8
Layer_4
  10
195.6015
  20
473.15598
  0
VERTEX
  5
30c
  8
Layer_4
  10
196.06757
  20
473.28241
  0
VERTEX
  5
30d
  8
Layer_4
  10
196.47357
  20
473.44989
  0
VERTEX
  5
30e
  8
Layer_4
  10
196.80847
  20
473.65292
  0
VERTEX
  5
30f
  8
Layer_4
  10
197.06131
  20
473.88596
  0
VERTEX
  5
310
  8
Layer_4
  10
197.15353
  20
474.01199
  0
VERTEX
  5
311
  8
Layer_4
  10
197.2211
  20
474.14349
  0
VERTEX
  5
312
  8
Layer_4
  10
197.26263
  20
474.27972
  0
VERTEX
  5
313
  8
Layer_4
  10
197.27679
  20
474.42004
  0
SEQEND
  0
POLYLINE
  5
315
  8
Layer_4
  62
13
  66
1
  10
0
  20
0
  30
0
  0
VERTEX
  5
315
  8
Layer_4
  10
197.27679
  20
474.42004
  0
VERTEX
  5
316
  8
Layer_4
  10
197.26282
  20
474.56033
  0
VERTEX
  5
317
  8
Layer_4
  10
197.22137
  20
474.69656
  0
VERTEX
  5
318
  8
Layer_4
  10
197.15384
  20
474.82803
  0
VERTEX
  5
319
  8
Layer_4
  10
197.06165
  20
474.95407
  0
VERTEX
  5
31a
  8
Layer_4
  10
196.80865
  20
475.18707
  0
VERTEX
  5
31b
  8
Layer_4
  10
196.47354
  20
475.39008
  0
VERTEX
  5
31c
  8
Layer_4
  10
196.06738
  20
475.55756
  0
VERTEX
  5
31d
  8
Layer_4
  10
195.6012
  20
475.68399
  0
VERTEX
  5
31e
  8
Layer_4
  10
195.08609
  20
475.76389
  0
VERTEX
  5
31f
  8
Layer_4
  10
194.5332
  20
475.79175
  0
SEQEND
  0
POLYLINE
  5
321
  8
Layer_4
  62
13
  66
1
  10
0
  20
0
  30
0
  0
VERTEX
  5
321
  8
Layer_4
  10
194.5332
  20
475.79175
  0
VERTEX
  5
322
  8
Layer_4
  10
193.98013
  20
475.76389
  0
VERTEX
  5
323
  8
Layer_4
  10
193.46497
  20
475.68399
  0
VERTEX
  5
324
  8
Layer_4
  10
192.99884
  20
475.55756
  0
VERTEX
  5
325
  8
Layer_4
  10
192.59265
  20
475.39008
  0
VERTEX
  5
326
  8
Layer_4
  10
192.25757
  20
475.18707
  0
VERTEX
  5
327
  8
Layer_4
  10
192.00452
  20
474.95407
  0
VERTEX
  5
328
  8
Layer_4
  10
191.91223
  20
474.82803
  0
VERTEX
  5
329
  8
Layer_4
  10
191.8446
  20
474.69656
  0
VERTEX
  5
32a
  8
Layer_4
  10
191.80304
  20
474.56033
  0
VERTEX
  5
32b
  8
Layer_4
  10
191.78888
  20
474.42004
  0
SEQEND
  0
POLYLINE
  5
32d
  8
Layer_3
  62
138
  66
1
  10
0
  20
0
  30
0
  0
VERTEX
  5
32d
  8
Layer_3
  10
190.65265
  20
474.42004
  0
VERTEX
  5
32e
  8
Layer_3
  10
101.3999
  20
474.42004
  0
SEQEND
  0
POLYLINE
  5
330
  8
Layer_3
  62
138
  66
1
  10
0
  20
0
  30
0
  0
VERTEX
  5
330
  8
Layer_3
  10
194.5332
  20
373.52588
  0
VERTEX
  5
331
  8
Layer_3
  10
194.5332
  20
377.4057
  0
SEQEND
  0
POLYLINE
  5
333
  8
Layer_3
  62
138
  66
1
  10
0
  20
0
  30
0
  0
VERTEX
  5
333
  8
Layer_3
  10
194.5332
  20
377.4057
  0
VERTEX
  5
334
  8
Layer_3
  10
182.89197
  20
377.4057
  0
SEQEND
  0
POLYLINE
  5
336
  8
Layer_3
  62
138
  66
1
  10
0
  20
0
  30
0
  0
VERTEX
  5
336
  8
Layer_3
  10
182.89197
  20
377.4057
  0
VERTEX
  5
337
  8
Layer_3
  10
182.89197
  20
373.52588
  0
SEQEND
  0
POLYLINE
  5
339
  8
Layer_3
  62
138
  66
1
  10
0
  20
0
  30
0
  0
VERTEX
  5
339
  8
Layer_3
  10
182.89197
  20
373.52588
  0
VERTEX
  5
33a
  8
Layer_3
  10
194.5332
  20
373.52588
  0
SEQEND
  0
POLYLINE
  5
33c
  8
Layer_3
  62
138
  66
1
  10
0
  20
0
  30
0
  0
VERTEX
  5
33c
  8
Layer_3
  10
194.5332
  20
466.65851
  0
VERTEX
  5
33d
  8
Layer_3
  10
194.5332
  20
470.53943
  0
SEQEND
  0
POLYLINE
  5
33f
  8
Layer_3
  62
138
  66
1
  10
0
  20
0
  30
0
  0
VERTEX
  5
33f
  8
Layer_3
  10
194.5332
  20
470.53943
  0
VERTEX
  5
340
  8
Layer_3
  10
182.89197
  20
470.53943
  0
SEQEND
  0
POLYLINE
  5
342
  8
Layer_3
  62
138
  66
1
  10
0
  20
0
  30
0
  0
VERTEX
  5
342
  8
Layer_3
  10
182.89197
  20
470.53943
  0
VERTEX
  5
343
  8
Layer_3
  10
182.89197
  20
466.65851
  0
SEQEND
  0
POLYLINE
  5
345
  8
Layer_3
  62
138
  66
1
  10
0
  20
0
  30
0
  0
VERTEX
  5
345
  8
Layer_3
  10
182.89197
  20
466.65851
  0
VERTEX
  5
346
  8
Layer_3
  10
194.5332
  20
466.65851
  0
SEQEND
  0
POLYLINE
  5
348
  8
Layer_3
  62
138
  66
1
  10
0
  20
0
  30
0
  0
VERTEX
  5
348
  8
Layer_3
  10
194.5332
  20
439.495
  0
VERTEX
  5
349
  8
Layer_3
  10
194.5332
  20
435.61444
  0
SEQEND
  0
POLYLINE
  5
34b
  8
Layer_3
  62
138
  66
1
  10
0
  20
0
  30
0
  0
VERTEX
  5
34b
  8
Layer_3
  10
194.5332
  20
435.61444
  0
VERTEX
  5
34c
  8
Layer_3
  10
182.89197
  20
435.61444
  0
SEQEND
  0
POLYLINE
  5
34e
  8
Layer_3
  62
138
  66
1
  10
0
  20
0
  30
0
  0
VERTEX
  5
34e
  8
Layer_3
  10
182.89197
  20
435.61444
  0
VERTEX
  5
34f
  8
Layer_3
  10
182.89197
  20
439.495
  0
SEQEND
  0
POLYLINE
  5
351
  8
Layer_3
  62
138
  66
1
  10
0
  20
0
  30
0
  0
VERTEX
  5
351
  8
Layer_3
  10
182.89197
  20
439.495
  0
VERTEX
  5
352
  8
Layer_3
  10
194.5332
  20
439.495
  0
SEQEND
  0
POLYLINE
  5
354
  8
Layer_3
  62
138
  66
1
  10
0
  20
0
  30
0
  0
VERTEX
  5
354
  8
Layer_3
  10
194.5332
  20
404.57001
  0
VERTEX
  5
355
  8
Layer_3
  10
194.5332
  20
408.45099
  0
SEQEND
  0
POLYLINE
  5
357
  8
Layer_3
  62
138
  66
1
  10
0
  20
0
  30
0
  0
VERTEX
  5
357
  8
Layer_3
  10
194.5332
  20
408.45099
  0
VERTEX
  5
358
  8
Layer_3
  10
182.89197
  20
408.45099
  0
SEQEND
  0
POLYLINE
  5
35a
  8
Layer_3
  62
138
  66
1
  10
0
  20
0
  30
0
  0
VERTEX
  5
35a
  8
Layer_3
  10
182.89197
  20
408.45099
  0
VERTEX
  5
35b
  8
Layer_3
  10
182.89197
  20
404.57001
  0
SEQEND
  0
POLYLINE
  5
35d
  8
Layer_3
  62
138
  66
1
  10
0
  20
0
  30
0
  0
VERTEX
  5
35d
  8
Layer_3
  10
182.89197
  20
404.57001
  0
VERTEX
  5
35e
  8
Layer_3
  10
194.5332
  20
404.57001
  0
SEQEND
  0
POLYLINE
  5
360
  8
Layer_3
  62
138
  66
1
  10
0
  20
0
  30
0
  0
VERTEX
  5
360
  8
Layer_3
  10
147.96692
  20
420.09222
  0
VERTEX
  5
361
  8
Layer_3
  10
147.96692
  20
423.97321
  0
SEQEND
  0
POLYLINE
  5
363
  8
Layer_2
  62
254
  66
1
  10
0
  20
0
  30
0
  0
VERTEX
  5
363
  8
Layer_2
  10
147.96692
  20
423.97321
  0
VERTEX
  5
364
  8
Layer_2
  10
144.08643
  20
423.97321
  0
SEQEND
  0
POLYLINE
  5
366
  8
Layer_2
  62
254
  66
1
  10
0
  20
0
  30
0
  0
VERTEX
  5
366
  8
Layer_2
  10
144.08643
  20
423.97321
  0
VERTEX
  5
367
  8
Layer_2
  10
144.08643
  20
420.09222
  0
SEQEND
  0
POLYLINE
  5
369
  8
Layer_2
  62
254
  66
1
  10
0
  20
0
  30
0
  0
VERTEX
  5
369
  8
Layer_2
  10
144.08643
  20
420.09222
  0
VERTEX
  5
36a
  8
Layer_2
  10
147.96692
  20
420.09222
  0
SEQEND
  0
POLYLINE
  5
36c
  8
Layer_3
  62
138
  66
1
  10
0
  20
0
  30
0
  0
VERTEX
  5
36c
  8
Layer_3
  10
190.65265
  20
474.42004
  0
VERTEX
  5
36d
  8
Layer_3
  10
190.65265
  20
478.30096
  0
SEQEND
  0
POLYLINE
  5
36f
  8
Layer_3
  62
138
  66
1
  10
0
  20
0
  30
0
  0
VERTEX
  5
36f
  8
Layer_3
  10
190.65265
  20
478.30096
  0
VERTEX
  5
370
  8
Layer_3
  10
101.3999
  20
478.30096
  0
SEQEND
  0
POLYLINE
  5
372
  8
Layer_3
  62
138
  66
1
  10
0
  20
0
  30
0
  0
VERTEX
  5
372
  8
Layer_3
  10
101.3999
  20
474.42004
  0
VERTEX
  5
373
  8
Layer_3
  10
190.65265
  20
474.42004
  0
SEQEND
  0
POLYLINE
  5
375
  8
Layer_2
  62
254
  66
1
  10
0
  20
0
  30
0
  0
VERTEX
  5
375
  8
Layer_2
  10
175.13043
  20
365.76447
  0
VERTEX
  5
376
  8
Layer_2
  10
175.13043
  20
474.42004
  0
SEQEND
  0
POLYLINE
  5
378
  8
Layer_2
  62
254
  66
1
  10
0
  20
0
  30
0
  0
VERTEX
  5
378
  8
Layer_2
  10
175.13043
  20
474.42004
  0
VERTEX
  5
379
  8
Layer_2
  10
171.24988
  20
474.42004
  0
SEQEND
  0
POLYLINE
  5
37b
  8
Layer_2
  62
254
  66
1
  10
0
  20
0
  30
0
  0
VERTEX
  5
37b
  8
Layer_2
  10
171.24988
  20
474.42004
  0
VERTEX
  5
37c
  8
Layer_2
  10
171.24988
  20
365.76447
  0
SEQEND
  0
POLYLINE
  5
37e
  8
Layer_2
  62
254
  66
1
  10
0
  20
0
  30
0
  0
VERTEX
  5
37e
  8
Layer_2
  10
155.72766
  20
365.76447
  0
VERTEX
  5
37f
  8
Layer_2
  10
155.72766
  20
474.42004
  0
SEQEND
  0
POLYLINE
  5
381
  8
Layer_2
  62
254
  66
1
  10
0
  20
0
  30
0
  0
VERTEX
  5
381
  8
Layer_2
  10
155.72766
  20
474.42004
  0
VERTEX
  5
382
  8
Layer_2
  10
151.84674
  20
474.42004
  0
SEQEND
  0
POLYLINE
  5
384
  8
Layer_2
  62
254
  66
1
  10
0
  20
0
  30
0
  0
VERTEX
  5
384
  8
Layer_2
  10
151.84674
  20
474.42004
  0
VERTEX
  5
385
  8
Layer_2
  10
151.84674
  20
365.76447
  0
SEQEND
  0
POLYLINE
  5
387
  8
Layer_2
  62
254
  66
1
  10
0
  20
0
  30
0
  0
VERTEX
  5
387
  8
Layer_2
  10
175.13043
  20
447.25574
  0
VERTEX
  5
388
  8
Layer_2
  10
175.13043
  20
451.13635
  0
SEQEND
  0
POLYLINE
  5
38a
  8
Layer_2
  62
254
  66
1
  10
0
  20
0
  30
0
  0
VERTEX
  5
38a
  8
Layer_2
  10
175.13043
  20
451.13635
  0
VERTEX
  5
38b
  8
Layer_2
  10
159.60822
  20
451.13635
  0
SEQEND
  0
POLYLINE
  5
38d
  8
Layer_2
  62
254
  66
1
  10
0
  20
0
  30
0
  0
VERTEX
  5
38d
  8
Layer_2
  10
159.60822
  20
451.13635
  0
VERTEX
  5
38e
  8
Layer_2
  10
159.60822
  20
447.25574
  0
SEQEND
  0
POLYLINE
  5
390
  8
Layer_2
  62
254
  66
1
  10
0
  20
0
  30
0
  0
VERTEX
  5
390
  8
Layer_2
  10
159.60822
  20
447.25574
  0
VERTEX
  5
391
  8
Layer_2
  10
175.13043
  20
447.25574
  0
SEQEND
  0
POLYLINE
  5
393
  8
Layer_2
  62
254
  66
1
  10
0
  20
0
  30
0
  0
VERTEX
  5
393
  8
Layer_2
  10
151.84674
  20
439.495
  0
VERTEX
  5
394
  8
Layer_2
  10
151.84674
  20
443.37592
  0
SEQEND
  0
POLYLINE
  5
396
  8
Layer_2
  62
254
  66
1
  10
0
  20
0
  30
0
  0
VERTEX
  5
396
  8
Layer_2
  10
151.84674
  20
443.37592
  0
VERTEX
  5
397
  8
Layer_2
  10
167.36896
  20
443.37592
  0
SEQEND
  0
POLYLINE
  5
399
  8
Layer_2
  62
254
  66
1
  10
0
  20
0
  30
0
  0
VERTEX
  5
399
  8
Layer_2
  10
167.36896
  20
443.37592
  0
VERTEX
  5
39a
  8
Layer_2
  10
167.36896
  20
439.495
  0
SEQEND
  0
POLYLINE
  5
39c
  8
Layer_2
  62
254
  66
1
  10
0
  20
0
  30
0
  0
VERTEX
  5
39c
  8
Layer_2
  10
167.36896
  20
439.495
  0
VERTEX
  5
39d
  8
Layer_2
  10
151.84674
  20
439.495
  0
SEQEND
  0
POLYLINE
  5
39f
  8
Layer_3
  62
138
  66
1
  10
0
  20
0
  30
0
  0
VERTEX
  5
39f
  8
Layer_3
  10
175.13043
  20
365.76447
  0
VERTEX
  5
3a0
  8
Layer_3
  10
175.13043
  20
369.64502
  0
SEQEND
  0
POLYLINE
  5
3a2
  8
Layer_3
  62
138
  66
1
  10
0
  20
0
  30
0
  0
VERTEX
  5
3a2
  8
Layer_3
  10
175.13043
  20
369.64502
  0
VERTEX
  5
3a3
  8
Layer_3
  10
171.24988
  20
369.64502
  0
SEQEND
  0
POLYLINE
  5
3a5
  8
Layer_3
  62
138
  66
1
  10
0
  20
0
  30
0
  0
VERTEX
  5
3a5
  8
Layer_3
  10
171.24988
  20
369.64502
  0
VERTEX
  5
3a6
  8
Layer_3
  10
171.24988
  20
365.76447
  0
SEQEND
  0
POLYLINE
  5
3a8
  8
Layer_3
  62
138
  66
1
  10
0
  20
0
  30
0
  0
VERTEX
  5
3a8
  8
Layer_3
  10
155.72766
  20
365.76447
  0
VERTEX
  5
3a9
  8
Layer_3
  10
155.72766
  20
369.64502
  0
SEQEND
  0
POLYLINE
  5
3ab
  8
Layer_3
  62
138
  66
1
  10
0
  20
0
  30
0
  0
VERTEX
  5
3ab
  8
Layer_3
  10
155.72766
  20
369.64502
  0
VERTEX
  5
3ac
  8
Layer_3
  10
151.84674
  20
369.64502
  0
SEQEND
  0
POLYLINE
  5
3ae
  8
Layer_3
  62
138
  66
1
  10
0
  20
0
  30
0
  0
VERTEX
  5
3ae
  8
Layer_3
  10
151.84674
  20
369.64502
  0
VERTEX
  5
3af
  8
Layer_3
  10
151.84674
  20
365.76447
  0
SEQEND
  0
POLYLINE
  5
3b1
  8
Layer_3
  62
138
  66
1
  10
0
  20
0
  30
0
  0
VERTEX
  5
3b1
  8
Layer_3
  10
155.72766
  20
470.53943
  0
VERTEX
  5
3b2
  8
Layer_3
  10
155.72766
  20
474.42004
  0
SEQEND
  0
POLYLINE
  5
3b4
  8
Layer_3
  62
138
  66
1
  10
0
  20
0
  30
0
  0
VERTEX
  5
3b4
  8
Layer_3
  10
155.72766
  20
474.42004
  0
VERTEX
  5
3b5
  8
Layer_3
  10
151.84674
  20
474.42004
  0
SEQEND
  0
POLYLINE
  5
3b7
  8
Layer_3
  62
138
  66
1
  10
0
  20
0
  30
0
  0
VERTEX
  5
3b7
  8
Layer_3
  10
151.84674
  20
474.42004
  0
VERTEX
  5
3b8
  8
Layer_3
  10
151.84674
  20
470.53943
  0
SEQEND
  0
POLYLINE
  5
3ba
  8
Layer_3
  62
138
  66
1
  10
0
  20
0
  30
0
  0
VERTEX
  5
3ba
  8
Layer_3
  10
151.84674
  20
470.53943
  0
VERTEX
  5
3bb
  8
Layer_3
  10
155.72766
  20
470.53943
  0
SEQEND
  0
POLYLINE
  5
3bd
  8
Layer_3
  62
138
  66
1
  10
0
  20
0
  30
0
  0
VERTEX
  5
3bd
  8
Layer_3
  10
175.13043
  20
470.53943
  0
VERTEX
  5
3be
  8
Layer_3
  10
175.13043
  20
474.42004
  0
SEQEND
  0
POLYLINE
  5
3c0
  8
Layer_3
  62
138
  66
1
  10
0
  20
0
  30
0
  0
VERTEX
  5
3c0
  8
Layer_3
  10
175.13043
  20
474.42004
  0
VERTEX
  5
3c1
  8
Layer_3
  10
171.24988
  20
474.42004
  0
SEQEND
  0
POLYLINE
  5
3c3
  8
Layer_3
  62
138
  66
1
  10
0
  20
0
  30
0
  0
VERTEX
  5
3c3
  8
Layer_3
  10
171.24988
  20
474.42004
  0
VERTEX
  5
3c4
  8
Layer_3
  10
171.24988
  20
470.53943
  0
SEQEND
  0
POLYLINE
  5
3c6
  8
Layer_3
  62
138
  66
1
  10
0
  20
0
  30
0
  0
VERTEX
  5
3c6
  8
Layer_3
  10
171.24988
  20
470.53943
  0
VERTEX
  5
3c7
  8
Layer_3
  10
175.13043
  20
470.53943
  0
SEQEND
  0
POLYLINE
  5
3c9
  8
Layer_3
  62
138
  66
1
  10
0
  20
0
  30
0
  0
VERTEX
  5
3c9
  8
Layer_3
  10
466.19324
  20
357.98663
  0
VERTEX
  5
3ca
  8
Layer_3
  10
473.95361
  20
357.98663
  0
SEQEND
  0
POLYLINE
  5
3cc
  8
Layer_3
  62
138
  66
1
  10
0
  20
0
  30
0
  0
VERTEX
  5
3cc
  8
Layer_3
  10
473.95361
  20
357.98663
  0
VERTEX
  5
3cd
  8
Layer_3
  10
473.95361
  20
365.74817
  0
SEQEND
  0
POLYLINE
  5
3cf
  8
Layer_3
  62
138
  66
1
  10
0
  20
0
  30
0
  0
VERTEX
  5
3cf
  8
Layer_3
  10
473.95361
  20
365.74817
  0
VERTEX
  5
3d0
  8
Layer_3
  10
466.19324
  20
365.74817
  0
SEQEND
  0
POLYLINE
  5
3d2
  8
Layer_3
  62
138
  66
1
  10
0
  20
0
  30
0
  0
VERTEX
  5
3d2
  8
Layer_3
  10
466.19324
  20
365.74817
  0
VERTEX
  5
3d3
  8
Layer_3
  10
466.19324
  20
357.98663
  0
SEQEND
  0
POLYLINE
  5
3d5
  8
Layer_4
  62
13
  66
1
  10
0
  20
0
  30
0
  0
VERTEX
  5
3d5
  8
Layer_4
  10
470.07385
  20
364.61194
  0
VERTEX
  5
3d6
  8
Layer_4
  10
469.93353
  20
364.59775
  0
VERTEX
  5
3d7
  8
Layer_4
  10
469.79724
  20
364.55615
  0
VERTEX
  5
3d8
  8
Layer_4
  10
469.66574
  20
364.48846
  0
VERTEX
  5
3d9
  8
Layer_4
  10
469.53964
  20
364.39612
  0
VERTEX
  5
3da
  8
Layer_4
  10
469.30649
  20
364.14294
  0
VERTEX
  5
3db
  8
Layer_4
  10
469.10333
  20
363.80768
  0
VERTEX
  5
3dc
  8
Layer_4
  10
468.93573
  20
363.4014
  0
VERTEX
  5
3dd
  8
Layer_4
  10
468.80917
  20
362.93518
  0
VERTEX
  5
3de
  8
Layer_4
  10
468.72919
  20
362.42007
  0
VERTEX
  5
3df
  8
Layer_4
  10
468.70129
  20
361.86719
  0
SEQEND
  0
POLYLINE
  5
3e1
  8
Layer_4
  62
13
  66
1
  10
0
  20
0
  30
0
  0
VERTEX
  5
3e1
  8
Layer_4
  10
468.70129
  20
361.86719
  0
VERTEX
  5
3e2
  8
Layer_4
  10
468.72913
  20
361.31409
  0
VERTEX
  5
3e3
  8
Layer_4
  10
468.80899
  20
360.79895
  0
VERTEX
  5
3e4
  8
Layer_4
  10
468.93536
  20
360.33279
  0
VERTEX
  5
3e5
  8
Layer_4
  10
469.10278
  20
359.92664
  0
VERTEX
  5
3e6
  8
Layer_4
  10
469.30573
  20
359.59155
  0
VERTEX
  5
3e7
  8
Layer_4
  10
469.5387
  20
359.3385
  0
VERTEX
  5
3e8
  8
Layer_4
  10
469.66473
  20
359.24625
  0
VERTEX
  5
3e9
  8
Layer_4
  10
469.7962
  20
359.17862
  0
VERTEX
  5
3ea
  8
Layer_4
  10
469.93243
  20
359.13702
  0
VERTEX
  5
3eb
  8
Layer_4
  10
470.07275
  20
359.12286
  0
SEQEND
  0
POLYLINE
  5
3ed
  8
Layer_4
  62
13
  66
1
  10
0
  20
0
  30
0
  0
VERTEX
  5
3ed
  8
Layer_4
  10
470.07275
  20
359.12286
  0
VERTEX
  5
3ee
  8
Layer_4
  10
470.2131
  20
359.13702
  0
VERTEX
  5
3ef
  8
Layer_4
  10
470.34937
  20
359.17862
  0
VERTEX
  5
3f0
  8
Layer_4
  10
470.48096
  20
359.24625
  0
VERTEX
  5
3f1
  8
Layer_4
  10
470.60706
  20
359.3385
  0
VERTEX
  5
3f2
  8
Layer_4
  10
470.84024
  20
359.59155
  0
VERTEX
  5
3f3
  8
Layer_4
  10
471.04343
  20
359.92664
  0
VERTEX
  5
3f4
  8
Layer_4
  10
471.21106
  20
360.33279
  0
VERTEX
  5
3f5
  8
Layer_4
  10
471.33765
  20
360.79895
  0
VERTEX
  5
3f6
  8
Layer_4
  10
471.41766
  20
361.31409
  0
VERTEX
  5
3f7
  8
Layer_4
  10
471.44556
  20
361.86719
  0
SEQEND
  0
POLYLINE
  5
3f9
  8
Layer_4
  62
13
  66
1
  10
0
  20
0
  30
0
  0
VERTEX
  5
3f9
  8
Layer_4
  10
471.44556
  20
361.86719
  0
VERTEX
  5
3fa
  8
Layer_4
  10
471.41766
  20
362.42038
  0
VERTEX
  5
3fb
  8
Layer_4
  10
471.33768
  20
362.93555
  0
VERTEX
  5
3fc
  8
Layer_4
  10
471.21112
  20
363.40161
  0
VERTEX
  5
3fd
  8
Layer_4
  10
471.04358
  20
363.80768
  0
VERTEX
  5
3fe
  8
Layer_4
  10
470.84052
  20
364.14273
  0
VERTEX
  5
3ff
  8
Layer_4
  10
470.60754
  20
364.39581
  0
VERTEX
  5
400
  8
Layer_4
  10
470.48151
  20
364.48816
  0
VERTEX
  5
401
  8
Layer_4
  10
470.35013
  20
364.55585
  0
VERTEX
  5
402
  8
Layer_4
  10
470.21399
  20
364.59756
  0
VERTEX
  5
403
  8
Layer_4
  10
470.07385
  20
364.61194
  0
SEQEND
  0
POLYLINE
  5
405
  8
Layer_3
  62
138
  66
1
  10
0
  20
0
  30
0
  0
VERTEX
  5
405
  8
Layer_3
  10
570.96851
  20
357.98663
  0
VERTEX
  5
406
  8
Layer_3
  10
578.72864
  20
357.98663
  0
SEQEND
  0
POLYLINE
  5
408
  8
Layer_3
  62
138
  66
1
  10
0
  20
0
  30
0
  0
VERTEX
  5
408
  8
Layer_3
  10
578.72864
  20
357.98663
  0
VERTEX
  5
409
  8
Layer_3
  10
578.72864
  20
365.74817
  0
SEQEND
  0
POLYLINE
  5
40b
  8
Layer_3
  62
138
  66
1
  10
0
  20
0
  30
0
  0
VERTEX
  5
40b
  8
Layer_3
  10
578.72864
  20
365.74817
  0
VERTEX
  5
40c
  8
Layer_3
  10
570.96851
  20
365.74817
  0
SEQEND
  0
POLYLINE
  5
40e
  8
Layer_3
  62
138
  66
1
  10
0
  20
0
  30
0
  0
VERTEX
  5
40e
  8
Layer_3
  10
570.96851
  20
365.74817
  0
VERTEX
  5
40f
  8
Layer_3
  10
570.96851
  20
357.98663
  0
SEQEND
  0
POLYLINE
  5
411
  8
Layer_4
  62
13
  66
1
  10
0
  20
0
  30
0
  0
VERTEX
  5
411
  8
Layer_4
  10
574.84888
  20
364.61194
  0
VERTEX
  5
412
  8
Layer_4
  10
574.70856
  20
364.59775
  0
VERTEX
  5
413
  8
Layer_4
  10
574.57227
  20
364.55615
  0
VERTEX
  5
414
  8
Layer_4
  10
574.44073
  20
364.48846
  0
VERTEX
  5
415
  8
Layer_4
  10
574.31464
  20
364.39612
  0
VERTEX
  5
416
  8
Layer_4
  10
574.08154
  20
364.14294
  0
VERTEX
  5
417
  8
Layer_4
  10
573.87836
  20
363.80768
  0
VERTEX
  5
418
  8
Layer_4
  10
573.71075
  20
363.4014
  0
VERTEX
  5
419
  8
Layer_4
  10
573.58423
  20
362.93518
  0
VERTEX
  5
41a
  8
Layer_4
  10
573.50421
  20
362.42007
  0
VERTEX
  5
41b
  8
Layer_4
  10
573.47632
  20
361.86719
  0
SEQEND
  0
POLYLINE
  5
41d
  8
Layer_4
  62
13
  66
1
  10
0
  20
0
  30
0
  0
VERTEX
  5
41d
  8
Layer_4
  10
573.47632
  20
361.86719
  0
VERTEX
  5
41e
  8
Layer_4
  10
573.50415
  20
361.31409
  0
VERTEX
  5
41f
  8
Layer_4
  10
573.58405
  20
360.79895
  0
VERTEX
  5
420
  8
Layer_4
  10
573.71039
  20
360.33279
  0
VERTEX
  5
421
  8
Layer_4
  10
573.87781
  20
359.92664
  0
VERTEX
  5
422
  8
Layer_4
  10
574.08075
  20
359.59155
  0
VERTEX
  5
423
  8
Layer_4
  10
574.31366
  20
359.3385
  0
VERTEX
  5
424
  8
Layer_4
  10
574.4397
  20
359.24625
  0
VERTEX
  5
425
  8
Layer_4
  10
574.57117
  20
359.17862
  0
VERTEX
  5
426
  8
Layer_4
  10
574.7074
  20
359.13702
  0
VERTEX
  5
427
  8
Layer_4
  10
574.84766
  20
359.12286
  0
SEQEND
  0
POLYLINE
  5
429
  8
Layer_4
  62
13
  66
1
  10
0
  20
0
  30
0
  0
VERTEX
  5
429
  8
Layer_4
  10
574.84766
  20
359.12286
  0
VERTEX
  5
42a
  8
Layer_4
  10
574.98804
  20
359.13702
  0
VERTEX
  5
42b
  8
Layer_4
  10
575.12439
  20
359.17862
  0
VERTEX
  5
42c
  8
Layer_4
  10
575.25598
  20
359.24625
  0
VERTEX
  5
42d
  8
Layer_4
  10
575.38214
  20
359.3385
  0
VERTEX
  5
42e
  8
Layer_4
  10
575.61536
  20
359.59155
  0
VERTEX
  5
42f
  8
Layer_4
  10
575.81854
  20
359.92664
  0
VERTEX
  5
430
  8
Layer_4
  10
575.98615
  20
360.33279
  0
VERTEX
  5
431
  8
Layer_4
  10
576.11273
  20
360.79895
  0
VERTEX
  5
432
  8
Layer_4
  10
576.19269
  20
361.31409
  0
VERTEX
  5
433
  8
Layer_4
  10
576.22058
  20
361.86719
  0
SEQEND
  0
POLYLINE
  5
435
  8
Layer_4
  62
13
  66
1
  10
0
  20
0
  30
0
  0
VERTEX
  5
435
  8
Layer_4
  10
576.22058
  20
361.86719
  0
VERTEX
  5
436
  8
Layer_4
  10
576.19269
  20
362.42038
  0
VERTEX
  5
437
  8
Layer_4
  10
576.11273
  20
362.93555
  0
VERTEX
  5
438
  8
Layer_4
  10
575.98621
  20
363.40161
  0
VERTEX
  5
439
  8
Layer_4
  10
575.81866
  20
363.80768
  0
VERTEX
  5
43a
  8
Layer_4
  10
575.61566
  20
364.14273
  0
VERTEX
  5
43b
  8
Layer_4
  10
575.38263
  20
364.39581
  0
VERTEX
  5
43c
  8
Layer_4
  10
575.25665
  20
364.48816
  0
VERTEX
  5
43d
  8
Layer_4
  10
575.12524
  20
364.55585
  0
VERTEX
  5
43e
  8
Layer_4
  10
574.98907
  20
364.59756
  0
VERTEX
  5
43f
  8
Layer_4
  10
574.84888
  20
364.61194
  0
SEQEND
  0
POLYLINE
  5
441
  8
Layer_3
  62
138
  66
1
  10
0
  20
0
  30
0
  0
VERTEX
  5
441
  8
Layer_3
  10
470.07385
  20
357.98663
  0
VERTEX
  5
442
  8
Layer_3
  10
570.96851
  20
357.98663
  0
SEQEND
  0
POLYLINE
  5
444
  8
Layer_3
  62
138
  66
1
  10
0
  20
0
  30
0
  0
VERTEX
  5
444
  8
Layer_3
  10
570.96851
  20
357.98663
  0
VERTEX
  5
445
  8
Layer_3
  10
570.96851
  20
268.73389
  0
SEQEND
  0
POLYLINE
  5
447
  8
Layer_3
  62
138
  66
1
  10
0
  20
0
  30
0
  0
VERTEX
  5
447
  8
Layer_3
  10
570.96851
  20
268.73389
  0
VERTEX
  5
448
  8
Layer_3
  10
470.07385
  20
268.73389
  0
SEQEND
  0
POLYLINE
  5
44a
  8
Layer_3
  62
138
  66
1
  10
0
  20
0
  30
0
  0
VERTEX
  5
44a
  8
Layer_3
  10
470.07385
  20
268.73389
  0
VERTEX
  5
44b
  8
Layer_3
  10
470.07385
  20
357.98663
  0
SEQEND
  0
POLYLINE
  5
44d
  8
Layer_3
  62
138
  66
1
  10
0
  20
0
  30
0
  0
VERTEX
  5
44d
  8
Layer_3
  10
466.19324
  20
260.97314
  0
VERTEX
  5
44e
  8
Layer_3
  10
473.95361
  20
260.97314
  0
SEQEND
  0
POLYLINE
  5
450
  8
Layer_3
  62
138
  66
1
  10
0
  20
0
  30
0
  0
VERTEX
  5
450
  8
Layer_3
  10
473.95361
  20
260.97314
  0
VERTEX
  5
451
  8
Layer_3
  10
473.95361
  20
268.73389
  0
SEQEND
  0
POLYLINE
  5
453
  8
Layer_3
  62
138
  66
1
  10
0
  20
0
  30
0
  0
VERTEX
  5
453
  8
Layer_3
  10
473.95361
  20
268.73389
  0
VERTEX
  5
454
  8
Layer_3
  10
466.19324
  20
268.73389
  0
SEQEND
  0
POLYLINE
  5
456
  8
Layer_4
  62
13
  66
1
  10
0
  20
0
  30
0
  0
VERTEX
  5
456
  8
Layer_4
  10
470.07385
  20
267.59726
  0
VERTEX
  5
457
  8
Layer_4
  10
469.93353
  20
267.5831
  0
VERTEX
  5
458
  8
Layer_4
  10
469.79724
  20
267.5415
  0
VERTEX
  5
459
  8
Layer_4
  10
469.66574
  20
267.47388
  0
VERTEX
  5
45a
  8
Layer_4
  10
469.53964
  20
267.38159
  0
VERTEX
  5
45b
  8
Layer_4
  10
469.30649
  20
267.1286
  0
VERTEX
  5
45c
  8
Layer_4
  10
469.10333
  20
266.79349
  0
VERTEX
  5
45d
  8
Layer_4
  10
468.93573
  20
266.38733
  0
VERTEX
  5
45e
  8
Layer_4
  10
468.80917
  20
265.92117
  0
VERTEX
  5
45f
  8
Layer_4
  10
468.72919
  20
265.40604
  0
VERTEX
  5
460
  8
Layer_4
  10
468.70129
  20
264.85294
  0
SEQEND
  0
POLYLINE
  5
462
  8
Layer_4
  62
13
  66
1
  10
0
  20
0
  30
0
  0
VERTEX
  5
462
  8
Layer_4
  10
468.70129
  20
264.85294
  0
VERTEX
  5
463
  8
Layer_4
  10
468.72913
  20
264.3002
  0
VERTEX
  5
464
  8
Layer_4
  10
468.80899
  20
263.78531
  0
VERTEX
  5
465
  8
Layer_4
  10
468.93536
  20
263.31927
  0
VERTEX
  5
466
  8
Layer_4
  10
469.10278
  20
262.91321
  0
VERTEX
  5
467
  8
Layer_4
  10
469.30573
  20
262.57813
  0
VERTEX
  5
468
  8
Layer_4
  10
469.5387
  20
262.32507
  0
VERTEX
  5
469
  8
Layer_4
  10
469.66473
  20
262.23279
  0
VERTEX
  5
46a
  8
Layer_4
  10
469.7962
  20
262.16513
  0
VERTEX
  5
46b
  8
Layer_4
  10
469.93243
  20
262.12354
  0
VERTEX
  5
46c
  8
Layer_4
  10
470.07275
  20
262.10938
  0
SEQEND
  0
POLYLINE
  5
46e
  8
Layer_4
  62
13
  66
1
  10
0
  20
0
  30
0
  0
VERTEX
  5
46e
  8
Layer_4
  10
470.07275
  20
262.10938
  0
VERTEX
  5
46f
  8
Layer_4
  10
470.2131
  20
262.12354
  0
VERTEX
  5
470
  8
Layer_4
  10
470.34937
  20
262.16513
  0
VERTEX
  5
471
  8
Layer_4
  10
470.48096
  20
262.23279
  0
VERTEX
  5
472
  8
Layer_4
  10
470.60706
  20
262.32507
  0
VERTEX
  5
473
  8
Layer_4
  10
470.84024
  20
262.57813
  0
VERTEX
  5
474
  8
Layer_4
  10
471.04343
  20
262.91321
  0
VERTEX
  5
475
  8
Layer_4
  10
471.21106
  20
263.31927
  0
VERTEX
  5
476
  8
Layer_4
  10
471.33765
  20
263.78531
  0
VERTEX
  5
477
  8
Layer_4
  10
471.41766
  20
264.3002
  0
VERTEX
  5
478
  8
Layer_4
  10
471.44556
  20
264.85294
  0
SEQEND
  0
POLYLINE
  5
47a
  8
Layer_4
  62
13
  66
1
  10
0
  20
0
  30
0
  0
VERTEX
  5
47a
  8
Layer_4
  10
471.44556
  20
264.85294
  0
VERTEX
  5
47b
  8
Layer_4
  10
471.41766
  20
265.40604
  0
VERTEX
  5
47c
  8
Layer_4
  10
471.33768
  20
265.92117
  0
VERTEX
  5
47d
  8
Layer_4
  10
471.21112
  20
266.38733
  0
VERTEX
  5
47e
  8
Layer_4
  10
471.04358
  20
266.79349
  0
VERTEX
  5
47f
  8
Layer_4
  10
470.84052
  20
267.1286
  0
VERTEX
  5
480
  8
Layer_4
  10
470.60754
  20
267.38159
  0
VERTEX
  5
481
  8
Layer_4
  10
470.48151
  20
267.47388
  0
VERTEX
  5
482
  8
Layer_4
  10
470.35013
  20
267.5415
  0
VERTEX
  5
483
  8
Layer_4
  10
470.21399
  20
267.5831
  0
VERTEX
  5
484
  8
Layer_4
  10
470.07385
  20
267.59726
  0
SEQEND
  0
POLYLINE
  5
486
  8
Layer_3
  62
138
  66
1
  10
0
  20
0
  30
0
  0
VERTEX
  5
486
  8
Layer_3
  10
570.96851
  20
260.97314
  0
VERTEX
  5
487
  8
Layer_3
  10
578.72864
  20
260.97314
  0
SEQEND
  0
POLYLINE
  5
489
  8
Layer_3
  62
138
  66
1
  10
0
  20
0
  30
0
  0
VERTEX
  5
489
  8
Layer_3
  10
578.72864
  20
260.97314
  0
VERTEX
  5
48a
  8
Layer_3
  10
578.72864
  20
268.73389
  0
SEQEND
  0
POLYLINE
  5
48c
  8
Layer_3
  62
138
  66
1
  10
0
  20
0
  30
0
  0
VERTEX
  5
48c
  8
Layer_3
  10
578.72864
  20
268.73389
  0
VERTEX
  5
48d
  8
Layer_3
  10
570.96851
  20
268.73389
  0
SEQEND
  0
POLYLINE
  5
48f
  8
Layer_3
  62
138
  66
1
  10
0
  20
0
  30
0
  0
VERTEX
  5
48f
  8
Layer_3
  10
570.96851
  20
268.73389
  0
VERTEX
  5
490
  8
Layer_3
  10
570.96851
  20
260.97314
  0
SEQEND
  0
POLYLINE
  5
492
  8
Layer_4
  62
13
  66
1
  10
0
  20
0
  30
0
  0
VERTEX
  5
492
  8
Layer_4
  10
574.84888
  20
267.59726
  0
VERTEX
  5
493
  8
Layer_4
  10
574.70856
  20
267.5831
  0
VERTEX
  5
494
  8
Layer_4
  10
574.57227
  20
267.5415
  0
VERTEX
  5
495
  8
Layer_4
  10
574.44073
  20
267.47388
  0
VERTEX
  5
496
  8
Layer_4
  10
574.31464
  20
267.38159
  0
VERTEX
  5
497
  8
Layer_4
  10
574.08154
  20
267.1286
  0
VERTEX
  5
498
  8
Layer_4
  10
573.87836
  20
266.79349
  0
VERTEX
  5
499
  8
Layer_4
  10
573.71075
  20
266.38733
  0
VERTEX
  5
49a
  8
Layer_4
  10
573.58423
  20
265.92117
  0
VERTEX
  5
49b
  8
Layer_4
  10
573.50421
  20
265.40604
  0
VERTEX
  5
49c
  8
Layer_4
  10
573.47632
  20
264.85294
  0
SEQEND
  0
POLYLINE
  5
49e
  8
Layer_4
  62
13
  66
1
  10
0
  20
0
  30
0
  0
VERTEX
  5
49e
  8
Layer_4
  10
573.47632
  20
264.85294
  0
VERTEX
  5
49f
  8
Layer_4
  10
573.50415
  20
264.3002
  0
VERTEX
  5
4a0
  8
Layer_4
  10
573.58405
  20
263.78531
  0
VERTEX
  5
4a1
  8
Layer_4
  10
573.71039
  20
263.31927
  0
VERTEX
  5
4a2
  8
Layer_4
  10
573.87781
  20
262.91321
  0
VERTEX
  5
4a3
  8
Layer_4
  10
574.08075
  20
262.57813
  0
VERTEX
  5
4a4
  8
Layer_4
  10
574.31366
  20
262.32507
  0
VERTEX
  5
4a5
  8
Layer_4
  10
574.4397
  20
262.23279
  0
VERTEX
  5
4a6
  8
Layer_4
  10
574.57117
  20
262.16513
  0
VERTEX
  5
4a7
  8
Layer_4
  10
574.7074
  20
262.12354
  0
VERTEX
  5
4a8
  8
Layer_4
  10
574.84766
  20
262.10938
  0
SEQEND
  0
POLYLINE
  5
4aa
  8
Layer_4
  62
13
  66
1
  10
0
  20
0
  30
0
  0
VERTEX
  5
4aa
  8
Layer_4
  10
574.84766
  20
262.10938
  0
VERTEX
  5
4ab
  8
Layer_4
  10
574.98804
  20
262.12354
  0
VERTEX
  5
4ac
  8
Layer_4
  10
575.12439
  20
262.16513
  0
VERTEX
  5
4ad
  8
Layer_4
  10
575.25598
  20
262.23279
  0
VERTEX
  5
4ae
  8
Layer_4
  10
575.38214
  20
262.32507
  0
VERTEX
  5
4af
  8
Layer_4
  10
575.61536
  20
262.57813
  0
VERTEX
  5
4b0
  8
Layer_4
  10
575.81854
  20
262.91321
  0
VERTEX
  5
4b1
  8
Layer_4
  10
575.98615
  20
263.31927
  0
VERTEX
  5
4b2
  8
Layer_4
  10
576.11273
  20
263.78531
  0
VERTEX
  5
4b3
  8
Layer_4
  10
576.19269
  20
264.3002
  0
VERTEX
  5
4b4
  8
Layer_4
  10
576.22058
  20
264.85294
  0
SEQEND
  0
POLYLINE
  5
4b6
  8
Layer_4
  62
13
  66
1
  10
0
  20
0
  30
0
  0
VERTEX
  5
4b6
  8
Layer_4
  10
576.22058
  20
264.85294
  0
VERTEX
  5
4b7
  8
Layer_4
  10
576.19269
  20
265.40604
  0
VERTEX
  5
4b8
  8
Layer_4
  10
576.11273
  20
265.92117
  0
VERTEX
  5
4b9
  8
Layer_4
  10
575.98621
  20
266.38733
  0
VERTEX
  5
4ba
  8
Layer_4
  10
575.81866
  20
266.79349
  0
VERTEX
  5
4bb
  8
Layer_4
  10
575.61566
  20
267.1286
  0
VERTEX
  5
4bc
  8
Layer_4
  10
575.38263
  20
267.38159
  0
VERTEX
  5
4bd
  8
Layer_4
  10
575.25665
  20
267.47388
  0
VERTEX
  5
4be
  8
Layer_4
  10
575.12524
  20
267.5415
  0
VERTEX
  5
4bf
  8
Layer_4
  10
574.98907
  20
267.5831
  0
VERTEX
  5
4c0
  8
Layer_4
  10
574.84888
  20
267.59726
  0
SEQEND
  0
POLYLINE
  5
4c2
  8
Layer_3
  62
138
  66
1
  10
0
  20
0
  30
0
  0
VERTEX
  5
4c2
  8
Layer_3
  10
574.84888
  20
268.73389
  0
VERTEX
  5
4c3
  8
Layer_3
  10
574.84888
  20
357.98663
  0
SEQEND
  0
POLYLINE
  5
4c5
  8
Layer_3
  62
138
  66
1
  10
0
  20
0
  30
0
  0
VERTEX
  5
4c5
  8
Layer_3
  10
470.07385
  20
276.49542
  0
VERTEX
  5
4c6
  8
Layer_3
  10
570.96851
  20
276.49542
  0
SEQEND
  0
POLYLINE
  5
4c8
  8
Layer_3
  62
138
  66
1
  10
0
  20
0
  30
0
  0
VERTEX
  5
4c8
  8
Layer_3
  10
570.96851
  20
276.49542
  0
VERTEX
  5
4c9
  8
Layer_3
  10
570.96851
  20
284.25574
  0
SEQEND
  0
POLYLINE
  5
4cb
  8
Layer_3
  62
138
  66
1
  10
0
  20
0
  30
0
  0
VERTEX
  5
4cb
  8
Layer_3
  10
570.96851
  20
284.25574
  0
VERTEX
  5
4cc
  8
Layer_3
  10
470.07385
  20
284.25574
  0
SEQEND
  0
POLYLINE
  5
4ce
  8
Layer_3
  62
138
  66
1
  10
0
  20
0
  30
0
  0
VERTEX
  5
4ce
  8
Layer_3
  10
470.07385
  20
284.25574
  0
VERTEX
  5
4cf
  8
Layer_3
  10
470.07385
  20
276.49542
  0
SEQEND
  0
POLYLINE
  5
4d1
  8
Layer_3
  62
138
  66
1
  10
0
  20
0
  30
0
  0
VERTEX
  5
4d1
  8
Layer_3
  10
570.96851
  20
293.1814
  0
VERTEX
  5
4d2
  8
Layer_3
  10
470.07385
  20
293.1814
  0
SEQEND
  0
POLYLINE
  5
4d4
  8
Layer_3
  62
138
  66
1
  10
0
  20
0
  30
0
  0
VERTEX
  5
4d4
  8
Layer_3
  10
470.07385
  20
293.1814
  0
VERTEX
  5
4d5
  8
Layer_3
  10
470.07385
  20
300.94281
  0
SEQEND
  0
POLYLINE
  5
4d7
  8
Layer_3
  62
138
  66
1
  10
0
  20
0
  30
0
  0
VERTEX
  5
4d7
  8
Layer_3
  10
470.07385
  20
300.94281
  0
VERTEX
  5
4d8
  8
Layer_3
  10
570.96851
  20
300.94281
  0
SEQEND
  0
POLYLINE
  5
4da
  8
Layer_3
  62
138
  66
1
  10
0
  20
0
  30
0
  0
VERTEX
  5
4da
  8
Layer_3
  10
570.96851
  20
300.94281
  0
VERTEX
  5
4db
  8
Layer_3
  10
570.96851
  20
293.1814
  0
SEQEND
  0
POLYLINE
  5
4dd
  8
Layer_3
  62
138
  66
1
  10
0
  20
0
  30
0
  0
VERTEX
  5
4dd
  8
Layer_3
  10
470.07385
  20
309.47974
  0
VERTEX
  5
4de
  8
Layer_3
  10
570.96851
  20
309.47974
  0
SEQEND
  0
POLYLINE
  5
4e0
  8
Layer_3
  62
138
  66
1
  10
0
  20
0
  30
0
  0
VERTEX
  5
4e0
  8
Layer_3
  10
570.96851
  20
309.47974
  0
VERTEX
  5
4e1
  8
Layer_3
  10
570.96851
  20
317.24042
  0
SEQEND
  0
POLYLINE
  5
4e3
  8
Layer_3
  62
138
  66
1
  10
0
  20
0
  30
0
  0
VERTEX
  5
4e3
  8
Layer_3
  10
570.96851
  20
317.24042
  0
VERTEX
  5
4e4
  8
Layer_3
  10
470.07385
  20
317.24042
  0
SEQEND
  0
POLYLINE
  5
4e6
  8
Layer_3
  62
138
  66
1
  10
0
  20
0
  30
0
  0
VERTEX
  5
4e6
  8
Layer_3
  10
470.07385
  20
317.24042
  0
VERTEX
  5
4e7
  8
Layer_3
  10
470.07385
  20
309.47974
  0
SEQEND
  0
POLYLINE
  5
4e9
  8
Layer_3
  62
138
  66
1
  10
0
  20
0
  30
0
  0
VERTEX
  5
4e9
  8
Layer_3
  10
570.96851
  20
326.16571
  0
VERTEX
  5
4ea
  8
Layer_3
  10
470.07385
  20
326.16571
  0
SEQEND
  0
POLYLINE
  5
4ec
  8
Layer_3
  62
138
  66
1
  10
0
  20
0
  30
0
  0
VERTEX
  5
4ec
  8
Layer_3
  10
470.07385
  20
326.16571
  0
VERTEX
  5
4ed
  8
Layer_3
  10
470.07385
  20
333.92719
  0
SEQEND
  0
POLYLINE
  5
4ef
  8
Layer_3
  62
138
  66
1
  10
0
  20
0
  30
0
  0
VERTEX
  5
4ef
  8
Layer_3
  10
470.07385
  20
333.92719
  0
VERTEX
  5
4f0
  8
Layer_3
  10
570.96851
  20
333.92719
  0
SEQEND
  0
POLYLINE
  5
4f2
  8
Layer_3
  62
138
  66
1
  10
0
  20
0
  30
0
  0
VERTEX
  5
4f2
  8
Layer_3
  10
570.96851
  20
333.92719
  0
VERTEX
  5
4f3
  8
Layer_3
  10
570.96851
  20
326.16571
  0
SEQEND
  0
POLYLINE
  5
4f5
  8
Layer_3
  62
138
  66
1
  10
0
  20
0
  30
0
  0
VERTEX
  5
4f5
  8
Layer_3
  10
470.07385
  20
342.46442
  0
VERTEX
  5
4f6
  8
Layer_3
  10
570.96851
  20
342.46442
  0
SEQEND
  0
POLYLINE
  5
4f8
  8
Layer_3
  62
138
  66
1
  10
0
  20
0
  30
0
  0
VERTEX
  5
4f8
  8
Layer_3
  10
570.96851
  20
342.46442
  0
VERTEX
  5
4f9
  8
Layer_3
  10
570.96851
  20
350.22595
  0
SEQEND
  0
POLYLINE
  5
4fb
  8
Layer_3
  62
138
  66
1
  10
0
  20
0
  30
0
  0
VERTEX
  5
4fb
  8
Layer_3
  10
570.96851
  20
350.22595
  0
VERTEX
  5
4fc
  8
Layer_3
  10
470.07385
  20
350.22595
  0
SEQEND
  0
POLYLINE
  5
4fe
  8
Layer_3
  62
138
  66
1
  10
0
  20
0
  30
0
  0
VERTEX
  5
4fe
  8
Layer_3
  10
470.07385
  20
350.22595
  0
VERTEX
  5
4ff
  8
Layer_3
  10
470.07385
  20
342.46442
  0
SEQEND
  0
POLYLINE
  5
501
  8
Layer_3
  62
138
  66
1
  10
0
  20
0
  30
0
  0
VERTEX
  5
501
  8
Layer_3
  10
574.84888
  20
268.73389
  0
VERTEX
  5
502
  8
Layer_3
  10
578.72864
  20
268.73389
  0
SEQEND
  0
POLYLINE
  5
504
  8
Layer_3
  62
138
  66
1
  10
0
  20
0
  30
0
  0
VERTEX
  5
504
  8
Layer_3
  10
578.72864
  20
357.98663
  0
VERTEX
  5
505
  8
Layer_3
  10
574.84888
  20
357.98663
  0
SEQEND
  0
POLYLINE
  5
507
  8
Layer_3
  62
138
  66
1
  10
0
  20
0
  30
0
  0
VERTEX
  5
507
  8
Layer_3
  10
574.84888
  20
357.98663
  0
VERTEX
  5
508
  8
Layer_3
  10
574.84888
  20
268.73389
  0
SEQEND
  0
POLYLINE
  5
50a
  8
Layer_3
  62
138
  66
1
  10
0
  20
0
  30
0
  0
VERTEX
  5
50a
  8
Layer_3
  10
198.43652
  20
51.423126
  0
VERTEX
  5
50b
  8
Layer_3
  10
198.43652
  20
43.661621
  0
SEQEND
  0
POLYLINE
  5
50d
  8
Layer_3
  62
138
  66
1
  10
0
  20
0
  30
0
  0
VERTEX
  5
50d
  8
Layer_3
  10
198.43652
  20
43.661621
  0
VERTEX
  5
50e
  8
Layer_3
  10
206.19836
  20
43.661621
  0
SEQEND
  0
POLYLINE
  5
510
  8
Layer_3
  62
138
  66
1
  10
0
  20
0
  30
0
  0
VERTEX
  5
510
  8
Layer_3
  10
206.19836
  20
43.661621
  0
VERTEX
  5
511
  8
Layer_3
  10
206.19836
  20
51.423126
  0
SEQEND
  0
POLYLINE
  5
513
  8
Layer_3
  62
138
  66
1
  10
0
  20
0
  30
0
  0
VERTEX
  5
513
  8
Layer_3
  10
206.19836
  20
51.423126
  0
VERTEX
  5
514
  8
Layer_3
  10
198.43652
  20
51.423126
  0
SEQEND
  0
POLYLINE
  5
516
  8
Layer_3
  62
138
  66
1
  10
0
  20
0
  30
0
  0
VERTEX
  5
516
  8
Layer_3
  10
198.43652
  20
148.43665
  0
VERTEX
  5
517
  8
Layer_3
  10
198.43652
  20
140.67593
  0
SEQEND
  0
POLYLINE
  5
519
  8
Layer_3
  62
138
  66
1
  10
0
  20
0
  30
0
  0
VERTEX
  5
519
  8
Layer_3
  10
198.43652
  20
140.67593
  0
VERTEX
  5
51a
  8
Layer_3
  10
206.19836
  20
140.67593
  0
SEQEND
  0
POLYLINE
  5
51c
  8
Layer_3
  62
138
  66
1
  10
0
  20
0
  30
0
  0
VERTEX
  5
51c
  8
Layer_3
  10
206.19836
  20
140.67593
  0
VERTEX
  5
51d
  8
Layer_3
  10
206.19836
  20
148.43665
  0
SEQEND
  0
POLYLINE
  5
51f
  8
Layer_3
  62
138
  66
1
  10
0
  20
0
  30
0
  0
VERTEX
  5
51f
  8
Layer_3
  10
206.19836
  20
51.423126
  0
VERTEX
  5
520
  8
Layer_3
  10
206.19836
  20
140.67593
  0
SEQEND
  0
POLYLINE
  5
522
  8
Layer_3
  62
138
  66
1
  10
0
  20
0
  30
0
  0
VERTEX
  5
522
  8
Layer_3
  10
206.19836
  20
140.67593
  0
VERTEX
  5
523
  8
Layer_3
  10
198.43652
  20
140.67593
  0
SEQEND
  0
POLYLINE
  5
525
  8
Layer_3
  62
138
  66
1
  10
0
  20
0
  30
0
  0
VERTEX
  5
525
  8
Layer_3
  10
198.43652
  20
51.423126
  0
VERTEX
  5
526
  8
Layer_3
  10
206.19836
  20
51.423126
  0
SEQEND
  0
POLYLINE
  5
528
  8
Layer_3
  62
138
  66
1
  10
0
  20
0
  30
0
  0
VERTEX
  5
528
  8
Layer_3
  10
458.4314
  20
51.423126
  0
VERTEX
  5
529
  8
Layer_3
  10
458.4314
  20
43.661621
  0
SEQEND
  0
POLYLINE
  5
52b
  8
Layer_3
  62
138
  66
1
  10
0
  20
0
  30
0
  0
VERTEX
  5
52b
  8
Layer_3
  10
458.4314
  20
43.661621
  0
VERTEX
  5
52c
  8
Layer_3
  10
466.19324
  20
43.661621
  0
SEQEND
  0
POLYLINE
  5
52e
  8
Layer_3
  62
138
  66
1
  10
0
  20
0
  30
0
  0
VERTEX
  5
52e
  8
Layer_3
  10
466.19324
  20
43.661621
  0
VERTEX
  5
52f
  8
Layer_3
  10
466.19324
  20
51.423126
  0
SEQEND
  0
POLYLINE
  5
531
  8
Layer_3
  62
138
  66
1
  10
0
  20
0
  30
0
  0
VERTEX
  5
531
  8
Layer_3
  10
466.19324
  20
51.423126
  0
VERTEX
  5
532
  8
Layer_3
  10
458.4314
  20
51.423126
  0
SEQEND
  0
POLYLINE
  5
534
  8
Layer_3
  62
138
  66
1
  10
0
  20
0
  30
0
  0
VERTEX
  5
534
  8
Layer_3
  10
458.4314
  20
148.43665
  0
VERTEX
  5
535
  8
Layer_3
  10
458.4314
  20
140.67593
  0
SEQEND
  0
POLYLINE
  5
537
  8
Layer_3
  62
138
  66
1
  10
0
  20
0
  30
0
  0
VERTEX
  5
537
  8
Layer_3
  10
458.4314
  20
140.67593
  0
VERTEX
  5
538
  8
Layer_3
  10
466.19324
  20
140.67593
  0
SEQEND
  0
POLYLINE
  5
53a
  8
Layer_3
  62
138
  66
1
  10
0
  20
0
  30
0
  0
VERTEX
  5
53a
  8
Layer_3
  10
466.19324
  20
140.67593
  0
VERTEX
  5
53b
  8
Layer_3
  10
466.19324
  20
148.43665
  0
SEQEND
  0
POLYLINE
  5
53d
  8
Layer_3
  62
138
  66
1
  10
0
  20
0
  30
0
  0
VERTEX
  5
53d
  8
Layer_3
  10
466.19324
  20
140.67593
  0
VERTEX
  5
53e
  8
Layer_3
  10
458.4314
  20
140.67593
  0
SEQEND
  0
POLYLINE
  5
540
  8
Layer_3
  62
138
  66
1
  10
0
  20
0
  30
0
  0
VERTEX
  5
540
  8
Layer_3
  10
458.4314
  20
140.67593
  0
VERTEX
  5
541
  8
Layer_3
  10
458.4314
  20
51.423126
  0
SEQEND
  0
POLYLINE
  5
543
  8
Layer_3
  62
138
  66
1
  10
0
  20
0
  30
0
  0
VERTEX
  5
543
  8
Layer_3
  10
458.4314
  20
51.423126
  0
VERTEX
  5
544
  8
Layer_3
  10
466.19324
  20
51.423126
  0
SEQEND
  0
POLYLINE
  5
546
  8
Layer_3
  62
138
  66
1
  10
0
  20
0
  30
0
  0
VERTEX
  5
546
  8
Layer_3
  10
458.4314
  20
47.542175
  0
VERTEX
  5
547
  8
Layer_3
  10
458.4314
  20
43.661621
  0
SEQEND
  0
POLYLINE
  5
549
  8
Layer_3
  62
138
  66
1
  10
0
  20
0
  30
0
  0
VERTEX
  5
549
  8
Layer_3
  10
206.19836
  20
43.661621
  0
VERTEX
  5
54a
  8
Layer_3
  10
206.19836
  20
47.542175
  0
SEQEND
  0
POLYLINE
  5
54c
  8
Layer_3
  62
138
  66
1
  10
0
  20
0
  30
0
  0
VERTEX
  5
54c
  8
Layer_3
  10
206.19836
  20
47.542175
  0
VERTEX
  5
54d
  8
Layer_3
  10
458.4314
  20
47.542175
  0
SEQEND
  0
POLYLINE
  5
54f
  8
Layer_3
  62
138
  66
1
  10
0
  20
0
  30
0
  0
VERTEX
  5
54f
  8
Layer_3
  10
229.48096
  20
144.55569
  0
VERTEX
  5
550
  8
Layer_3
  10
229.48096
  20
47.542175
  0
SEQEND
  0
POLYLINE
  5
552
  8
Layer_3
  62
138
  66
1
  10
0
  20
0
  30
0
  0
VERTEX
  5
552
  8
Layer_3
  10
252.37622
  20
144.55569
  0
VERTEX
  5
553
  8
Layer_3
  10
252.37622
  20
47.542175
  0
SEQEND
  0
POLYLINE
  5
555
  8
Layer_3
  62
138
  66
1
  10
0
  20
0
  30
0
  0
VERTEX
  5
555
  8
Layer_3
  10
275.27148
  20
47.542175
  0
VERTEX
  5
556
  8
Layer_3
  10
275.27148
  20
144.55569
  0
SEQEND
  0
POLYLINE
  5
558
  8
Layer_3
  62
138
  66
1
  10
0
  20
0
  30
0
  0
VERTEX
  5
558
  8
Layer_3
  10
298.16724
  20
144.55569
  0
VERTEX
  5
559
  8
Layer_3
  10
298.16724
  20
47.542175
  0
SEQEND
  0
POLYLINE
  5
55b
  8
Layer_3
  62
138
  66
1
  10
0
  20
0
  30
0
  0
VERTEX
  5
55b
  8
Layer_3
  10
321.0625
  20
47.542175
  0
VERTEX
  5
55c
  8
Layer_3
  10
321.0625
  20
144.55569
  0
SEQEND
  0
POLYLINE
  5
55e
  8
Layer_3
  62
138
  66
1
  10
0
  20
0
  30
0
  0
VERTEX
  5
55e
  8
Layer_3
  10
343.56738
  20
144.55569
  0
VERTEX
  5
55f
  8
Layer_3
  10
343.56738
  20
47.542175
  0
SEQEND
  0
POLYLINE
  5
561
  8
Layer_3
  62
138
  66
1
  10
0
  20
0
  30
0
  0
VERTEX
  5
561
  8
Layer_3
  10
366.46252
  20
47.542175
  0
VERTEX
  5
562
  8
Layer_3
  10
366.46252
  20
144.55569
  0
SEQEND
  0
POLYLINE
  5
564
  8
Layer_3
  62
138
  66
1
  10
0
  20
0
  30
0
  0
VERTEX
  5
564
  8
Layer_3
  10
389.3584
  20
144.55569
  0
VERTEX
  5
565
  8
Layer_3
  10
389.3584
  20
47.542175
  0
SEQEND
  0
POLYLINE
  5
567
  8
Layer_3
  62
138
  66
1
  10
0
  20
0
  30
0
  0
VERTEX
  5
567
  8
Layer_3
  10
412.25366
  20
47.542175
  0
VERTEX
  5
568
  8
Layer_3
  10
412.25366
  20
144.55569
  0
SEQEND
  0
POLYLINE
  5
56a
  8
Layer_3
  62
138
  66
1
  10
0
  20
0
  30
0
  0
VERTEX
  5
56a
  8
Layer_3
  10
435.1488
  20
144.55569
  0
VERTEX
  5
56b
  8
Layer_3
  10
435.1488
  20
47.542175
  0
SEQEND
  0
POLYLINE
  5
56d
  8
Layer_3
  62
138
  66
1
  10
0
  20
0
  30
0
  0
VERTEX
  5
56d
  8
Layer_3
  10
206.19836
  20
97.98941
  0
VERTEX
  5
56e
  8
Layer_3
  10
206.19836
  20
94.108856
  0
SEQEND
  0
POLYLINE
  5
570
  8
Layer_3
  62
138
  66
1
  10
0
  20
0
  30
0
  0
VERTEX
  5
570
  8
Layer_3
  10
206.19836
  20
94.108856
  0
VERTEX
  5
571
  8
Layer_3
  10
458.4314
  20
94.108856
  0
SEQEND
  0
POLYLINE
  5
573
  8
Layer_3
  62
138
  66
1
  10
0
  20
0
  30
0
  0
VERTEX
  5
573
  8
Layer_3
  10
458.4314
  20
94.108856
  0
VERTEX
  5
574
  8
Layer_3
  10
458.4314
  20
97.98941
  0
SEQEND
  0
POLYLINE
  5
576
  8
Layer_3
  62
138
  66
1
  10
0
  20
0
  30
0
  0
VERTEX
  5
576
  8
Layer_3
  10
458.4314
  20
97.98941
  0
VERTEX
  5
577
  8
Layer_3
  10
206.19836
  20
97.98941
  0
SEQEND
  0
POLYLINE
  5
579
  8
Layer_3
  62
138
  66
1
  10
0
  20
0
  30
0
  0
VERTEX
  5
579
  8
Layer_3
  10
206.19836
  20
148.43665
  0
VERTEX
  5
57a
  8
Layer_3
  10
206.19836
  20
144.55569
  0
SEQEND
  0
POLYLINE
  5
57c
  8
Layer_3
  62
138
  66
1
  10
0
  20
0
  30
0
  0
VERTEX
  5
57c
  8
Layer_3
  10
206.19836
  20
144.55569
  0
VERTEX
  5
57d
  8
Layer_3
  10
458.4314
  20
144.55569
  0
SEQEND
  0
POLYLINE
  5
57f
  8
Layer_3
  62
138
  66
1
  10
0
  20
0
  30
0
  0
VERTEX
  5
57f
  8
Layer_3
  10
458.4314
  20
144.55569
  0
VERTEX
  5
580
  8
Layer_3
  10
458.4314
  20
148.43665
  0
SEQEND
  0
POLYLINE
  5
582
  8
Layer_3
  62
138
  66
1
  10
0
  20
0
  30
0
  0
VERTEX
  5
582
  8
Layer_3
  10
458.4314
  20
470.52319
  0
VERTEX
  5
583
  8
Layer_3
  10
458.4314
  20
478.28381
  0
SEQEND
  0
POLYLINE
  5
585
  8
Layer_3
  62
138
  66
1
  10
0
  20
0
  30
0
  0
VERTEX
  5
585
  8
Layer_3
  10
458.4314
  20
478.28381
  0
VERTEX
  5
586
  8
Layer_3
  10
466.19324
  20
478.28381
  0
SEQEND
  0
POLYLINE
  5
588
  8
Layer_3
  62
138
  66
1
  10
0
  20
0
  30
0
  0
VERTEX
  5
588
  8
Layer_3
  10
466.19324
  20
478.28381
  0
VERTEX
  5
589
  8
Layer_3
  10
466.19324
  20
470.52319
  0
SEQEND
  0
POLYLINE
  5
58b
  8
Layer_3
  62
138
  66
1
  10
0
  20
0
  30
0
  0
VERTEX
  5
58b
  8
Layer_3
  10
466.19324
  20
470.52319
  0
VERTEX
  5
58c
  8
Layer_3
  10
458.4314
  20
470.52319
  0
SEQEND
  0
POLYLINE
  5
58e
  8
Layer_3
  62
138
  66
1
  10
0
  20
0
  30
0
  0
VERTEX
  5
58e
  8
Layer_3
  10
458.4314
  20
365.74817
  0
VERTEX
  5
58f
  8
Layer_3
  10
458.4314
  20
373.50885
  0
SEQEND
  0
POLYLINE
  5
591
  8
Layer_3
  62
138
  66
1
  10
0
  20
0
  30
0
  0
VERTEX
  5
591
  8
Layer_3
  10
458.4314
  20
373.50885
  0
VERTEX
  5
592
  8
Layer_3
  10
466.19324
  20
373.50885
  0
SEQEND
  0
POLYLINE
  5
594
  8
Layer_3
  62
138
  66
1
  10
0
  20
0
  30
0
  0
VERTEX
  5
594
  8
Layer_3
  10
466.19324
  20
373.50885
  0
VERTEX
  5
595
  8
Layer_3
  10
466.19324
  20
365.74817
  0
SEQEND
  0
POLYLINE
  5
597
  8
Layer_3
  62
138
  66
1
  10
0
  20
0
  30
0
  0
VERTEX
  5
597
  8
Layer_3
  10
466.19324
  20
470.52319
  0
VERTEX
  5
598
  8
Layer_3
  10
466.19324
  20
373.50885
  0
SEQEND
  0
POLYLINE
  5
59a
  8
Layer_3
  62
138
  66
1
  10
0
  20
0
  30
0
  0
VERTEX
  5
59a
  8
Layer_3
  10
466.19324
  20
373.50885
  0
VERTEX
  5
59b
  8
Layer_3
  10
458.4314
  20
373.50885
  0
SEQEND
  0
POLYLINE
  5
59d
  8
Layer_3
  62
138
  66
1
  10
0
  20
0
  30
0
  0
VERTEX
  5
59d
  8
Layer_3
  10
458.4314
  20
373.50885
  0
VERTEX
  5
59e
  8
Layer_3
  10
458.4314
  20
470.52319
  0
SEQEND
  0
POLYLINE
  5
5a0
  8
Layer_3
  62
138
  66
1
  10
0
  20
0
  30
0
  0
VERTEX
  5
5a0
  8
Layer_3
  10
458.4314
  20
470.52319
  0
VERTEX
  5
5a1
  8
Layer_3
  10
466.19324
  20
470.52319
  0
SEQEND
  0
POLYLINE
  5
5a3
  8
Layer_3
  62
138
  66
1
  10
0
  20
0
  30
0
  0
VERTEX
  5
5a3
  8
Layer_3
  10
198.43652
  20
478.28381
  0
VERTEX
  5
5a4
  8
Layer_3
  10
206.19836
  20
478.28381
  0
SEQEND
  0
POLYLINE
  5
5a6
  8
Layer_3
  62
138
  66
1
  10
0
  20
0
  30
0
  0
VERTEX
  5
5a6
  8
Layer_3
  10
206.19836
  20
478.28381
  0
VERTEX
  5
5a7
  8
Layer_3
  10
206.19836
  20
470.52319
  0
SEQEND
  0
POLYLINE
  5
5a9
  8
Layer_3
  62
138
  66
1
  10
0
  20
0
  30
0
  0
VERTEX
  5
5a9
  8
Layer_3
  10
206.19836
  20
470.52319
  0
VERTEX
  5
5aa
  8
Layer_3
  10
198.43652
  20
470.52319
  0
SEQEND
  0
POLYLINE
  5
5ac
  8
Layer_3
  62
138
  66
1
  10
0
  20
0
  30
0
  0
VERTEX
  5
5ac
  8
Layer_3
  10
198.43652
  20
373.50885
  0
VERTEX
  5
5ad
  8
Layer_3
  10
206.19836
  20
373.50885
  0
SEQEND
  0
POLYLINE
  5
5af
  8
Layer_3
  62
138
  66
1
  10
0
  20
0
  30
0
  0
VERTEX
  5
5af
  8
Layer_3
  10
206.19836
  20
373.50885
  0
VERTEX
  5
5b0
  8
Layer_3
  10
206.19836
  20
365.74817
  0
SEQEND
  0
POLYLINE
  5
5b2
  8
Layer_3
  62
138
  66
1
  10
0
  20
0
  30
0
  0
VERTEX
  5
5b2
  8
Layer_3
  10
206.19836
  20
470.52319
  0
VERTEX
  5
5b3
  8
Layer_3
  10
206.19836
  20
373.50885
  0
SEQEND
  0
POLYLINE
  5
5b5
  8
Layer_3
  62
138
  66
1
  10
0
  20
0
  30
0
  0
VERTEX
  5
5b5
  8
Layer_3
  10
206.19836
  20
373.50885
  0
VERTEX
  5
5b6
  8
Layer_3
  10
198.43652
  20
373.50885
  0
SEQEND
  0
POLYLINE
  5
5b8
  8
Layer_3
  62
138
  66
1
  10
0
  20
0
  30
0
  0
VERTEX
  5
5b8
  8
Layer_3
  10
198.43652
  20
470.52319
  0
VERTEX
  5
5b9
  8
Layer_3
  10
206.19836
  20
470.52319
  0
SEQEND
  0
POLYLINE
  5
5bb
  8
Layer_3
  62
138
  66
1
  10
0
  20
0
  30
0
  0
VERTEX
  5
5bb
  8
Layer_3
  10
206.19836
  20
474.40405
  0
VERTEX
  5
5bc
  8
Layer_3
  10
206.19836
  20
478.28381
  0
SEQEND
  0
POLYLINE
  5
5be
  8
Layer_3
  62
138
  66
1
  10
0
  20
0
  30
0
  0
VERTEX
  5
5be
  8
Layer_3
  10
206.19836
  20
478.28381
  0
VERTEX
  5
5bf
  8
Layer_3
  10
458.4314
  20
478.28381
  0
SEQEND
  0
POLYLINE
  5
5c1
  8
Layer_3
  62
138
  66
1
  10
0
  20
0
  30
0
  0
VERTEX
  5
5c1
  8
Layer_3
  10
458.4314
  20
478.28381
  0
VERTEX
  5
5c2
  8
Layer_3
  10
458.4314
  20
474.40405
  0
SEQEND
  0
POLYLINE
  5
5c4
  8
Layer_3
  62
138
  66
1
  10
0
  20
0
  30
0
  0
VERTEX
  5
5c4
  8
Layer_3
  10
458.4314
  20
474.40405
  0
VERTEX
  5
5c5
  8
Layer_3
  10
206.19836
  20
474.40405
  0
SEQEND
  0
POLYLINE
  5
5c7
  8
Layer_3
  62
138
  66
1
  10
0
  20
0
  30
0
  0
VERTEX
  5
5c7
  8
Layer_3
  10
206.19836
  20
470.52319
  0
VERTEX
  5
5c8
  8
Layer_3
  10
206.19836
  20
474.40405
  0
SEQEND
  0
POLYLINE
  5
5ca
  8
Layer_3
  62
138
  66
1
  10
0
  20
0
  30
0
  0
VERTEX
  5
5ca
  8
Layer_3
  10
206.19836
  20
474.40405
  0
VERTEX
  5
5cb
  8
Layer_3
  10
458.4314
  20
474.40405
  0
SEQEND
  0
POLYLINE
  5
5cd
  8
Layer_3
  62
138
  66
1
  10
0
  20
0
  30
0
  0
VERTEX
  5
5cd
  8
Layer_3
  10
458.4314
  20
474.40405
  0
VERTEX
  5
5ce
  8
Layer_3
  10
458.4314
  20
470.52319
  0
SEQEND
  0
POLYLINE
  5
5d0
  8
Layer_3
  62
138
  66
1
  10
0
  20
0
  30
0
  0
VERTEX
  5
5d0
  8
Layer_3
  10
458.4314
  20
470.52319
  0
VERTEX
  5
5d1
  8
Layer_3
  10
206.19836
  20
470.52319
  0
SEQEND
  0
POLYLINE
  5
5d3
  8
Layer_3
  62
138
  66
1
  10
0
  20
0
  30
0
  0
VERTEX
  5
5d3
  8
Layer_3
  10
213.95886
  20
369.62909
  0
VERTEX
  5
5d4
  8
Layer_3
  10
213.95886
  20
470.52319
  0
SEQEND
  0
POLYLINE
  5
5d6
  8
Layer_3
  62
138
  66
1
  10
0
  20
0
  30
0
  0
VERTEX
  5
5d6
  8
Layer_3
  10
213.95886
  20
470.52319
  0
VERTEX
  5
5d7
  8
Layer_3
  10
221.72021
  20
470.52319
  0
SEQEND
  0
POLYLINE
  5
5d9
  8
Layer_3
  62
138
  66
1
  10
0
  20
0
  30
0
  0
VERTEX
  5
5d9
  8
Layer_3
  10
221.72021
  20
470.52319
  0
VERTEX
  5
5da
  8
Layer_3
  10
221.72021
  20
369.62909
  0
SEQEND
  0
POLYLINE
  5
5dc
  8
Layer_3
  62
138
  66
1
  10
0
  20
0
  30
0
  0
VERTEX
  5
5dc
  8
Layer_3
  10
221.72021
  20
369.62909
  0
VERTEX
  5
5dd
  8
Layer_3
  10
213.95886
  20
369.62909
  0
SEQEND
  0
POLYLINE
  5
5df
  8
Layer_3
  62
138
  66
1
  10
0
  20
0
  30
0
  0
VERTEX
  5
5df
  8
Layer_3
  10
244.61597
  20
369.62909
  0
VERTEX
  5
5e0
  8
Layer_3
  10
244.61597
  20
470.52319
  0
SEQEND
  0
POLYLINE
  5
5e2
  8
Layer_3
  62
138
  66
1
  10
0
  20
0
  30
0
  0
VERTEX
  5
5e2
  8
Layer_3
  10
244.61597
  20
470.52319
  0
VERTEX
  5
5e3
  8
Layer_3
  10
252.37622
  20
470.52319
  0
SEQEND
  0
POLYLINE
  5
5e5
  8
Layer_3
  62
138
  66
1
  10
0
  20
0
  30
0
  0
VERTEX
  5
5e5
  8
Layer_3
  10
252.37622
  20
470.52319
  0
VERTEX
  5
5e6
  8
Layer_3
  10
252.37622
  20
369.62909
  0
SEQEND
  0
POLYLINE
  5
5e8
  8
Layer_3
  62
138
  66
1
  10
0
  20
0
  30
0
  0
VERTEX
  5
5e8
  8
Layer_3
  10
252.37622
  20
369.62909
  0
VERTEX
  5
5e9
  8
Layer_3
  10
244.61597
  20
369.62909
  0
SEQEND
  0
POLYLINE
  5
5eb
  8
Layer_3
  62
138
  66
1
  10
0
  20
0
  30
0
  0
VERTEX
  5
5eb
  8
Layer_3
  10
259.74976
  20
369.62909
  0
VERTEX
  5
5ec
  8
Layer_3
  10
259.74976
  20
470.52319
  0
SEQEND
  0
POLYLINE
  5
5ee
  8
Layer_3
  62
138
  66
1
  10
0
  20
0
  30
0
  0
VERTEX
  5
5ee
  8
Layer_3
  10
259.74976
  20
470.52319
  0
VERTEX
  5
5ef
  8
Layer_3
  10
267.51001
  20
470.52319
  0
SEQEND
  0
POLYLINE
  5
5f1
  8
Layer_3
  62
138
  66
1
  10
0
  20
0
  30
0
  0
VERTEX
  5
5f1
  8
Layer_3
  10
267.51001
  20
470.52319
  0
VERTEX
  5
5f2
  8
Layer_3
  10
267.51001
  20
369.62909
  0
SEQEND
  0
POLYLINE
  5
5f4
  8
Layer_3
  62
138
  66
1
  10
0
  20
0
  30
0
  0
VERTEX
  5
5f4
  8
Layer_3
  10
267.51001
  20
369.62909
  0
VERTEX
  5
5f5
  8
Layer_3
  10
259.74976
  20
369.62909
  0
SEQEND
  0
POLYLINE
  5
5f7
  8
Layer_3
  62
138
  66
1
  10
0
  20
0
  30
0
  0
VERTEX
  5
5f7
  8
Layer_3
  10
274.88342
  20
369.62909
  0
VERTEX
  5
5f8
  8
Layer_3
  10
274.88342
  20
470.52319
  0
SEQEND
  0
POLYLINE
  5
5fa
  8
Layer_3
  62
138
  66
1
  10
0
  20
0
  30
0
  0
VERTEX
  5
5fa
  8
Layer_3
  10
274.88342
  20
470.52319
  0
VERTEX
  5
5fb
  8
Layer_3
  10
282.64502
  20
470.52319
  0
SEQEND
  0
POLYLINE
  5
5fd
  8
Layer_3
  62
138
  66
1
  10
0
  20
0
  30
0
  0
VERTEX
  5
5fd
  8
Layer_3
  10
282.64502
  20
470.52319
  0
VERTEX
  5
5fe
  8
Layer_3
  10
282.64502
  20
369.62909
  0
SEQEND
  0
POLYLINE
  5
600
  8
Layer_3
  62
138
  66
1
  10
0
  20
0
  30
0
  0
VERTEX
  5
600
  8
Layer_3
  10
282.64502
  20
369.62909
  0
VERTEX
  5
601
  8
Layer_3
  10
274.88342
  20
369.62909
  0
SEQEND
  0
POLYLINE
  5
603
  8
Layer_3
  62
138
  66
1
  10
0
  20
0
  30
0
  0
VERTEX
  5
603
  8
Layer_3
  10
290.40527
  20
369.62909
  0
VERTEX
  5
604
  8
Layer_3
  10
290.40527
  20
470.52319
  0
SEQEND
  0
POLYLINE
  5
606
  8
Layer_3
  62
138
  66
1
  10
0
  20
0
  30
0
  0
VERTEX
  5
606
  8
Layer_3
  10
290.40527
  20
470.52319
  0
VERTEX
  5
607
  8
Layer_3
  10
298.16724
  20
470.52319
  0
SEQEND
  0
POLYLINE
  5
609
  8
Layer_3
  62
138
  66
1
  10
0
  20
0
  30
0
  0
VERTEX
  5
609
  8
Layer_3
  10
298.16724
  20
470.52319
  0
VERTEX
  5
60a
  8
Layer_3
  10
298.16724
  20
369.62909
  0
SEQEND
  0
POLYLINE
  5
60c
  8
Layer_3
  62
138
  66
1
  10
0
  20
0
  30
0
  0
VERTEX
  5
60c
  8
Layer_3
  10
298.16724
  20
369.62909
  0
VERTEX
  5
60d
  8
Layer_3
  10
290.40527
  20
369.62909
  0
SEQEND
  0
POLYLINE
  5
60f
  8
Layer_3
  62
138
  66
1
  10
0
  20
0
  30
0
  0
VERTEX
  5
60f
  8
Layer_3
  10
305.54028
  20
369.62909
  0
VERTEX
  5
610
  8
Layer_3
  10
305.54028
  20
470.52319
  0
SEQEND
  0
POLYLINE
  5
612
  8
Layer_3
  62
138
  66
1
  10
0
  20
0
  30
0
  0
VERTEX
  5
612
  8
Layer_3
  10
305.54028
  20
470.52319
  0
VERTEX
  5
613
  8
Layer_3
  10
313.30103
  20
470.52319
  0
SEQEND
  0
POLYLINE
  5
615
  8
Layer_3
  62
138
  66
1
  10
0
  20
0
  30
0
  0
VERTEX
  5
615
  8
Layer_3
  10
313.30103
  20
470.52319
  0
VERTEX
  5
616
  8
Layer_3
  10
313.30103
  20
369.62909
  0
SEQEND
  0
POLYLINE
  5
618
  8
Layer_3
  62
138
  66
1
  10
0
  20
0
  30
0
  0
VERTEX
  5
618
  8
Layer_3
  10
313.30103
  20
369.62909
  0
VERTEX
  5
619
  8
Layer_3
  10
305.54028
  20
369.62909
  0
SEQEND
  0
POLYLINE
  5
61b
  8
Layer_3
  62
138
  66
1
  10
0
  20
0
  30
0
  0
VERTEX
  5
61b
  8
Layer_3
  10
320.67407
  20
369.62909
  0
VERTEX
  5
61c
  8
Layer_3
  10
320.67407
  20
470.52319
  0
SEQEND
  0
POLYLINE
  5
61e
  8
Layer_3
  62
138
  66
1
  10
0
  20
0
  30
0
  0
VERTEX
  5
61e
  8
Layer_3
  10
320.67407
  20
470.52319
  0
VERTEX
  5
61f
  8
Layer_3
  10
328.43591
  20
470.52319
  0
SEQEND
  0
POLYLINE
  5
621
  8
Layer_3
  62
138
  66
1
  10
0
  20
0
  30
0
  0
VERTEX
  5
621
  8
Layer_3
  10
328.43591
  20
470.52319
  0
VERTEX
  5
622
  8
Layer_3
  10
328.43591
  20
369.62909
  0
SEQEND
  0
POLYLINE
  5
624
  8
Layer_3
  62
138
  66
1
  10
0
  20
0
  30
0
  0
VERTEX
  5
624
  8
Layer_3
  10
328.43591
  20
369.62909
  0
VERTEX
  5
625
  8
Layer_3
  10
320.67407
  20
369.62909
  0
SEQEND
  0
POLYLINE
  5
627
  8
Layer_3
  62
138
  66
1
  10
0
  20
0
  30
0
  0
VERTEX
  5
627
  8
Layer_3
  10
336.19629
  20
369.62909
  0
VERTEX
  5
628
  8
Layer_3
  10
336.19629
  20
470.52319
  0
SEQEND
  0
POLYLINE
  5
62a
  8
Layer_3
  62
138
  66
1
  10
0
  20
0
  30
0
  0
VERTEX
  5
62a
  8
Layer_3
  10
336.19629
  20
470.52319
  0
VERTEX
  5
62b
  8
Layer_3
  10
343.95581
  20
470.52319
  0
SEQEND
  0
POLYLINE
  5
62d
  8
Layer_3
  62
138
  66
1
  10
0
  20
0
  30
0
  0
VERTEX
  5
62d
  8
Layer_3
  10
343.95581
  20
470.52319
  0
VERTEX
  5
62e
  8
Layer_3
  10
343.95581
  20
369.62909
  0
SEQEND
  0
POLYLINE
  5
630
  8
Layer_3
  62
138
  66
1
  10
0
  20
0
  30
0
  0
VERTEX
  5
630
  8
Layer_3
  10
343.95581
  20
369.62909
  0
VERTEX
  5
631
  8
Layer_3
  10
336.19629
  20
369.62909
  0
SEQEND
  0
POLYLINE
  5
633
  8
Layer_3
  62
138
  66
1
  10
0
  20
0
  30
0
  0
VERTEX
  5
633
  8
Layer_3
  10
351.32886
  20
369.62909
  0
VERTEX
  5
634
  8
Layer_3
  10
351.32886
  20
470.52319
  0
SEQEND
  0
POLYLINE
  5
636
  8
Layer_3
  62
138
  66
1
  10
0
  20
0
  30
0
  0
VERTEX
  5
636
  8
Layer_3
  10
351.32886
  20
470.52319
  0
VERTEX
  5
637
  8
Layer_3
  10
359.0896
  20
470.52319
  0
SEQEND
  0
POLYLINE
  5
639
  8
Layer_3
  62
138
  66
1
  10
0
  20
0
  30
0
  0
VERTEX
  5
639
  8
Layer_3
  10
359.0896
  20
470.52319
  0
VERTEX
  5
63a
  8
Layer_3
  10
359.0896
  20
369.62909
  0
SEQEND
  0
POLYLINE
  5
63c
  8
Layer_3
  62
138
  66
1
  10
0
  20
0
  30
0
  0
VERTEX
  5
63c
  8
Layer_3
  10
359.0896
  20
369.62909
  0
VERTEX
  5
63d
  8
Layer_3
  10
351.32886
  20
369.62909
  0
SEQEND
  0
POLYLINE
  5
63f
  8
Layer_3
  62
138
  66
1
  10
0
  20
0
  30
0
  0
VERTEX
  5
63f
  8
Layer_3
  10
366.46252
  20
369.62909
  0
VERTEX
  5
640
  8
Layer_3
  10
366.46252
  20
470.52319
  0
SEQEND
  0
POLYLINE
  5
642
  8
Layer_3
  62
138
  66
1
  10
0
  20
0
  30
0
  0
VERTEX
  5
642
  8
Layer_3
  10
366.46252
  20
470.52319
  0
VERTEX
  5
643
  8
Layer_3
  10
374.22437
  20
470.52319
  0
SEQEND
  0
POLYLINE
  5
645
  8
Layer_3
  62
138
  66
1
  10
0
  20
0
  30
0
  0
VERTEX
  5
645
  8
Layer_3
  10
374.22437
  20
470.52319
  0
VERTEX
  5
646
  8
Layer_3
  10
374.22437
  20
369.62909
  0
SEQEND
  0
POLYLINE
  5
648
  8
Layer_3
  62
138
  66
1
  10
0
  20
0
  30
0
  0
VERTEX
  5
648
  8
Layer_3
  10
374.22437
  20
369.62909
  0
VERTEX
  5
649
  8
Layer_3
  10
366.46252
  20
369.62909
  0
SEQEND
  0
POLYLINE
  5
64b
  8
Layer_3
  62
138
  66
1
  10
0
  20
0
  30
0
  0
VERTEX
  5
64b
  8
Layer_3
  10
381.98486
  20
369.62909
  0
VERTEX
  5
64c
  8
Layer_3
  10
381.98486
  20
470.52319
  0
SEQEND
  0
POLYLINE
  5
64e
  8
Layer_3
  62
138
  66
1
  10
0
  20
0
  30
0
  0
VERTEX
  5
64e
  8
Layer_3
  10
381.98486
  20
470.52319
  0
VERTEX
  5
64f
  8
Layer_3
  10
389.74622
  20
470.52319
  0
SEQEND
  0
POLYLINE
  5
651
  8
Layer_3
  62
138
  66
1
  10
0
  20
0
  30
0
  0
VERTEX
  5
651
  8
Layer_3
  10
389.74622
  20
470.52319
  0
VERTEX
  5
652
  8
Layer_3
  10
389.74622
  20
369.62909
  0
SEQEND
  0
POLYLINE
  5
654
  8
Layer_3
  62
138
  66
1
  10
0
  20
0
  30
0
  0
VERTEX
  5
654
  8
Layer_3
  10
389.74622
  20
369.62909
  0
VERTEX
  5
655
  8
Layer_3
  10
381.98486
  20
369.62909
  0
SEQEND
  0
POLYLINE
  5
657
  8
Layer_3
  62
138
  66
1
  10
0
  20
0
  30
0
  0
VERTEX
  5
657
  8
Layer_3
  10
397.11877
  20
369.62909
  0
VERTEX
  5
658
  8
Layer_3
  10
397.11877
  20
470.52319
  0
SEQEND
  0
POLYLINE
  5
65a
  8
Layer_3
  62
138
  66
1
  10
0
  20
0
  30
0
  0
VERTEX
  5
65a
  8
Layer_3
  10
397.11877
  20
470.52319
  0
VERTEX
  5
65b
  8
Layer_3
  10
404.88025
  20
470.52319
  0
SEQEND
  0
POLYLINE
  5
65d
  8
Layer_3
  62
138
  66
1
  10
0
  20
0
  30
0
  0
VERTEX
  5
65d
  8
Layer_3
  10
404.88025
  20
470.52319
  0
VERTEX
  5
65e
  8
Layer_3
  10
404.88025
  20
369.62909
  0
SEQEND
  0
POLYLINE
  5
660
  8
Layer_3
  62
138
  66
1
  10
0
  20
0
  30
0
  0
VERTEX
  5
660
  8
Layer_3
  10
404.88025
  20
369.62909
  0
VERTEX
  5
661
  8
Layer_3
  10
397.11877
  20
369.62909
  0
SEQEND
  0
POLYLINE
  5
663
  8
Layer_3
  62
138
  66
1
  10
0
  20
0
  30
0
  0
VERTEX
  5
663
  8
Layer_3
  10
412.25366
  20
369.62909
  0
VERTEX
  5
664
  8
Layer_3
  10
412.25366
  20
470.52319
  0
SEQEND
  0
POLYLINE
  5
666
  8
Layer_3
  62
138
  66
1
  10
0
  20
0
  30
0
  0
VERTEX
  5
666
  8
Layer_3
  10
412.25366
  20
470.52319
  0
VERTEX
  5
667
  8
Layer_3
  10
420.01392
  20
470.52319
  0
SEQEND
  0
POLYLINE
  5
669
  8
Layer_3
  62
138
  66
1
  10
0
  20
0
  30
0
  0
VERTEX
  5
669
  8
Layer_3
  10
420.01392
  20
470.52319
  0
VERTEX
  5
66a
  8
Layer_3
  10
420.01392
  20
369.62909
  0
SEQEND
  0
POLYLINE
  5
66c
  8
Layer_3
  62
138
  66
1
  10
0
  20
0
  30
0
  0
VERTEX
  5
66c
  8
Layer_3
  10
420.01392
  20
369.62909
  0
VERTEX
  5
66d
  8
Layer_3
  10
412.25366
  20
369.62909
  0
SEQEND
  0
POLYLINE
  5
66f
  8
Layer_3
  62
138
  66
1
  10
0
  20
0
  30
0
  0
VERTEX
  5
66f
  8
Layer_3
  10
427.77588
  20
369.62909
  0
VERTEX
  5
670
  8
Layer_3
  10
427.77588
  20
470.52319
  0
SEQEND
  0
POLYLINE
  5
672
  8
Layer_3
  62
138
  66
1
  10
0
  20
0
  30
0
  0
VERTEX
  5
672
  8
Layer_3
  10
427.77588
  20
470.52319
  0
VERTEX
  5
673
  8
Layer_3
  10
435.53625
  20
470.52319
  0
SEQEND
  0
POLYLINE
  5
675
  8
Layer_3
  62
138
  66
1
  10
0
  20
0
  30
0
  0
VERTEX
  5
675
  8
Layer_3
  10
435.53625
  20
470.52319
  0
VERTEX
  5
676
  8
Layer_3
  10
435.53625
  20
369.62909
  0
SEQEND
  0
POLYLINE
  5
678
  8
Layer_3
  62
138
  66
1
  10
0
  20
0
  30
0
  0
VERTEX
  5
678
  8
Layer_3
  10
435.53625
  20
369.62909
  0
VERTEX
  5
679
  8
Layer_3
  10
427.77588
  20
369.62909
  0
SEQEND
  0
POLYLINE
  5
67b
  8
Layer_3
  62
138
  66
1
  10
0
  20
0
  30
0
  0
VERTEX
  5
67b
  8
Layer_3
  10
442.90955
  20
369.62909
  0
VERTEX
  5
67c
  8
Layer_3
  10
442.90955
  20
470.52319
  0
SEQEND
  0
POLYLINE
  5
67e
  8
Layer_3
  62
138
  66
1
  10
0
  20
0
  30
0
  0
VERTEX
  5
67e
  8
Layer_3
  10
442.90955
  20
470.52319
  0
VERTEX
  5
67f
  8
Layer_3
  10
450.67102
  20
470.52319
  0
SEQEND
  0
POLYLINE
  5
681
  8
Layer_3
  62
138
  66
1
  10
0
  20
0
  30
0
  0
VERTEX
  5
681
  8
Layer_3
  10
450.67102
  20
470.52319
  0
VERTEX
  5
682
  8
Layer_3
  10
450.67102
  20
369.62909
  0
SEQEND
  0
POLYLINE
  5
684
  8
Layer_3
  62
138
  66
1
  10
0
  20
0
  30
0
  0
VERTEX
  5
684
  8
Layer_3
  10
450.67102
  20
369.62909
  0
VERTEX
  5
685
  8
Layer_3
  10
442.90955
  20
369.62909
  0
SEQEND
  0
POLYLINE
  5
687
  8
Layer_3
  62
138
  66
1
  10
0
  20
0
  30
0
  0
VERTEX
  5
687
  8
Layer_3
  10
229.09253
  20
369.62909
  0
VERTEX
  5
688
  8
Layer_3
  10
229.09253
  20
470.52319
  0
SEQEND
  0
POLYLINE
  5
68a
  8
Layer_3
  62
138
  66
1
  10
0
  20
0
  30
0
  0
VERTEX
  5
68a
  8
Layer_3
  10
229.09253
  20
470.52319
  0
VERTEX
  5
68b
  8
Layer_3
  10
236.854
  20
470.52319
  0
SEQEND
  0
POLYLINE
  5
68d
  8
Layer_3
  62
138
  66
1
  10
0
  20
0
  30
0
  0
VERTEX
  5
68d
  8
Layer_3
  10
236.854
  20
470.52319
  0
VERTEX
  5
68e
  8
Layer_3
  10
236.854
  20
369.62909
  0
SEQEND
  0
POLYLINE
  5
690
  8
Layer_3
  62
138
  66
1
  10
0
  20
0
  30
0
  0
VERTEX
  5
690
  8
Layer_3
  10
236.854
  20
369.62909
  0
VERTEX
  5
691
  8
Layer_3
  10
229.09253
  20
369.62909
  0
SEQEND
  0
POLYLINE
  5
693
  8
Layer_4
  62
13
  66
1
  10
0
  20
0
  30
0
  0
VERTEX
  5
693
  8
Layer_4
  10
198.43652
  20
478.28381
  0
VERTEX
  5
694
  8
Layer_4
  10
466.19324
  20
478.28381
  0
SEQEND
  0
POLYLINE
  5
696
  8
Layer_4
  62
13
  66
1
  10
0
  20
0
  30
0
  0
VERTEX
  5
696
  8
Layer_4
  10
198.41364
  20
478.30084
  0
VERTEX
  5
697
  8
Layer_4
  10
93.638611
  20
478.30084
  0
SEQEND
  0
POLYLINE
  5
699
  8
Layer_1
  62
5
  66
1
  10
0
  20
0
  30
0
  0
VERTEX
  5
699
  8
Layer_1
  10
466.19751
  20
478.28424
  0
VERTEX
  5
69a
  8
Layer_1
  10
466.19751
  20
365.7486
  0
SEQEND
  0
POLYLINE
  5
69c
  8
Layer_4
  62
13
  66
1
  10
0
  20
0
  30
0
  0
VERTEX
  5
69c
  8
Layer_4
  10
466.19751
  20
365.7486
  0
VERTEX
  5
69d
  8
Layer_4
  10
578.73401
  20
365.7486
  0
SEQEND
  0
POLYLINE
  5
69f
  8
Layer_4
  62
13
  66
1
  10
0
  20
0
  30
0
  0
VERTEX
  5
69f
  8
Layer_4
  10
578.73401
  20
260.97357
  0
VERTEX
  5
6a0
  8
Layer_4
  10
466.19751
  20
260.97314
  0
SEQEND
  0
POLYLINE
  5
6a2
  8
Layer_3
  62
138
  66
1
  10
0
  20
0
  30
0
  0
VERTEX
  5
6a2
  8
Layer_3
  10
206.19836
  20
365.74817
  0
VERTEX
  5
6a3
  8
Layer_3
  10
206.19836
  20
361.86719
  0
SEQEND
  0
POLYLINE
  5
6a5
  8
Layer_3
  62
138
  66
1
  10
0
  20
0
  30
0
  0
VERTEX
  5
6a5
  8
Layer_3
  10
206.19836
  20
361.86719
  0
VERTEX
  5
6a6
  8
Layer_3
  10
458.4314
  20
361.86719
  0
SEQEND
  0
POLYLINE
  5
6a8
  8
Layer_3
  62
138
  66
1
  10
0
  20
0
  30
0
  0
VERTEX
  5
6a8
  8
Layer_3
  10
458.4314
  20
361.86719
  0
VERTEX
  5
6a9
  8
Layer_3
  10
458.4314
  20
365.74817
  0
SEQEND
  0
POLYLINE
  5
6ab
  8
Layer_3
  62
138
  66
1
  10
0
  20
0
  30
0
  0
VERTEX
  5
6ab
  8
Layer_3
  10
206.19836
  20
365.74817
  0
VERTEX
  5
6ac
  8
Layer_3
  10
206.19836
  20
369.62909
  0
SEQEND
  0
POLYLINE
  5
6ae
  8
Layer_3
  62
138
  66
1
  10
0
  20
0
  30
0
  0
VERTEX
  5
6ae
  8
Layer_3
  10
206.19836
  20
369.62909
  0
VERTEX
  5
6af
  8
Layer_3
  10
458.4314
  20
369.62909
  0
SEQEND
  0
POLYLINE
  5
6b1
  8
Layer_3
  62
138
  66
1
  10
0
  20
0
  30
0
  0
VERTEX
  5
6b1
  8
Layer_3
  10
458.4314
  20
369.62909
  0
VERTEX
  5
6b2
  8
Layer_3
  10
458.4314
  20
365.74817
  0
SEQEND
  0
POLYLINE
  5
6b4
  8
Layer_3
  62
138
  66
1
  10
0
  20
0
  30
0
  0
VERTEX
  5
6b4
  8
Layer_3
  10
466.19324
  20
357.98663
  0
VERTEX
  5
6b5
  8
Layer_3
  10
458.4314
  20
357.98663
  0
SEQEND
  0
POLYLINE
  5
6b7
  8
Layer_3
  62
138
  66
1
  10
0
  20
0
  30
0
  0
VERTEX
  5
6b7
  8
Layer_3
  10
458.4314
  20
357.98663
  0
VERTEX
  5
6b8
  8
Layer_3
  10
458.4314
  20
268.73389
  0
SEQEND
  0
POLYLINE
  5
6ba
  8
Layer_3
  62
138
  66
1
  10
0
  20
0
  30
0
  0
VERTEX
  5
6ba
  8
Layer_3
  10
458.4314
  20
268.73389
  0
VERTEX
  5
6bb
  8
Layer_3
  10
466.19324
  20
268.73389
  0
SEQEND
  0
POLYLINE
  5
6bd
  8
Layer_2
  62
254
  66
1
  10
0
  20
0
  30
0
  0
VERTEX
  5
6bd
  8
Layer_2
  10
578.72974
  20
365.74817
  0
VERTEX
  5
6be
  8
Layer_2
  10
466.19324
  20
365.74817
  0
SEQEND
  0
POLYLINE
  5
6c0
  8
Layer_2
  62
254
  66
1
  10
0
  20
0
  30
0
  0
VERTEX
  5
6c0
  8
Layer_2
  10
466.19324
  20
260.97314
  0
VERTEX
  5
6c1
  8
Layer_2
  10
578.72974
  20
260.97314
  0
SEQEND
  0
POLYLINE
  5
6c3
  8
Layer_4
  62
13
  66
1
  10
0
  20
0
  30
0
  0
VERTEX
  5
6c3
  8
Layer_4
  10
462.31238
  20
475.77588
  0
VERTEX
  5
6c4
  8
Layer_4
  10
462.86514
  20
475.74799
  0
VERTEX
  5
6c5
  8
Layer_4
  10
463.38016
  20
475.66794
  0
VERTEX
  5
6c6
  8
Layer_4
  10
463.84634
  20
475.54135
  0
VERTEX
  5
6c7
  8
Layer_4
  10
464.25262
  20
475.37372
  0
VERTEX
  5
6c8
  8
Layer_4
  10
464.58792
  20
475.17065
  0
VERTEX
  5
6c9
  8
Layer_4
  10
464.84113
  20
474.93765
  0
VERTEX
  5
6ca
  8
Layer_4
  10
464.9335
  20
474.81165
  0
VERTEX
  5
6cb
  8
Layer_4
  10
465.00119
  20
474.68027
  0
VERTEX
  5
6cc
  8
Layer_4
  10
465.04282
  20
474.54416
  0
VERTEX
  5
6cd
  8
Layer_4
  10
465.05701
  20
474.40405
  0
SEQEND
  0
POLYLINE
  5
6cf
  8
Layer_4
  62
13
  66
1
  10
0
  20
0
  30
0
  0
VERTEX
  5
6cf
  8
Layer_4
  10
459.56799
  20
474.40295
  0
VERTEX
  5
6d0
  8
Layer_4
  10
459.58215
  20
474.54324
  0
VERTEX
  5
6d1
  8
Layer_4
  10
459.62375
  20
474.67953
  0
VERTEX
  5
6d2
  8
Layer_4
  10
459.69138
  20
474.81107
  0
VERTEX
  5
6d3
  8
Layer_4
  10
459.78363
  20
474.93716
  0
VERTEX
  5
6d4
  8
Layer_4
  10
460.03668
  20
475.17038
  0
VERTEX
  5
6d5
  8
Layer_4
  10
460.37177
  20
475.3736
  0
VERTEX
  5
6d6
  8
Layer_4
  10
460.77792
  20
475.54129
  0
VERTEX
  5
6d7
  8
Layer_4
  10
461.24411
  20
475.66794
  0
VERTEX
  5
6d8
  8
Layer_4
  10
461.75928
  20
475.74796
  0
VERTEX
  5
6d9
  8
Layer_4
  10
462.31238
  20
475.77588
  0
SEQEND
  0
POLYLINE
  5
6db
  8
Layer_4
  62
13
  66
1
  10
0
  20
0
  30
0
  0
VERTEX
  5
6db
  8
Layer_4
  10
462.31238
  20
473.03113
  0
VERTEX
  5
6dc
  8
Layer_4
  10
461.75928
  20
473.05902
  0
VERTEX
  5
6dd
  8
Layer_4
  10
461.24411
  20
473.13907
  0
VERTEX
  5
6de
  8
Layer_4
  10
460.77792
  20
473.26566
  0
VERTEX
  5
6df
  8
Layer_4
  10
460.37177
  20
473.43329
  0
VERTEX
  5
6e0
  8
Layer_4
  10
460.03668
  20
473.63635
  0
VERTEX
  5
6e1
  8
Layer_4
  10
459.78363
  20
473.86935
  0
VERTEX
  5
6e2
  8
Layer_4
  10
459.69138
  20
473.99536
  0
VERTEX
  5
6e3
  8
Layer_4
  10
459.62375
  20
474.12674
  0
VERTEX
  5
6e4
  8
Layer_4
  10
459.58215
  20
474.26285
  0
VERTEX
  5
6e5
  8
Layer_4
  10
459.56799
  20
474.40295
  0
SEQEND
  0
POLYLINE
  5
6e7
  8
Layer_4
  62
13
  66
1
  10
0
  20
0
  30
0
  0
VERTEX
  5
6e7
  8
Layer_4
  10
465.05701
  20
474.40405
  0
VERTEX
  5
6e8
  8
Layer_4
  10
465.04282
  20
474.26376
  0
VERTEX
  5
6e9
  8
Layer_4
  10
465.00119
  20
474.12747
  0
VERTEX
  5
6ea
  8
Layer_4
  10
464.9335
  20
473.99594
  0
VERTEX
  5
6eb
  8
Layer_4
  10
464.84113
  20
473.86984
  0
VERTEX
  5
6ec
  8
Layer_4
  10
464.58792
  20
473.63663
  0
VERTEX
  5
6ed
  8
Layer_4
  10
464.25262
  20
473.43341
  0
VERTEX
  5
6ee
  8
Layer_4
  10
463.84634
  20
473.26572
  0
VERTEX
  5
6ef
  8
Layer_4
  10
463.38016
  20
473.13907
  0
VERTEX
  5
6f0
  8
Layer_4
  10
462.86514
  20
473.05905
  0
VERTEX
  5
6f1
  8
Layer_4
  10
462.31238
  20
473.03113
  0
SEQEND
  0
POLYLINE
  5
6f3
  8
Layer_4
  62
13
  66
1
  10
0
  20
0
  30
0
  0
VERTEX
  5
6f3
  8
Layer_4
  10
465.05701
  20
369.62909
  0
VERTEX
  5
6f4
  8
Layer_4
  10
465.04282
  20
369.48877
  0
VERTEX
  5
6f5
  8
Layer_4
  10
465.00119
  20
369.35251
  0
VERTEX
  5
6f6
  8
Layer_4
  10
464.9335
  20
369.22095
  0
VERTEX
  5
6f7
  8
Layer_4
  10
464.84113
  20
369.09485
  0
VERTEX
  5
6f8
  8
Layer_4
  10
464.58792
  20
368.86163
  0
VERTEX
  5
6f9
  8
Layer_4
  10
464.25262
  20
368.65842
  0
VERTEX
  5
6fa
  8
Layer_4
  10
463.84634
  20
368.49072
  0
VERTEX
  5
6fb
  8
Layer_4
  10
463.38016
  20
368.36411
  0
VERTEX
  5
6fc
  8
Layer_4
  10
462.86514
  20
368.28406
  0
VERTEX
  5
6fd
  8
Layer_4
  10
462.31238
  20
368.25616
  0
SEQEND
  0
POLYLINE
  5
6ff
  8
Layer_4
  62
13
  66
1
  10
0
  20
0
  30
0
  0
VERTEX
  5
6ff
  8
Layer_4
  10
462.31238
  20
371.00085
  0
VERTEX
  5
700
  8
Layer_4
  10
462.86514
  20
370.97296
  0
VERTEX
  5
701
  8
Layer_4
  10
463.38016
  20
370.89294
  0
VERTEX
  5
702
  8
Layer_4
  10
463.84634
  20
370.76636
  0
VERTEX
  5
703
  8
Layer_4
  10
464.25262
  20
370.59875
  0
VERTEX
  5
704
  8
Layer_4
  10
464.58792
  20
370.39569
  0
VERTEX
  5
705
  8
Layer_4
  10
464.84113
  20
370.16266
  0
VERTEX
  5
706
  8
Layer_4
  10
464.9335
  20
370.03668
  0
VERTEX
  5
707
  8
Layer_4
  10
465.00119
  20
369.9053
  0
VERTEX
  5
708
  8
Layer_4
  10
465.04282
  20
369.7692
  0
VERTEX
  5
709
  8
Layer_4
  10
465.05701
  20
369.62909
  0
SEQEND
  0
POLYLINE
  5
70b
  8
Layer_4
  62
13
  66
1
  10
0
  20
0
  30
0
  0
VERTEX
  5
70b
  8
Layer_4
  10
459.56799
  20
369.62793
  0
VERTEX
  5
70c
  8
Layer_4
  10
459.58215
  20
369.76825
  0
VERTEX
  5
70d
  8
Layer_4
  10
459.62375
  20
369.90451
  0
VERTEX
  5
70e
  8
Layer_4
  10
459.69138
  20
370.03607
  0
VERTEX
  5
70f
  8
Layer_4
  10
459.78363
  20
370.16217
  0
VERTEX
  5
710
  8
Layer_4
  10
460.03668
  20
370.39539
  0
VERTEX
  5
711
  8
Layer_4
  10
460.37177
  20
370.5986
  0
VERTEX
  5
712
  8
Layer_4
  10
460.77792
  20
370.7663
  0
VERTEX
  5
713
  8
Layer_4
  10
461.24411
  20
370.89291
  0
VERTEX
  5
714
  8
Layer_4
  10
461.75928
  20
370.97296
  0
VERTEX
  5
715
  8
Layer_4
  10
462.31238
  20
371.00085
  0
SEQEND
  0
POLYLINE
  5
717
  8
Layer_4
  62
13
  66
1
  10
0
  20
0
  30
0
  0
VERTEX
  5
717
  8
Layer_4
  10
462.31238
  20
368.25616
  0
VERTEX
  5
718
  8
Layer_4
  10
461.75928
  20
368.28406
  0
VERTEX
  5
719
  8
Layer_4
  10
461.24411
  20
368.36407
  0
VERTEX
  5
71a
  8
Layer_4
  10
460.77792
  20
368.49066
  0
VERTEX
  5
71b
  8
Layer_4
  10
460.37177
  20
368.65826
  0
VERTEX
  5
71c
  8
Layer_4
  10
460.03668
  20
368.86133
  0
VERTEX
  5
71d
  8
Layer_4
  10
459.78363
  20
369.09436
  0
VERTEX
  5
71e
  8
Layer_4
  10
459.69138
  20
369.22034
  0
VERTEX
  5
71f
  8
Layer_4
  10
459.62375
  20
369.35172
  0
VERTEX
  5
720
  8
Layer_4
  10
459.58215
  20
369.48782
  0
VERTEX
  5
721
  8
Layer_4
  10
459.56799
  20
369.62793
  0
SEQEND
  0
POLYLINE
  5
723
  8
Layer_4
  62
13
  66
1
  10
0
  20
0
  30
0
  0
VERTEX
  5
723
  8
Layer_4
  10
465.05701
  20
361.86719
  0
VERTEX
  5
724
  8
Layer_4
  10
465.04282
  20
362.00757
  0
VERTEX
  5
725
  8
Layer_4
  10
465.00119
  20
362.14386
  0
VERTEX
  5
726
  8
Layer_4
  10
464.9335
  20
362.27539
  0
VERTEX
  5
727
  8
Layer_4
  10
464.84113
  20
362.40143
  0
VERTEX
  5
728
  8
Layer_4
  10
464.58792
  20
362.63449
  0
VERTEX
  5
729
  8
Layer_4
  10
464.25262
  20
362.83746
  0
VERTEX
  5
72a
  8
Layer_4
  10
463.84634
  20
363.00491
  0
VERTEX
  5
72b
  8
Layer_4
  10
463.38016
  20
363.13129
  0
VERTEX
  5
72c
  8
Layer_4
  10
462.86514
  20
363.21118
  0
VERTEX
  5
72d
  8
Layer_4
  10
462.31238
  20
363.23901
  0
SEQEND
  0
POLYLINE
  5
72f
  8
Layer_4
  62
13
  66
1
  10
0
  20
0
  30
0
  0
VERTEX
  5
72f
  8
Layer_4
  10
462.31238
  20
360.49585
  0
VERTEX
  5
730
  8
Layer_4
  10
462.86514
  20
360.52368
  0
VERTEX
  5
731
  8
Layer_4
  10
463.38016
  20
360.60355
  0
VERTEX
  5
732
  8
Layer_4
  10
463.84634
  20
360.72992
  0
VERTEX
  5
733
  8
Layer_4
  10
464.25262
  20
360.89734
  0
VERTEX
  5
734
  8
Layer_4
  10
464.58792
  20
361.10028
  0
VERTEX
  5
735
  8
Layer_4
  10
464.84113
  20
361.33322
  0
VERTEX
  5
736
  8
Layer_4
  10
464.9335
  20
361.45923
  0
VERTEX
  5
737
  8
Layer_4
  10
465.00119
  20
361.5907
  0
VERTEX
  5
738
  8
Layer_4
  10
465.04282
  20
361.7269
  0
VERTEX
  5
739
  8
Layer_4
  10
465.05701
  20
361.86719
  0
SEQEND
  0
POLYLINE
  5
73b
  8
Layer_4
  62
13
  66
1
  10
0
  20
0
  30
0
  0
VERTEX
  5
73b
  8
Layer_4
  10
459.56799
  20
361.86719
  0
VERTEX
  5
73c
  8
Layer_4
  10
459.58215
  20
361.7269
  0
VERTEX
  5
73d
  8
Layer_4
  10
459.62375
  20
361.5907
  0
VERTEX
  5
73e
  8
Layer_4
  10
459.69138
  20
361.45923
  0
VERTEX
  5
73f
  8
Layer_4
  10
459.78363
  20
361.33322
  0
VERTEX
  5
740
  8
Layer_4
  10
460.03668
  20
361.10028
  0
VERTEX
  5
741
  8
Layer_4
  10
460.37177
  20
360.89734
  0
VERTEX
  5
742
  8
Layer_4
  10
460.77792
  20
360.72992
  0
VERTEX
  5
743
  8
Layer_4
  10
461.24411
  20
360.60355
  0
VERTEX
  5
744
  8
Layer_4
  10
461.75928
  20
360.52368
  0
VERTEX
  5
745
  8
Layer_4
  10
462.31238
  20
360.49585
  0
SEQEND
  0
POLYLINE
  5
747
  8
Layer_4
  62
13
  66
1
  10
0
  20
0
  30
0
  0
VERTEX
  5
747
  8
Layer_4
  10
462.31238
  20
363.23901
  0
VERTEX
  5
748
  8
Layer_4
  10
461.75928
  20
363.21118
  0
VERTEX
  5
749
  8
Layer_4
  10
461.24411
  20
363.13129
  0
VERTEX
  5
74a
  8
Layer_4
  10
460.77792
  20
363.00491
  0
VERTEX
  5
74b
  8
Layer_4
  10
460.37177
  20
362.83746
  0
VERTEX
  5
74c
  8
Layer_4
  10
460.03668
  20
362.63449
  0
VERTEX
  5
74d
  8
Layer_4
  10
459.78363
  20
362.40143
  0
VERTEX
  5
74e
  8
Layer_4
  10
459.69138
  20
362.27539
  0
VERTEX
  5
74f
  8
Layer_4
  10
459.62375
  20
362.14386
  0
VERTEX
  5
750
  8
Layer_4
  10
459.58215
  20
362.00757
  0
VERTEX
  5
751
  8
Layer_4
  10
459.56799
  20
361.86719
  0
SEQEND
  0
POLYLINE
  5
753
  8
Layer_4
  62
13
  66
1
  10
0
  20
0
  30
0
  0
VERTEX
  5
753
  8
Layer_4
  10
462.31238
  20
263.48117
  0
VERTEX
  5
754
  8
Layer_4
  10
462.86514
  20
263.50909
  0
VERTEX
  5
755
  8
Layer_4
  10
463.38016
  20
263.58908
  0
VERTEX
  5
756
  8
Layer_4
  10
463.84634
  20
263.71567
  0
VERTEX
  5
757
  8
Layer_4
  10
464.25262
  20
263.88327
  0
VERTEX
  5
758
  8
Layer_4
  10
464.58792
  20
264.08636
  0
VERTEX
  5
759
  8
Layer_4
  10
464.84113
  20
264.31934
  0
VERTEX
  5
75a
  8
Layer_4
  10
464.9335
  20
264.44534
  0
VERTEX
  5
75b
  8
Layer_4
  10
465.00119
  20
264.57672
  0
VERTEX
  5
75c
  8
Layer_4
  10
465.04282
  20
264.71283
  0
VERTEX
  5
75d
  8
Layer_4
  10
465.05701
  20
264.85294
  0
SEQEND
  0
POLYLINE
  5
75f
  8
Layer_4
  62
13
  66
1
  10
0
  20
0
  30
0
  0
VERTEX
  5
75f
  8
Layer_4
  10
459.56799
  20
264.85294
  0
VERTEX
  5
760
  8
Layer_4
  10
459.58215
  20
264.71283
  0
VERTEX
  5
761
  8
Layer_4
  10
459.62375
  20
264.57672
  0
VERTEX
  5
762
  8
Layer_4
  10
459.69138
  20
264.44534
  0
VERTEX
  5
763
  8
Layer_4
  10
459.78363
  20
264.31934
  0
VERTEX
  5
764
  8
Layer_4
  10
460.03668
  20
264.08636
  0
VERTEX
  5
765
  8
Layer_4
  10
460.37177
  20
263.88327
  0
VERTEX
  5
766
  8
Layer_4
  10
460.77792
  20
263.71567
  0
VERTEX
  5
767
  8
Layer_4
  10
461.24411
  20
263.58908
  0
VERTEX
  5
768
  8
Layer_4
  10
461.75928
  20
263.50909
  0
VERTEX
  5
769
  8
Layer_4
  10
462.31238
  20
263.48117
  0
SEQEND
  0
POLYLINE
  5
76b
  8
Layer_4
  62
13
  66
1
  10
0
  20
0
  30
0
  0
VERTEX
  5
76b
  8
Layer_4
  10
462.31238
  20
266.22583
  0
VERTEX
  5
76c
  8
Layer_4
  10
461.75928
  20
266.19794
  0
VERTEX
  5
76d
  8
Layer_4
  10
461.24411
  20
266.11789
  0
VERTEX
  5
76e
  8
Layer_4
  10
460.77792
  20
265.99127
  0
VERTEX
  5
76f
  8
Layer_4
  10
460.37177
  20
265.82361
  0
VERTEX
  5
770
  8
Layer_4
  10
460.03668
  20
265.62036
  0
VERTEX
  5
771
  8
Layer_4
  10
459.78363
  20
265.38718
  0
VERTEX
  5
772
  8
Layer_4
  10
459.69138
  20
265.26105
  0
VERTEX
  5
773
  8
Layer_4
  10
459.62375
  20
265.12952
  0
VERTEX
  5
774
  8
Layer_4
  10
459.58215
  20
264.99323
  0
VERTEX
  5
775
  8
Layer_4
  10
459.56799
  20
264.85294
  0
SEQEND
  0
POLYLINE
  5
777
  8
Layer_4
  62
13
  66
1
  10
0
  20
0
  30
0
  0
VERTEX
  5
777
  8
Layer_4
  10
465.05701
  20
264.85294
  0
VERTEX
  5
778
  8
Layer_4
  10
465.04282
  20
264.99323
  0
VERTEX
  5
779
  8
Layer_4
  10
465.00119
  20
265.12952
  0
VERTEX
  5
77a
  8
Layer_4
  10
464.9335
  20
265.26105
  0
VERTEX
  5
77b
  8
Layer_4
  10
464.84113
  20
265.38718
  0
VERTEX
  5
77c
  8
Layer_4
  10
464.58792
  20
265.62036
  0
VERTEX
  5
77d
  8
Layer_4
  10
464.25262
  20
265.82361
  0
VERTEX
  5
77e
  8
Layer_4
  10
463.84634
  20
265.99127
  0
VERTEX
  5
77f
  8
Layer_4
  10
463.38016
  20
266.11789
  0
VERTEX
  5
780
  8
Layer_4
  10
462.86514
  20
266.19794
  0
VERTEX
  5
781
  8
Layer_4
  10
462.31238
  20
266.22583
  0
SEQEND
  0
POLYLINE
  5
783
  8
Layer_4
  62
13
  66
1
  10
0
  20
0
  30
0
  0
VERTEX
  5
783
  8
Layer_4
  10
462.31238
  20
255.72083
  0
VERTEX
  5
784
  8
Layer_4
  10
462.86514
  20
255.74866
  0
VERTEX
  5
785
  8
Layer_4
  10
463.38016
  20
255.82852
  0
VERTEX
  5
786
  8
Layer_4
  10
463.84634
  20
255.95491
  0
VERTEX
  5
787
  8
Layer_4
  10
464.25262
  20
256.12231
  0
VERTEX
  5
788
  8
Layer_4
  10
464.58792
  20
256.32526
  0
VERTEX
  5
789
  8
Layer_4
  10
464.84113
  20
256.5582
  0
VERTEX
  5
78a
  8
Layer_4
  10
464.9335
  20
256.6842
  0
VERTEX
  5
78b
  8
Layer_4
  10
465.00119
  20
256.81567
  0
VERTEX
  5
78c
  8
Layer_4
  10
465.04282
  20
256.9519
  0
VERTEX
  5
78d
  8
Layer_4
  10
465.05701
  20
257.09219
  0
SEQEND
  0
POLYLINE
  5
78f
  8
Layer_4
  62
13
  66
1
  10
0
  20
0
  30
0
  0
VERTEX
  5
78f
  8
Layer_4
  10
459.56799
  20
257.09219
  0
VERTEX
  5
790
  8
Layer_4
  10
459.58215
  20
256.9519
  0
VERTEX
  5
791
  8
Layer_4
  10
459.62375
  20
256.81567
  0
VERTEX
  5
792
  8
Layer_4
  10
459.69138
  20
256.6842
  0
VERTEX
  5
793
  8
Layer_4
  10
459.78363
  20
256.5582
  0
VERTEX
  5
794
  8
Layer_4
  10
460.03668
  20
256.32526
  0
VERTEX
  5
795
  8
Layer_4
  10
460.37177
  20
256.12231
  0
VERTEX
  5
796
  8
Layer_4
  10
460.77792
  20
255.95491
  0
VERTEX
  5
797
  8
Layer_4
  10
461.24411
  20
255.82852
  0
VERTEX
  5
798
  8
Layer_4
  10
461.75928
  20
255.74866
  0
VERTEX
  5
799
  8
Layer_4
  10
462.31238
  20
255.72083
  0
SEQEND
  0
POLYLINE
  5
79b
  8
Layer_4
  62
13
  66
1
  10
0
  20
0
  30
0
  0
VERTEX
  5
79b
  8
Layer_4
  10
462.31238
  20
258.46396
  0
VERTEX
  5
79c
  8
Layer_4
  10
461.75928
  20
258.43613
  0
VERTEX
  5
79d
  8
Layer_4
  10
461.24411
  20
258.35626
  0
VERTEX
  5
79e
  8
Layer_4
  10
460.77792
  20
258.22986
  0
VERTEX
  5
79f
  8
Layer_4
  10
460.37177
  20
258.06244
  0
VERTEX
  5
7a0
  8
Layer_4
  10
460.03668
  20
257.85947
  0
VERTEX
  5
7a1
  8
Layer_4
  10
459.78363
  20
257.62643
  0
VERTEX
  5
7a2
  8
Layer_4
  10
459.69138
  20
257.50037
  0
VERTEX
  5
7a3
  8
Layer_4
  10
459.62375
  20
257.36884
  0
VERTEX
  5
7a4
  8
Layer_4
  10
459.58215
  20
257.23257
  0
VERTEX
  5
7a5
  8
Layer_4
  10
459.56799
  20
257.09219
  0
SEQEND
  0
POLYLINE
  5
7a7
  8
Layer_4
  62
13
  66
1
  10
0
  20
0
  30
0
  0
VERTEX
  5
7a7
  8
Layer_4
  10
465.05701
  20
257.09219
  0
VERTEX
  5
7a8
  8
Layer_4
  10
465.04282
  20
257.23257
  0
VERTEX
  5
7a9
  8
Layer_4
  10
465.00119
  20
257.36884
  0
VERTEX
  5
7aa
  8
Layer_4
  10
464.9335
  20
257.50037
  0
VERTEX
  5
7ab
  8
Layer_4
  10
464.84113
  20
257.62643
  0
VERTEX
  5
7ac
  8
Layer_4
  10
464.58792
  20
257.85947
  0
VERTEX
  5
7ad
  8
Layer_4
  10
464.25262
  20
258.06244
  0
VERTEX
  5
7ae
  8
Layer_4
  10
463.84634
  20
258.22986
  0
VERTEX
  5
7af
  8
Layer_4
  10
463.38016
  20
258.35626
  0
VERTEX
  5
7b0
  8
Layer_4
  10
462.86514
  20
258.43613
  0
VERTEX
  5
7b1
  8
Layer_4
  10
462.31238
  20
258.46396
  0
SEQEND
  0
POLYLINE
  5
7b3
  8
Layer_4
  62
13
  66
1
  10
0
  20
0
  30
0
  0
VERTEX
  5
7b3
  8
Layer_4
  10
465.05701
  20
152.3172
  0
VERTEX
  5
7b4
  8
Layer_4
  10
465.04282
  20
152.45758
  0
VERTEX
  5
7b5
  8
Layer_4
  10
465.00119
  20
152.59387
  0
VERTEX
  5
7b6
  8
Layer_4
  10
464.9335
  20
152.72534
  0
VERTEX
  5
7b7
  8
Layer_4
  10
464.84113
  20
152.85144
  0
VERTEX
  5
7b8
  8
Layer_4
  10
464.58792
  20
153.08444
  0
VERTEX
  5
7b9
  8
Layer_4
  10
464.25262
  20
153.28741
  0
VERTEX
  5
7ba
  8
Layer_4
  10
463.84634
  20
153.45486
  0
VERTEX
  5
7bb
  8
Layer_4
  10
463.38016
  20
153.58127
  0
VERTEX
  5
7bc
  8
Layer_4
  10
462.86514
  20
153.66113
  0
VERTEX
  5
7bd
  8
Layer_4
  10
462.31238
  20
153.68896
  0
SEQEND
  0
POLYLINE
  5
7bf
  8
Layer_4
  62
13
  66
1
  10
0
  20
0
  30
0
  0
VERTEX
  5
7bf
  8
Layer_4
  10
462.31238
  20
150.9458
  0
VERTEX
  5
7c0
  8
Layer_4
  10
462.86514
  20
150.97363
  0
VERTEX
  5
7c1
  8
Layer_4
  10
463.38016
  20
151.0535
  0
VERTEX
  5
7c2
  8
Layer_4
  10
463.84634
  20
151.17987
  0
VERTEX
  5
7c3
  8
Layer_4
  10
464.25262
  20
151.34729
  0
VERTEX
  5
7c4
  8
Layer_4
  10
464.58792
  20
151.55023
  0
VERTEX
  5
7c5
  8
Layer_4
  10
464.84113
  20
151.7832
  0
VERTEX
  5
7c6
  8
Layer_4
  10
464.9335
  20
151.90924
  0
VERTEX
  5
7c7
  8
Layer_4
  10
465.00119
  20
152.04071
  0
VERTEX
  5
7c8
  8
Layer_4
  10
465.04282
  20
152.17691
  0
VERTEX
  5
7c9
  8
Layer_4
  10
465.05701
  20
152.3172
  0
SEQEND
  0
POLYLINE
  5
7cb
  8
Layer_4
  62
13
  66
1
  10
0
  20
0
  30
0
  0
VERTEX
  5
7cb
  8
Layer_4
  10
462.31238
  20
153.68896
  0
VERTEX
  5
7cc
  8
Layer_4
  10
461.75928
  20
153.66113
  0
VERTEX
  5
7cd
  8
Layer_4
  10
461.24411
  20
153.58127
  0
VERTEX
  5
7ce
  8
Layer_4
  10
460.77792
  20
153.45486
  0
VERTEX
  5
7cf
  8
Layer_4
  10
460.37177
  20
153.28741
  0
VERTEX
  5
7d0
  8
Layer_4
  10
460.03668
  20
153.08444
  0
VERTEX
  5
7d1
  8
Layer_4
  10
459.78363
  20
152.85144
  0
VERTEX
  5
7d2
  8
Layer_4
  10
459.69138
  20
152.72534
  0
VERTEX
  5
7d3
  8
Layer_4
  10
459.62375
  20
152.59387
  0
VERTEX
  5
7d4
  8
Layer_4
  10
459.58215
  20
152.45758
  0
VERTEX
  5
7d5
  8
Layer_4
  10
459.56799
  20
152.3172
  0
SEQEND
  0
POLYLINE
  5
7d7
  8
Layer_4
  62
13
  66
1
  10
0
  20
0
  30
0
  0
VERTEX
  5
7d7
  8
Layer_4
  10
459.56799
  20
152.3172
  0
VERTEX
  5
7d8
  8
Layer_4
  10
459.58215
  20
152.17691
  0
VERTEX
  5
7d9
  8
Layer_4
  10
459.62375
  20
152.04071
  0
VERTEX
  5
7da
  8
Layer_4
  10
459.69138
  20
151.90924
  0
VERTEX
  5
7db
  8
Layer_4
  10
459.78363
  20
151.7832
  0
VERTEX
  5
7dc
  8
Layer_4
  10
460.03668
  20
151.55023
  0
VERTEX
  5
7dd
  8
Layer_4
  10
460.37177
  20
151.34729
  0
VERTEX
  5
7de
  8
Layer_4
  10
460.77792
  20
151.17987
  0
VERTEX
  5
7df
  8
Layer_4
  10
461.24411
  20
151.0535
  0
VERTEX
  5
7e0
  8
Layer_4
  10
461.75928
  20
150.97363
  0
VERTEX
  5
7e1
  8
Layer_4
  10
462.31238
  20
150.9458
  0
SEQEND
  0
POLYLINE
  5
7e3
  8
Layer_4
  62
13
  66
1
  10
0
  20
0
  30
0
  0
VERTEX
  5
7e3
  8
Layer_4
  10
462.31238
  20
145.92746
  0
VERTEX
  5
7e4
  8
Layer_4
  10
461.75928
  20
145.89993
  0
VERTEX
  5
7e5
  8
Layer_4
  10
461.24411
  20
145.82019
  0
VERTEX
  5
7e6
  8
Layer_4
  10
460.77792
  20
145.69379
  0
VERTEX
  5
7e7
  8
Layer_4
  10
460.37177
  20
145.52621
  0
VERTEX
  5
7e8
  8
Layer_4
  10
460.03668
  20
145.32309
  0
VERTEX
  5
7e9
  8
Layer_4
  10
459.78363
  20
145.08994
  0
VERTEX
  5
7ea
  8
Layer_4
  10
459.69138
  20
144.96381
  0
VERTEX
  5
7eb
  8
Layer_4
  10
459.62375
  20
144.83228
  0
VERTEX
  5
7ec
  8
Layer_4
  10
459.58215
  20
144.69604
  0
VERTEX
  5
7ed
  8
Layer_4
  10
459.56799
  20
144.55569
  0
SEQEND
  0
POLYLINE
  5
7ef
  8
Layer_4
  62
13
  66
1
  10
0
  20
0
  30
0
  0
VERTEX
  5
7ef
  8
Layer_4
  10
465.05701
  20
144.55569
  0
VERTEX
  5
7f0
  8
Layer_4
  10
465.04282
  20
144.69601
  0
VERTEX
  5
7f1
  8
Layer_4
  10
465.00119
  20
144.83224
  0
VERTEX
  5
7f2
  8
Layer_4
  10
464.9335
  20
144.96375
  0
VERTEX
  5
7f3
  8
Layer_4
  10
464.84113
  20
145.08978
  0
VERTEX
  5
7f4
  8
Layer_4
  10
464.58792
  20
145.32278
  0
VERTEX
  5
7f5
  8
Layer_4
  10
464.25262
  20
145.52579
  0
VERTEX
  5
7f6
  8
Layer_4
  10
463.84634
  20
145.69327
  0
VERTEX
  5
7f7
  8
Layer_4
  10
463.38016
  20
145.8197
  0
VERTEX
  5
7f8
  8
Layer_4
  10
462.86514
  20
145.8996
  0
VERTEX
  5
7f9
  8
Layer_4
  10
462.31238
  20
145.92746
  0
SEQEND
  0
POLYLINE
  5
7fb
  8
Layer_4
  62
13
  66
1
  10
0
  20
0
  30
0
  0
VERTEX
  5
7fb
  8
Layer_4
  10
462.31238
  20
143.18393
  0
VERTEX
  5
7fc
  8
Layer_4
  10
462.86514
  20
143.21179
  0
VERTEX
  5
7fd
  8
Layer_4
  10
463.38016
  20
143.29169
  0
VERTEX
  5
7fe
  8
Layer_4
  10
463.84634
  20
143.41812
  0
VERTEX
  5
7ff
  8
Layer_4
  10
464.25262
  20
143.5856
  0
VERTEX
  5
800
  8
Layer_4
  10
464.58792
  20
143.7886
  0
VERTEX
  5
801
  8
Layer_4
  10
464.84113
  20
144.02161
  0
VERTEX
  5
802
  8
Layer_4
  10
464.9335
  20
144.14764
  0
VERTEX
  5
803
  8
Layer_4
  10
465.00119
  20
144.27914
  0
VERTEX
  5
804
  8
Layer_4
  10
465.04282
  20
144.41537
  0
VERTEX
  5
805
  8
Layer_4
  10
465.05701
  20
144.55569
  0
SEQEND
  0
POLYLINE
  5
807
  8
Layer_4
  62
13
  66
1
  10
0
  20
0
  30
0
  0
VERTEX
  5
807
  8
Layer_4
  10
459.56799
  20
144.55569
  0
VERTEX
  5
808
  8
Layer_4
  10
459.58215
  20
144.41537
  0
VERTEX
  5
809
  8
Layer_4
  10
459.62375
  20
144.27914
  0
VERTEX
  5
80a
  8
Layer_4
  10
459.69138
  20
144.14764
  0
VERTEX
  5
80b
  8
Layer_4
  10
459.78363
  20
144.02161
  0
VERTEX
  5
80c
  8
Layer_4
  10
460.03668
  20
143.7886
  0
VERTEX
  5
80d
  8
Layer_4
  10
460.37177
  20
143.5856
  0
VERTEX
  5
80e
  8
Layer_4
  10
460.77792
  20
143.41812
  0
VERTEX
  5
80f
  8
Layer_4
  10
461.24411
  20
143.29169
  0
VERTEX
  5
810
  8
Layer_4
  10
461.75928
  20
143.21179
  0
VERTEX
  5
811
  8
Layer_4
  10
462.31238
  20
143.18393
  0
SEQEND
  0
POLYLINE
  5
813
  8
Layer_4
  62
13
  66
1
  10
0
  20
0
  30
0
  0
VERTEX
  5
813
  8
Layer_4
  10
465.05701
  20
47.542175
  0
VERTEX
  5
814
  8
Layer_4
  10
465.04282
  20
47.682556
  0
VERTEX
  5
815
  8
Layer_4
  10
465.00119
  20
47.818848
  0
VERTEX
  5
816
  8
Layer_4
  10
464.9335
  20
47.950378
  0
VERTEX
  5
817
  8
Layer_4
  10
464.84113
  20
48.076447
  0
VERTEX
  5
818
  8
Layer_4
  10
464.58792
  20
48.309479
  0
VERTEX
  5
819
  8
Layer_4
  10
464.25262
  20
48.512451
  0
VERTEX
  5
81a
  8
Layer_4
  10
463.84634
  20
48.679871
  0
VERTEX
  5
81b
  8
Layer_4
  10
463.38016
  20
48.806274
  0
VERTEX
  5
81c
  8
Layer_4
  10
462.86514
  20
48.886108
  0
VERTEX
  5
81d
  8
Layer_4
  10
462.31238
  20
48.913971
  0
SEQEND
  0
POLYLINE
  5
81f
  8
Layer_4
  62
13
  66
1
  10
0
  20
0
  30
0
  0
VERTEX
  5
81f
  8
Layer_4
  10
462.31238
  20
46.170807
  0
VERTEX
  5
820
  8
Layer_4
  10
462.86514
  20
46.198669
  0
VERTEX
  5
821
  8
Layer_4
  10
463.38016
  20
46.278503
  0
VERTEX
  5
822
  8
Layer_4
  10
463.84634
  20
46.404907
  0
VERTEX
  5
823
  8
Layer_4
  10
464.25262
  20
46.572327
  0
VERTEX
  5
824
  8
Layer_4
  10
464.58792
  20
46.775269
  0
VERTEX
  5
825
  8
Layer_4
  10
464.84113
  20
47.008209
  0
VERTEX
  5
826
  8
Layer_4
  10
464.9335
  20
47.134247
  0
VERTEX
  5
827
  8
Layer_4
  10
465.00119
  20
47.265686
  0
VERTEX
  5
828
  8
Layer_4
  10
465.04282
  20
47.401886
  0
VERTEX
  5
829
  8
Layer_4
  10
465.05701
  20
47.542175
  0
SEQEND
  0
POLYLINE
  5
82b
  8
Layer_4
  62
13
  66
1
  10
0
  20
0
  30
0
  0
VERTEX
  5
82b
  8
Layer_4
  10
459.56799
  20
47.542175
  0
VERTEX
  5
82c
  8
Layer_4
  10
459.58215
  20
47.401886
  0
VERTEX
  5
82d
  8
Layer_4
  10
459.62375
  20
47.265686
  0
VERTEX
  5
82e
  8
Layer_4
  10
459.69138
  20
47.134247
  0
VERTEX
  5
82f
  8
Layer_4
  10
459.78363
  20
47.008209
  0
VERTEX
  5
830
  8
Layer_4
  10
460.03668
  20
46.775269
  0
VERTEX
  5
831
  8
Layer_4
  10
460.37177
  20
46.572327
  0
VERTEX
  5
832
  8
Layer_4
  10
460.77792
  20
46.404907
  0
VERTEX
  5
833
  8
Layer_4
  10
461.24411
  20
46.278503
  0
VERTEX
  5
834
  8
Layer_4
  10
461.75928
  20
46.198669
  0
VERTEX
  5
835
  8
Layer_4
  10
462.31238
  20
46.170807
  0
SEQEND
  0
POLYLINE
  5
837
  8
Layer_4
  62
13
  66
1
  10
0
  20
0
  30
0
  0
VERTEX
  5
837
  8
Layer_4
  10
462.31238
  20
48.913971
  0
VERTEX
  5
838
  8
Layer_4
  10
461.75928
  20
48.886108
  0
VERTEX
  5
839
  8
Layer_4
  10
461.24411
  20
48.806274
  0
VERTEX
  5
83a
  8
Layer_4
  10
460.77792
  20
48.679871
  0
VERTEX
  5
83b
  8
Layer_4
  10
460.37177
  20
48.512451
  0
VERTEX
  5
83c
  8
Layer_4
  10
460.03668
  20
48.309479
  0
VERTEX
  5
83d
  8
Layer_4
  10
459.78363
  20
48.076447
  0
VERTEX
  5
83e
  8
Layer_4
  10
459.69138
  20
47.950378
  0
VERTEX
  5
83f
  8
Layer_4
  10
459.62375
  20
47.818848
  0
VERTEX
  5
840
  8
Layer_4
  10
459.58215
  20
47.682556
  0
VERTEX
  5
841
  8
Layer_4
  10
459.56799
  20
47.542175
  0
SEQEND
  0
POLYLINE
  5
843
  8
Layer_4
  62
13
  66
1
  10
0
  20
0
  30
0
  0
VERTEX
  5
843
  8
Layer_4
  10
204.98804
  20
47.542419
  0
VERTEX
  5
844
  8
Layer_4
  10
204.97385
  20
47.6828
  0
VERTEX
  5
845
  8
Layer_4
  10
204.93222
  20
47.819092
  0
VERTEX
  5
846
  8
Layer_4
  10
204.86453
  20
47.950623
  0
VERTEX
  5
847
  8
Layer_4
  10
204.77216
  20
48.076691
  0
VERTEX
  5
848
  8
Layer_4
  10
204.51892
  20
48.309723
  0
VERTEX
  5
849
  8
Layer_4
  10
204.18365
  20
48.512695
  0
VERTEX
  5
84a
  8
Layer_4
  10
203.77737
  20
48.680115
  0
VERTEX
  5
84b
  8
Layer_4
  10
203.31122
  20
48.806519
  0
VERTEX
  5
84c
  8
Layer_4
  10
202.7962
  20
48.886353
  0
VERTEX
  5
84d
  8
Layer_4
  10
202.24341
  20
48.914215
  0
SEQEND
  0
POLYLINE
  5
84f
  8
Layer_4
  62
13
  66
1
  10
0
  20
0
  30
0
  0
VERTEX
  5
84f
  8
Layer_4
  10
202.24341
  20
46.171051
  0
VERTEX
  5
850
  8
Layer_4
  10
202.7962
  20
46.198914
  0
VERTEX
  5
851
  8
Layer_4
  10
203.31122
  20
46.278748
  0
VERTEX
  5
852
  8
Layer_4
  10
203.77737
  20
46.405151
  0
VERTEX
  5
853
  8
Layer_4
  10
204.18365
  20
46.572571
  0
VERTEX
  5
854
  8
Layer_4
  10
204.51892
  20
46.775513
  0
VERTEX
  5
855
  8
Layer_4
  10
204.77216
  20
47.008453
  0
VERTEX
  5
856
  8
Layer_4
  10
204.86453
  20
47.134491
  0
VERTEX
  5
857
  8
Layer_4
  10
204.93222
  20
47.26593
  0
VERTEX
  5
858
  8
Layer_4
  10
204.97385
  20
47.40213
  0
VERTEX
  5
859
  8
Layer_4
  10
204.98804
  20
47.542419
  0
SEQEND
  0
POLYLINE
  5
85b
  8
Layer_4
  62
13
  66
1
  10
0
  20
0
  30
0
  0
VERTEX
  5
85b
  8
Layer_4
  10
199.49902
  20
47.542419
  0
VERTEX
  5
85c
  8
Layer_4
  10
199.51318
  20
47.40213
  0
VERTEX
  5
85d
  8
Layer_4
  10
199.55475
  20
47.26593
  0
VERTEX
  5
85e
  8
Layer_4
  10
199.62238
  20
47.134491
  0
VERTEX
  5
85f
  8
Layer_4
  10
199.71466
  20
47.008453
  0
VERTEX
  5
860
  8
Layer_4
  10
199.96771
  20
46.775513
  0
VERTEX
  5
861
  8
Layer_4
  10
200.3028
  20
46.572571
  0
VERTEX
  5
862
  8
Layer_4
  10
200.70898
  20
46.405151
  0
VERTEX
  5
863
  8
Layer_4
  10
201.17514
  20
46.278748
  0
VERTEX
  5
864
  8
Layer_4
  10
201.69031
  20
46.198914
  0
VERTEX
  5
865
  8
Layer_4
  10
202.24341
  20
46.171051
  0
SEQEND
  0
POLYLINE
  5
867
  8
Layer_4
  62
13
  66
1
  10
0
  20
0
  30
0
  0
VERTEX
  5
867
  8
Layer_4
  10
202.24341
  20
48.914215
  0
VERTEX
  5
868
  8
Layer_4
  10
201.69031
  20
48.886353
  0
VERTEX
  5
869
  8
Layer_4
  10
201.17514
  20
48.806519
  0
VERTEX
  5
86a
  8
Layer_4
  10
200.70898
  20
48.680115
  0
VERTEX
  5
86b
  8
Layer_4
  10
200.3028
  20
48.512695
  0
VERTEX
  5
86c
  8
Layer_4
  10
199.96771
  20
48.309723
  0
VERTEX
  5
86d
  8
Layer_4
  10
199.71466
  20
48.076691
  0
VERTEX
  5
86e
  8
Layer_4
  10
199.62238
  20
47.950623
  0
VERTEX
  5
86f
  8
Layer_4
  10
199.55475
  20
47.819092
  0
VERTEX
  5
870
  8
Layer_4
  10
199.51318
  20
47.6828
  0
VERTEX
  5
871
  8
Layer_4
  10
199.49902
  20
47.542419
  0
SEQEND
  0
POLYLINE
  5
873
  8
Layer_4
  62
13
  66
1
  10
0
  20
0
  30
0
  0
VERTEX
  5
873
  8
Layer_4
  10
202.24341
  20
145.9277
  0
VERTEX
  5
874
  8
Layer_4
  10
201.69031
  20
145.90018
  0
VERTEX
  5
875
  8
Layer_4
  10
201.17514
  20
145.82043
  0
VERTEX
  5
876
  8
Layer_4
  10
200.70898
  20
145.69403
  0
VERTEX
  5
877
  8
Layer_4
  10
200.3028
  20
145.52646
  0
VERTEX
  5
878
  8
Layer_4
  10
199.96771
  20
145.32333
  0
VERTEX
  5
879
  8
Layer_4
  10
199.71466
  20
145.09018
  0
VERTEX
  5
87a
  8
Layer_4
  10
199.62238
  20
144.96405
  0
VERTEX
  5
87b
  8
Layer_4
  10
199.55475
  20
144.83252
  0
VERTEX
  5
87c
  8
Layer_4
  10
199.51318
  20
144.69629
  0
VERTEX
  5
87d
  8
Layer_4
  10
199.49902
  20
144.55594
  0
SEQEND
  0
POLYLINE
  5
87f
  8
Layer_4
  62
13
  66
1
  10
0
  20
0
  30
0
  0
VERTEX
  5
87f
  8
Layer_4
  10
204.98804
  20
144.55594
  0
VERTEX
  5
880
  8
Layer_4
  10
204.97385
  20
144.69626
  0
VERTEX
  5
881
  8
Layer_4
  10
204.93222
  20
144.83249
  0
VERTEX
  5
882
  8
Layer_4
  10
204.86453
  20
144.96399
  0
VERTEX
  5
883
  8
Layer_4
  10
204.77216
  20
145.09003
  0
VERTEX
  5
884
  8
Layer_4
  10
204.51892
  20
145.32303
  0
VERTEX
  5
885
  8
Layer_4
  10
204.18365
  20
145.52603
  0
VERTEX
  5
886
  8
Layer_4
  10
203.77737
  20
145.69351
  0
VERTEX
  5
887
  8
Layer_4
  10
203.31122
  20
145.81995
  0
VERTEX
  5
888
  8
Layer_4
  10
202.7962
  20
145.89984
  0
VERTEX
  5
889
  8
Layer_4
  10
202.24341
  20
145.9277
  0
SEQEND
  0
POLYLINE
  5
88b
  8
Layer_4
  62
13
  66
1
  10
0
  20
0
  30
0
  0
VERTEX
  5
88b
  8
Layer_4
  10
202.24341
  20
143.18417
  0
VERTEX
  5
88c
  8
Layer_4
  10
202.7962
  20
143.21204
  0
VERTEX
  5
88d
  8
Layer_4
  10
203.31122
  20
143.29193
  0
VERTEX
  5
88e
  8
Layer_4
  10
203.77737
  20
143.41837
  0
VERTEX
  5
88f
  8
Layer_4
  10
204.18365
  20
143.58585
  0
VERTEX
  5
890
  8
Layer_4
  10
204.51892
  20
143.78885
  0
VERTEX
  5
891
  8
Layer_4
  10
204.77216
  20
144.02185
  0
VERTEX
  5
892
  8
Layer_4
  10
204.86453
  20
144.14789
  0
VERTEX
  5
893
  8
Layer_4
  10
204.93222
  20
144.27939
  0
VERTEX
  5
894
  8
Layer_4
  10
204.97385
  20
144.41562
  0
VERTEX
  5
895
  8
Layer_4
  10
204.98804
  20
144.55594
  0
SEQEND
  0
POLYLINE
  5
897
  8
Layer_4
  62
13
  66
1
  10
0
  20
0
  30
0
  0
VERTEX
  5
897
  8
Layer_4
  10
199.49902
  20
144.55594
  0
VERTEX
  5
898
  8
Layer_4
  10
199.51318
  20
144.41562
  0
VERTEX
  5
899
  8
Layer_4
  10
199.55475
  20
144.27939
  0
VERTEX
  5
89a
  8
Layer_4
  10
199.62238
  20
144.14789
  0
VERTEX
  5
89b
  8
Layer_4
  10
199.71466
  20
144.02185
  0
VERTEX
  5
89c
  8
Layer_4
  10
199.96771
  20
143.78885
  0
VERTEX
  5
89d
  8
Layer_4
  10
200.3028
  20
143.58585
  0
VERTEX
  5
89e
  8
Layer_4
  10
200.70898
  20
143.41837
  0
VERTEX
  5
89f
  8
Layer_4
  10
201.17514
  20
143.29193
  0
VERTEX
  5
8a0
  8
Layer_4
  10
201.69031
  20
143.21204
  0
VERTEX
  5
8a1
  8
Layer_4
  10
202.24341
  20
143.18417
  0
SEQEND
  0
POLYLINE
  5
8a3
  8
Layer_4
  62
13
  66
1
  10
0
  20
0
  30
0
  0
VERTEX
  5
8a3
  8
Layer_4
  10
204.98804
  20
152.31744
  0
VERTEX
  5
8a4
  8
Layer_4
  10
204.97385
  20
152.45782
  0
VERTEX
  5
8a5
  8
Layer_4
  10
204.93222
  20
152.59412
  0
VERTEX
  5
8a6
  8
Layer_4
  10
204.86453
  20
152.72559
  0
VERTEX
  5
8a7
  8
Layer_4
  10
204.77216
  20
152.85168
  0
VERTEX
  5
8a8
  8
Layer_4
  10
204.51892
  20
153.08469
  0
VERTEX
  5
8a9
  8
Layer_4
  10
204.18365
  20
153.28766
  0
VERTEX
  5
8aa
  8
Layer_4
  10
203.77737
  20
153.45511
  0
VERTEX
  5
8ab
  8
Layer_4
  10
203.31122
  20
153.58151
  0
VERTEX
  5
8ac
  8
Layer_4
  10
202.7962
  20
153.66138
  0
VERTEX
  5
8ad
  8
Layer_4
  10
202.24341
  20
153.68921
  0
SEQEND
  0
POLYLINE
  5
8af
  8
Layer_4
  62
13
  66
1
  10
0
  20
0
  30
0
  0
VERTEX
  5
8af
  8
Layer_4
  10
202.24341
  20
150.94604
  0
VERTEX
  5
8b0
  8
Layer_4
  10
202.7962
  20
150.97388
  0
VERTEX
  5
8b1
  8
Layer_4
  10
203.31122
  20
151.05374
  0
VERTEX
  5
8b2
  8
Layer_4
  10
203.77737
  20
151.18011
  0
VERTEX
  5
8b3
  8
Layer_4
  10
204.18365
  20
151.34753
  0
VERTEX
  5
8b4
  8
Layer_4
  10
204.51892
  20
151.55048
  0
VERTEX
  5
8b5
  8
Layer_4
  10
204.77216
  20
151.78345
  0
VERTEX
  5
8b6
  8
Layer_4
  10
204.86453
  20
151.90948
  0
VERTEX
  5
8b7
  8
Layer_4
  10
204.93222
  20
152.04095
  0
VERTEX
  5
8b8
  8
Layer_4
  10
204.97385
  20
152.17715
  0
VERTEX
  5
8b9
  8
Layer_4
  10
204.98804
  20
152.31744
  0
SEQEND
  0
POLYLINE
  5
8bb
  8
Layer_4
  62
13
  66
1
  10
0
  20
0
  30
0
  0
VERTEX
  5
8bb
  8
Layer_4
  10
202.24341
  20
153.68921
  0
VERTEX
  5
8bc
  8
Layer_4
  10
201.69031
  20
153.66138
  0
VERTEX
  5
8bd
  8
Layer_4
  10
201.17514
  20
153.58151
  0
VERTEX
  5
8be
  8
Layer_4
  10
200.70898
  20
153.45511
  0
VERTEX
  5
8bf
  8
Layer_4
  10
200.3028
  20
153.28766
  0
VERTEX
  5
8c0
  8
Layer_4
  10
199.96771
  20
153.08469
  0
VERTEX
  5
8c1
  8
Layer_4
  10
199.71466
  20
152.85168
  0
VERTEX
  5
8c2
  8
Layer_4
  10
199.62238
  20
152.72559
  0
VERTEX
  5
8c3
  8
Layer_4
  10
199.55475
  20
152.59412
  0
VERTEX
  5
8c4
  8
Layer_4
  10
199.51318
  20
152.45782
  0
VERTEX
  5
8c5
  8
Layer_4
  10
199.49902
  20
152.31744
  0
SEQEND
  0
POLYLINE
  5
8c7
  8
Layer_4
  62
13
  66
1
  10
0
  20
0
  30
0
  0
VERTEX
  5
8c7
  8
Layer_4
  10
199.49902
  20
152.31744
  0
VERTEX
  5
8c8
  8
Layer_4
  10
199.51318
  20
152.17715
  0
VERTEX
  5
8c9
  8
Layer_4
  10
199.55475
  20
152.04095
  0
VERTEX
  5
8ca
  8
Layer_4
  10
199.62238
  20
151.90948
  0
VERTEX
  5
8cb
  8
Layer_4
  10
199.71466
  20
151.78345
  0
VERTEX
  5
8cc
  8
Layer_4
  10
199.96771
  20
151.55048
  0
VERTEX
  5
8cd
  8
Layer_4
  10
200.3028
  20
151.34753
  0
VERTEX
  5
8ce
  8
Layer_4
  10
200.70898
  20
151.18011
  0
VERTEX
  5
8cf
  8
Layer_4
  10
201.17514
  20
151.05374
  0
VERTEX
  5
8d0
  8
Layer_4
  10
201.69031
  20
150.97388
  0
VERTEX
  5
8d1
  8
Layer_4
  10
202.24341
  20
150.94604
  0
SEQEND
  0
POLYLINE
  5
8d3
  8
Layer_4
  62
13
  66
1
  10
0
  20
0
  30
0
  0
VERTEX
  5
8d3
  8
Layer_4
  10
202.24341
  20
255.72107
  0
VERTEX
  5
8d4
  8
Layer_4
  10
202.7962
  20
255.7489
  0
VERTEX
  5
8d5
  8
Layer_4
  10
203.31122
  20
255.82877
  0
VERTEX
  5
8d6
  8
Layer_4
  10
203.77737
  20
255.95515
  0
VERTEX
  5
8d7
  8
Layer_4
  10
204.18365
  20
256.12256
  0
VERTEX
  5
8d8
  8
Layer_4
  10
204.51892
  20
256.3255
  0
VERTEX
  5
8d9
  8
Layer_4
  10
204.77216
  20
256.55844
  0
VERTEX
  5
8da
  8
Layer_4
  10
204.86453
  20
256.68445
  0
VERTEX
  5
8db
  8
Layer_4
  10
204.93222
  20
256.81592
  0
VERTEX
  5
8dc
  8
Layer_4
  10
204.97385
  20
256.95215
  0
VERTEX
  5
8dd
  8
Layer_4
  10
204.98804
  20
257.09244
  0
SEQEND
  0
POLYLINE
  5
8df
  8
Layer_4
  62
13
  66
1
  10
0
  20
0
  30
0
  0
VERTEX
  5
8df
  8
Layer_4
  10
199.49902
  20
257.09244
  0
VERTEX
  5
8e0
  8
Layer_4
  10
199.51318
  20
256.95215
  0
VERTEX
  5
8e1
  8
Layer_4
  10
199.55475
  20
256.81592
  0
VERTEX
  5
8e2
  8
Layer_4
  10
199.62238
  20
256.68445
  0
VERTEX
  5
8e3
  8
Layer_4
  10
199.71466
  20
256.55844
  0
VERTEX
  5
8e4
  8
Layer_4
  10
199.96771
  20
256.3255
  0
VERTEX
  5
8e5
  8
Layer_4
  10
200.3028
  20
256.12256
  0
VERTEX
  5
8e6
  8
Layer_4
  10
200.70898
  20
255.95515
  0
VERTEX
  5
8e7
  8
Layer_4
  10
201.17514
  20
255.82877
  0
VERTEX
  5
8e8
  8
Layer_4
  10
201.69031
  20
255.7489
  0
VERTEX
  5
8e9
  8
Layer_4
  10
202.24341
  20
255.72107
  0
SEQEND
  0
POLYLINE
  5
8eb
  8
Layer_4
  62
13
  66
1
  10
0
  20
0
  30
0
  0
VERTEX
  5
8eb
  8
Layer_4
  10
202.24341
  20
258.4642
  0
VERTEX
  5
8ec
  8
Layer_4
  10
201.69031
  20
258.43637
  0
VERTEX
  5
8ed
  8
Layer_4
  10
201.17514
  20
258.35651
  0
VERTEX
  5
8ee
  8
Layer_4
  10
200.70898
  20
258.2301
  0
VERTEX
  5
8ef
  8
Layer_4
  10
200.3028
  20
258.06268
  0
VERTEX
  5
8f0
  8
Layer_4
  10
199.96771
  20
257.85971
  0
VERTEX
  5
8f1
  8
Layer_4
  10
199.71466
  20
257.62668
  0
VERTEX
  5
8f2
  8
Layer_4
  10
199.62238
  20
257.50061
  0
VERTEX
  5
8f3
  8
Layer_4
  10
199.55475
  20
257.36908
  0
VERTEX
  5
8f4
  8
Layer_4
  10
199.51318
  20
257.23282
  0
VERTEX
  5
8f5
  8
Layer_4
  10
199.49902
  20
257.09244
  0
SEQEND
  0
POLYLINE
  5
8f7
  8
Layer_4
  62
13
  66
1
  10
0
  20
0
  30
0
  0
VERTEX
  5
8f7
  8
Layer_4
  10
204.98804
  20
257.09244
  0
VERTEX
  5
8f8
  8
Layer_4
  10
204.97385
  20
257.23282
  0
VERTEX
  5
8f9
  8
Layer_4
  10
204.93222
  20
257.36908
  0
VERTEX
  5
8fa
  8
Layer_4
  10
204.86453
  20
257.50061
  0
VERTEX
  5
8fb
  8
Layer_4
  10
204.77216
  20
257.62668
  0
VERTEX
  5
8fc
  8
Layer_4
  10
204.51892
  20
257.85971
  0
VERTEX
  5
8fd
  8
Layer_4
  10
204.18365
  20
258.06268
  0
VERTEX
  5
8fe
  8
Layer_4
  10
203.77737
  20
258.2301
  0
VERTEX
  5
8ff
  8
Layer_4
  10
203.31122
  20
258.35651
  0
VERTEX
  5
900
  8
Layer_4
  10
202.7962
  20
258.43637
  0
VERTEX
  5
901
  8
Layer_4
  10
202.24341
  20
258.4642
  0
SEQEND
  0
POLYLINE
  5
903
  8
Layer_4
  62
13
  66
1
  10
0
  20
0
  30
0
  0
VERTEX
  5
903
  8
Layer_4
  10
202.24341
  20
263.48141
  0
VERTEX
  5
904
  8
Layer_4
  10
202.7962
  20
263.50934
  0
VERTEX
  5
905
  8
Layer_4
  10
203.31122
  20
263.58932
  0
VERTEX
  5
906
  8
Layer_4
  10
203.77737
  20
263.71591
  0
VERTEX
  5
907
  8
Layer_4
  10
204.18365
  20
263.88351
  0
VERTEX
  5
908
  8
Layer_4
  10
204.51892
  20
264.08661
  0
VERTEX
  5
909
  8
Layer_4
  10
204.77216
  20
264.31958
  0
VERTEX
  5
90a
  8
Layer_4
  10
204.86453
  20
264.44559
  0
VERTEX
  5
90b
  8
Layer_4
  10
204.93222
  20
264.57697
  0
VERTEX
  5
90c
  8
Layer_4
  10
204.97385
  20
264.71307
  0
VERTEX
  5
90d
  8
Layer_4
  10
204.98804
  20
264.85318
  0
SEQEND
  0
POLYLINE
  5
90f
  8
Layer_4
  62
13
  66
1
  10
0
  20
0
  30
0
  0
VERTEX
  5
90f
  8
Layer_4
  10
199.49902
  20
264.85318
  0
VERTEX
  5
910
  8
Layer_4
  10
199.51318
  20
264.71307
  0
VERTEX
  5
911
  8
Layer_4
  10
199.55475
  20
264.57697
  0
VERTEX
  5
912
  8
Layer_4
  10
199.62238
  20
264.44559
  0
VERTEX
  5
913
  8
Layer_4
  10
199.71466
  20
264.31958
  0
VERTEX
  5
914
  8
Layer_4
  10
199.96771
  20
264.08661
  0
VERTEX
  5
915
  8
Layer_4
  10
200.3028
  20
263.88351
  0
VERTEX
  5
916
  8
Layer_4
  10
200.70898
  20
263.71591
  0
VERTEX
  5
917
  8
Layer_4
  10
201.17514
  20
263.58932
  0
VERTEX
  5
918
  8
Layer_4
  10
201.69031
  20
263.50934
  0
VERTEX
  5
919
  8
Layer_4
  10
202.24341
  20
263.48141
  0
SEQEND
  0
POLYLINE
  5
91b
  8
Layer_4
  62
13
  66
1
  10
0
  20
0
  30
0
  0
VERTEX
  5
91b
  8
Layer_4
  10
202.24341
  20
266.22607
  0
VERTEX
  5
91c
  8
Layer_4
  10
201.69031
  20
266.19818
  0
VERTEX
  5
91d
  8
Layer_4
  10
201.17514
  20
266.11813
  0
VERTEX
  5
91e
  8
Layer_4
  10
200.70898
  20
265.99152
  0
VERTEX
  5
91f
  8
Layer_4
  10
200.3028
  20
265.82385
  0
VERTEX
  5
920
  8
Layer_4
  10
199.96771
  20
265.62061
  0
VERTEX
  5
921
  8
Layer_4
  10
199.71466
  20
265.38742
  0
VERTEX
  5
922
  8
Layer_4
  10
199.62238
  20
265.26129
  0
VERTEX
  5
923
  8
Layer_4
  10
199.55475
  20
265.12976
  0
VERTEX
  5
924
  8
Layer_4
  10
199.51318
  20
264.99347
  0
VERTEX
  5
925
  8
Layer_4
  10
199.49902
  20
264.85318
  0
SEQEND
  0
POLYLINE
  5
927
  8
Layer_4
  62
13
  66
1
  10
0
  20
0
  30
0
  0
VERTEX
  5
927
  8
Layer_4
  10
204.98804
  20
264.85318
  0
VERTEX
  5
928
  8
Layer_4
  10
204.97385
  20
264.99347
  0
VERTEX
  5
929
  8
Layer_4
  10
204.93222
  20
265.12976
  0
VERTEX
  5
92a
  8
Layer_4
  10
204.86453
  20
265.26129
  0
VERTEX
  5
92b
  8
Layer_4
  10
204.77216
  20
265.38742
  0
VERTEX
  5
92c
  8
Layer_4
  10
204.51892
  20
265.62061
  0
VERTEX
  5
92d
  8
Layer_4
  10
204.18365
  20
265.82385
  0
VERTEX
  5
92e
  8
Layer_4
  10
203.77737
  20
265.99152
  0
VERTEX
  5
92f
  8
Layer_4
  10
203.31122
  20
266.11813
  0
VERTEX
  5
930
  8
Layer_4
  10
202.7962
  20
266.19818
  0
VERTEX
  5
931
  8
Layer_4
  10
202.24341
  20
266.22607
  0
SEQEND
  0
POLYLINE
  5
933
  8
Layer_4
  62
13
  66
1
  10
0
  20
0
  30
0
  0
VERTEX
  5
933
  8
Layer_4
  10
204.98804
  20
361.86743
  0
VERTEX
  5
934
  8
Layer_4
  10
204.97385
  20
362.00781
  0
VERTEX
  5
935
  8
Layer_4
  10
204.93222
  20
362.1441
  0
VERTEX
  5
936
  8
Layer_4
  10
204.86453
  20
362.27563
  0
VERTEX
  5
937
  8
Layer_4
  10
204.77216
  20
362.40167
  0
VERTEX
  5
938
  8
Layer_4
  10
204.51892
  20
362.63474
  0
VERTEX
  5
939
  8
Layer_4
  10
204.18365
  20
362.83771
  0
VERTEX
  5
93a
  8
Layer_4
  10
203.77737
  20
363.00516
  0
VERTEX
  5
93b
  8
Layer_4
  10
203.31122
  20
363.13153
  0
VERTEX
  5
93c
  8
Layer_4
  10
202.7962
  20
363.21143
  0
VERTEX
  5
93d
  8
Layer_4
  10
202.24341
  20
363.23926
  0
SEQEND
  0
POLYLINE
  5
93f
  8
Layer_4
  62
13
  66
1
  10
0
  20
0
  30
0
  0
VERTEX
  5
93f
  8
Layer_4
  10
202.24341
  20
360.49609
  0
VERTEX
  5
940
  8
Layer_4
  10
202.7962
  20
360.52393
  0
VERTEX
  5
941
  8
Layer_4
  10
203.31122
  20
360.60379
  0
VERTEX
  5
942
  8
Layer_4
  10
203.77737
  20
360.73016
  0
VERTEX
  5
943
  8
Layer_4
  10
204.18365
  20
360.89758
  0
VERTEX
  5
944
  8
Layer_4
  10
204.51892
  20
361.10052
  0
VERTEX
  5
945
  8
Layer_4
  10
204.77216
  20
361.33347
  0
VERTEX
  5
946
  8
Layer_4
  10
204.86453
  20
361.45947
  0
VERTEX
  5
947
  8
Layer_4
  10
204.93222
  20
361.59094
  0
VERTEX
  5
948
  8
Layer_4
  10
204.97385
  20
361.72714
  0
VERTEX
  5
949
  8
Layer_4
  10
204.98804
  20
361.86743
  0
SEQEND
  0
POLYLINE
  5
94b
  8
Layer_4
  62
13
  66
1
  10
0
  20
0
  30
0
  0
VERTEX
  5
94b
  8
Layer_4
  10
199.49902
  20
361.86743
  0
VERTEX
  5
94c
  8
Layer_4
  10
199.51318
  20
361.72714
  0
VERTEX
  5
94d
  8
Layer_4
  10
199.55475
  20
361.59094
  0
VERTEX
  5
94e
  8
Layer_4
  10
199.62238
  20
361.45947
  0
VERTEX
  5
94f
  8
Layer_4
  10
199.71466
  20
361.33347
  0
VERTEX
  5
950
  8
Layer_4
  10
199.96771
  20
361.10052
  0
VERTEX
  5
951
  8
Layer_4
  10
200.3028
  20
360.89758
  0
VERTEX
  5
952
  8
Layer_4
  10
200.70898
  20
360.73016
  0
VERTEX
  5
953
  8
Layer_4
  10
201.17514
  20
360.60379
  0
VERTEX
  5
954
  8
Layer_4
  10
201.69031
  20
360.52393
  0
VERTEX
  5
955
  8
Layer_4
  10
202.24341
  20
360.49609
  0
SEQEND
  0
POLYLINE
  5
957
  8
Layer_4
  62
13
  66
1
  10
0
  20
0
  30
0
  0
VERTEX
  5
957
  8
Layer_4
  10
202.24341
  20
363.23926
  0
VERTEX
  5
958
  8
Layer_4
  10
201.69031
  20
363.21143
  0
VERTEX
  5
959
  8
Layer_4
  10
201.17514
  20
363.13153
  0
VERTEX
  5
95a
  8
Layer_4
  10
200.70898
  20
363.00516
  0
VERTEX
  5
95b
  8
Layer_4
  10
200.3028
  20
362.83771
  0
VERTEX
  5
95c
  8
Layer_4
  10
199.96771
  20
362.63474
  0
VERTEX
  5
95d
  8
Layer_4
  10
199.71466
  20
362.40167
  0
VERTEX
  5
95e
  8
Layer_4
  10
199.62238
  20
362.27563
  0
VERTEX
  5
95f
  8
Layer_4
  10
199.55475
  20
362.1441
  0
VERTEX
  5
960
  8
Layer_4
  10
199.51318
  20
362.00781
  0
VERTEX
  5
961
  8
Layer_4
  10
199.49902
  20
361.86743
  0
SEQEND
  0
POLYLINE
  5
963
  8
Layer_4
  62
13
  66
1
  10
0
  20
0
  30
0
  0
VERTEX
  5
963
  8
Layer_4
  10
204.98804
  20
369.62933
  0
VERTEX
  5
964
  8
Layer_4
  10
204.97385
  20
369.48901
  0
VERTEX
  5
965
  8
Layer_4
  10
204.93222
  20
369.35275
  0
VERTEX
  5
966
  8
Layer_4
  10
204.86453
  20
369.22119
  0
VERTEX
  5
967
  8
Layer_4
  10
204.77216
  20
369.09509
  0
VERTEX
  5
968
  8
Layer_4
  10
204.51892
  20
368.86188
  0
VERTEX
  5
969
  8
Layer_4
  10
204.18365
  20
368.65866
  0
VERTEX
  5
96a
  8
Layer_4
  10
203.77737
  20
368.49097
  0
VERTEX
  5
96b
  8
Layer_4
  10
203.31122
  20
368.36435
  0
VERTEX
  5
96c
  8
Layer_4
  10
202.7962
  20
368.2843
  0
VERTEX
  5
96d
  8
Layer_4
  10
202.24341
  20
368.25641
  0
SEQEND
  0
POLYLINE
  5
96f
  8
Layer_4
  62
13
  66
1
  10
0
  20
0
  30
0
  0
VERTEX
  5
96f
  8
Layer_4
  10
202.24341
  20
371.0011
  0
VERTEX
  5
970
  8
Layer_4
  10
202.7962
  20
370.97321
  0
VERTEX
  5
971
  8
Layer_4
  10
203.31122
  20
370.89319
  0
VERTEX
  5
972
  8
Layer_4
  10
203.77737
  20
370.7666
  0
VERTEX
  5
973
  8
Layer_4
  10
204.18365
  20
370.599
  0
VERTEX
  5
974
  8
Layer_4
  10
204.51892
  20
370.39594
  0
VERTEX
  5
975
  8
Layer_4
  10
204.77216
  20
370.1629
  0
VERTEX
  5
976
  8
Layer_4
  10
204.86453
  20
370.03693
  0
VERTEX
  5
977
  8
Layer_4
  10
204.93222
  20
369.90555
  0
VERTEX
  5
978
  8
Layer_4
  10
204.97385
  20
369.76944
  0
VERTEX
  5
979
  8
Layer_4
  10
204.98804
  20
369.62933
  0
SEQEND
  0
POLYLINE
  5
97b
  8
Layer_4
  62
13
  66
1
  10
0
  20
0
  30
0
  0
VERTEX
  5
97b
  8
Layer_4
  10
199.49902
  20
369.62817
  0
VERTEX
  5
97c
  8
Layer_4
  10
199.51318
  20
369.76849
  0
VERTEX
  5
97d
  8
Layer_4
  10
199.55475
  20
369.90475
  0
VERTEX
  5
97e
  8
Layer_4
  10
199.62238
  20
370.03632
  0
VERTEX
  5
97f
  8
Layer_4
  10
199.71466
  20
370.16241
  0
VERTEX
  5
980
  8
Layer_4
  10
199.96771
  20
370.39563
  0
VERTEX
  5
981
  8
Layer_4
  10
200.3028
  20
370.59885
  0
VERTEX
  5
982
  8
Layer_4
  10
200.70898
  20
370.76654
  0
VERTEX
  5
983
  8
Layer_4
  10
201.17514
  20
370.89316
  0
VERTEX
  5
984
  8
Layer_4
  10
201.69031
  20
370.97321
  0
VERTEX
  5
985
  8
Layer_4
  10
202.24341
  20
371.0011
  0
SEQEND
  0
POLYLINE
  5
987
  8
Layer_4
  62
13
  66
1
  10
0
  20
0
  30
0
  0
VERTEX
  5
987
  8
Layer_4
  10
202.24341
  20
368.25641
  0
VERTEX
  5
988
  8
Layer_4
  10
201.69031
  20
368.2843
  0
VERTEX
  5
989
  8
Layer_4
  10
201.17514
  20
368.36432
  0
VERTEX
  5
98a
  8
Layer_4
  10
200.70898
  20
368.49091
  0
VERTEX
  5
98b
  8
Layer_4
  10
200.3028
  20
368.65851
  0
VERTEX
  5
98c
  8
Layer_4
  10
199.96771
  20
368.86157
  0
VERTEX
  5
98d
  8
Layer_4
  10
199.71466
  20
369.0946
  0
VERTEX
  5
98e
  8
Layer_4
  10
199.62238
  20
369.22058
  0
VERTEX
  5
98f
  8
Layer_4
  10
199.55475
  20
369.35196
  0
VERTEX
  5
990
  8
Layer_4
  10
199.51318
  20
369.48807
  0
VERTEX
  5
991
  8
Layer_4
  10
199.49902
  20
369.62817
  0
SEQEND
  0
POLYLINE
  5
993
  8
Layer_4
  62
13
  66
1
  10
0
  20
0
  30
0
  0
VERTEX
  5
993
  8
Layer_4
  10
202.24341
  20
475.77612
  0
VERTEX
  5
994
  8
Layer_4
  10
202.7962
  20
475.74823
  0
VERTEX
  5
995
  8
Layer_4
  10
203.31122
  20
475.66818
  0
VERTEX
  5
996
  8
Layer_4
  10
203.77737
  20
475.5416
  0
VERTEX
  5
997
  8
Layer_4
  10
204.18365
  20
475.37396
  0
VERTEX
  5
998
  8
Layer_4
  10
204.51892
  20
475.1709
  0
VERTEX
  5
999
  8
Layer_4
  10
204.77216
  20
474.9379
  0
VERTEX
  5
99a
  8
Layer_4
  10
204.86453
  20
474.81189
  0
VERTEX
  5
99b
  8
Layer_4
  10
204.93222
  20
474.68051
  0
VERTEX
  5
99c
  8
Layer_4
  10
204.97385
  20
474.5444
  0
VERTEX
  5
99d
  8
Layer_4
  10
204.98804
  20
474.4043
  0
SEQEND
  0
POLYLINE
  5
99f
  8
Layer_4
  62
13
  66
1
  10
0
  20
0
  30
0
  0
VERTEX
  5
99f
  8
Layer_4
  10
199.49902
  20
474.4032
  0
VERTEX
  5
9a0
  8
Layer_4
  10
199.51318
  20
474.54349
  0
VERTEX
  5
9a1
  8
Layer_4
  10
199.55475
  20
474.67978
  0
VERTEX
  5
9a2
  8
Layer_4
  10
199.62238
  20
474.81131
  0
VERTEX
  5
9a3
  8
Layer_4
  10
199.71466
  20
474.93741
  0
VERTEX
  5
9a4
  8
Layer_4
  10
199.96771
  20
475.17062
  0
VERTEX
  5
9a5
  8
Layer_4
  10
200.3028
  20
475.37384
  0
VERTEX
  5
9a6
  8
Layer_4
  10
200.70898
  20
475.54153
  0
VERTEX
  5
9a7
  8
Layer_4
  10
201.17514
  20
475.66818
  0
VERTEX
  5
9a8
  8
Layer_4
  10
201.69031
  20
475.7482
  0
VERTEX
  5
9a9
  8
Layer_4
  10
202.24341
  20
475.77612
  0
SEQEND
  0
POLYLINE
  5
9ab
  8
Layer_4
  62
13
  66
1
  10
0
  20
0
  30
0
  0
VERTEX
  5
9ab
  8
Layer_4
  10
202.24341
  20
473.03137
  0
VERTEX
  5
9ac
  8
Layer_4
  10
201.69031
  20
473.05927
  0
VERTEX
  5
9ad
  8
Layer_4
  10
201.17514
  20
473.13931
  0
VERTEX
  5
9ae
  8
Layer_4
  10
200.70898
  20
473.2659
  0
VERTEX
  5
9af
  8
Layer_4
  10
200.3028
  20
473.43353
  0
VERTEX
  5
9b0
  8
Layer_4
  10
199.96771
  20
473.6366
  0
VERTEX
  5
9b1
  8
Layer_4
  10
199.71466
  20
473.8696
  0
VERTEX
  5
9b2
  8
Layer_4
  10
199.62238
  20
473.99561
  0
VERTEX
  5
9b3
  8
Layer_4
  10
199.55475
  20
474.12698
  0
VERTEX
  5
9b4
  8
Layer_4
  10
199.51318
  20
474.26309
  0
VERTEX
  5
9b5
  8
Layer_4
  10
199.49902
  20
474.4032
  0
SEQEND
  0
POLYLINE
  5
9b7
  8
Layer_4
  62
13
  66
1
  10
0
  20
0
  30
0
  0
VERTEX
  5
9b7
  8
Layer_4
  10
204.98804
  20
474.4043
  0
VERTEX
  5
9b8
  8
Layer_4
  10
204.97385
  20
474.26401
  0
VERTEX
  5
9b9
  8
Layer_4
  10
204.93222
  20
474.12772
  0
VERTEX
  5
9ba
  8
Layer_4
  10
204.86453
  20
473.99619
  0
VERTEX
  5
9bb
  8
Layer_4
  10
204.77216
  20
473.87009
  0
VERTEX
  5
9bc
  8
Layer_4
  10
204.51892
  20
473.63687
  0
VERTEX
  5
9bd
  8
Layer_4
  10
204.18365
  20
473.43365
  0
VERTEX
  5
9be
  8
Layer_4
  10
203.77737
  20
473.26596
  0
VERTEX
  5
9bf
  8
Layer_4
  10
203.31122
  20
473.13931
  0
VERTEX
  5
9c0
  8
Layer_4
  10
202.7962
  20
473.0593
  0
VERTEX
  5
9c1
  8
Layer_4
  10
202.24341
  20
473.03137
  0
SEQEND
  0
POLYLINE
  5
9c3
  8
Layer_2
  62
254
  66
1
  10
0
  20
0
  30
0
  0
VERTEX
  5
9c3
  8
Layer_2
  10
93.629089
  20
148.40009
  0
VERTEX
  5
9c4
  8
Layer_2
  10
198.40411
  20
148.40009
  0
SEQEND
  0
POLYLINE
  5
9c6
  8
Layer_3
  62
138
  66
1
  10
0
  20
0
  30
0
  0
VERTEX
  5
9c6
  8
Layer_3
  10
190.64337
  20
260.93658
  0
VERTEX
  5
9c7
  8
Layer_3
  10
190.64337
  20
253.17517
  0
SEQEND
  0
POLYLINE
  5
9c9
  8
Layer_3
  62
138
  66
1
  10
0
  20
0
  30
0
  0
VERTEX
  5
9c9
  8
Layer_3
  10
190.64337
  20
253.17517
  0
VERTEX
  5
9ca
  8
Layer_3
  10
198.40411
  20
253.17517
  0
SEQEND
  0
POLYLINE
  5
9cc
  8
Layer_4
  62
13
  66
1
  10
0
  20
0
  30
0
  0
VERTEX
  5
9cc
  8
Layer_4
  10
197.26788
  20
257.05603
  0
VERTEX
  5
9cd
  8
Layer_4
  10
197.25372
  20
257.19632
  0
VERTEX
  5
9ce
  8
Layer_4
  10
197.21213
  20
257.33255
  0
VERTEX
  5
9cf
  8
Layer_4
  10
197.1445
  20
257.46405
  0
VERTEX
  5
9d0
  8
Layer_4
  10
197.05219
  20
257.59009
  0
VERTEX
  5
9d1
  8
Layer_4
  10
196.79913
  20
257.82312
  0
VERTEX
  5
9d2
  8
Layer_4
  10
196.46405
  20
258.02612
  0
VERTEX
  5
9d3
  8
Layer_4
  10
196.05798
  20
258.1936
  0
VERTEX
  5
9d4
  8
Layer_4
  10
195.59198
  20
258.32004
  0
VERTEX
  5
9d5
  8
Layer_4
  10
195.07706
  20
258.39996
  0
VERTEX
  5
9d6
  8
Layer_4
  10
194.52432
  20
258.4278
  0
SEQEND
  0
POLYLINE
  5
9d8
  8
Layer_4
  62
13
  66
1
  10
0
  20
0
  30
0
  0
VERTEX
  5
9d8
  8
Layer_4
  10
194.52432
  20
258.4278
  0
VERTEX
  5
9d9
  8
Layer_4
  10
193.97122
  20
258.39996
  0
VERTEX
  5
9da
  8
Layer_4
  10
193.45609
  20
258.32004
  0
VERTEX
  5
9db
  8
Layer_4
  10
192.98993
  20
258.1936
  0
VERTEX
  5
9dc
  8
Layer_4
  10
192.58377
  20
258.02612
  0
VERTEX
  5
9dd
  8
Layer_4
  10
192.24866
  20
257.82312
  0
VERTEX
  5
9de
  8
Layer_4
  10
191.99567
  20
257.59009
  0
VERTEX
  5
9df
  8
Layer_4
  10
191.90338
  20
257.46405
  0
VERTEX
  5
9e0
  8
Layer_4
  10
191.83575
  20
257.33255
  0
VERTEX
  5
9e1
  8
Layer_4
  10
191.79416
  20
257.19632
  0
VERTEX
  5
9e2
  8
Layer_4
  10
191.78
  20
257.05603
  0
SEQEND
  0
POLYLINE
  5
9e4
  8
Layer_4
  62
13
  66
1
  10
0
  20
0
  30
0
  0
VERTEX
  5
9e4
  8
Layer_4
  10
191.78
  20
257.05603
  0
VERTEX
  5
9e5
  8
Layer_4
  10
191.79416
  20
256.91574
  0
VERTEX
  5
9e6
  8
Layer_4
  10
191.83575
  20
256.77951
  0
VERTEX
  5
9e7
  8
Layer_4
  10
191.90338
  20
256.64801
  0
VERTEX
  5
9e8
  8
Layer_4
  10
191.99567
  20
256.52197
  0
VERTEX
  5
9e9
  8
Layer_4
  10
192.24866
  20
256.28894
  0
VERTEX
  5
9ea
  8
Layer_4
  10
192.58377
  20
256.08594
  0
VERTEX
  5
9eb
  8
Layer_4
  10
192.98993
  20
255.91846
  0
VERTEX
  5
9ec
  8
Layer_4
  10
193.45609
  20
255.79202
  0
VERTEX
  5
9ed
  8
Layer_4
  10
193.97122
  20
255.71211
  0
VERTEX
  5
9ee
  8
Layer_4
  10
194.52432
  20
255.68427
  0
SEQEND
  0
POLYLINE
  5
9f0
  8
Layer_4
  62
13
  66
1
  10
0
  20
0
  30
0
  0
VERTEX
  5
9f0
  8
Layer_4
  10
194.52432
  20
255.68427
  0
VERTEX
  5
9f1
  8
Layer_4
  10
195.07706
  20
255.71211
  0
VERTEX
  5
9f2
  8
Layer_4
  10
195.59198
  20
255.79202
  0
VERTEX
  5
9f3
  8
Layer_4
  10
196.05798
  20
255.91846
  0
VERTEX
  5
9f4
  8
Layer_4
  10
196.46405
  20
256.08594
  0
VERTEX
  5
9f5
  8
Layer_4
  10
196.79913
  20
256.28894
  0
VERTEX
  5
9f6
  8
Layer_4
  10
197.05219
  20
256.52197
  0
VERTEX
  5
9f7
  8
Layer_4
  10
197.1445
  20
256.64801
  0
VERTEX
  5
9f8
  8
Layer_4
  10
197.21213
  20
256.77951
  0
VERTEX
  5
9f9
  8
Layer_4
  10
197.25372
  20
256.91574
  0
VERTEX
  5
9fa
  8
Layer_4
  10
197.26788
  20
257.05603
  0
SEQEND
  0
POLYLINE
  5
9fc
  8
Layer_3
  62
138
  66
1
  10
0
  20
0
  30
0
  0
VERTEX
  5
9fc
  8
Layer_3
  10
190.64337
  20
156.16162
  0
VERTEX
  5
9fd
  8
Layer_3
  10
190.64337
  20
148.40009
  0
SEQEND
  0
POLYLINE
  5
9ff
  8
Layer_3
  62
138
  66
1
  10
0
  20
0
  30
0
  0
VERTEX
  5
9ff
  8
Layer_3
  10
190.64337
  20
148.40009
  0
VERTEX
  5
a00
  8
Layer_3
  10
198.40411
  20
148.40009
  0
SEQEND
  0
POLYLINE
  5
a02
  8
Layer_3
  62
138
  66
1
  10
0
  20
0
  30
0
  0
VERTEX
  5
a02
  8
Layer_3
  10
198.40411
  20
156.16162
  0
VERTEX
  5
a03
  8
Layer_3
  10
190.64337
  20
156.16162
  0
SEQEND
  0
POLYLINE
  5
a05
  8
Layer_4
  62
13
  66
1
  10
0
  20
0
  30
0
  0
VERTEX
  5
a05
  8
Layer_4
  10
197.26788
  20
152.28101
  0
VERTEX
  5
a06
  8
Layer_4
  10
197.25372
  20
152.42133
  0
VERTEX
  5
a07
  8
Layer_4
  10
197.21213
  20
152.55756
  0
VERTEX
  5
a08
  8
Layer_4
  10
197.1445
  20
152.68903
  0
VERTEX
  5
a09
  8
Layer_4
  10
197.05219
  20
152.81512
  0
VERTEX
  5
a0a
  8
Layer_4
  10
196.79913
  20
153.04816
  0
VERTEX
  5
a0b
  8
Layer_4
  10
196.46405
  20
153.25116
  0
VERTEX
  5
a0c
  8
Layer_4
  10
196.05798
  20
153.41864
  0
VERTEX
  5
a0d
  8
Layer_4
  10
195.59198
  20
153.54507
  0
VERTEX
  5
a0e
  8
Layer_4
  10
195.07706
  20
153.625
  0
VERTEX
  5
a0f
  8
Layer_4
  10
194.52432
  20
153.65283
  0
SEQEND
  0
POLYLINE
  5
a11
  8
Layer_4
  62
13
  66
1
  10
0
  20
0
  30
0
  0
VERTEX
  5
a11
  8
Layer_4
  10
194.52432
  20
153.65283
  0
VERTEX
  5
a12
  8
Layer_4
  10
193.97122
  20
153.625
  0
VERTEX
  5
a13
  8
Layer_4
  10
193.45609
  20
153.54507
  0
VERTEX
  5
a14
  8
Layer_4
  10
192.98993
  20
153.41864
  0
VERTEX
  5
a15
  8
Layer_4
  10
192.58377
  20
153.25116
  0
VERTEX
  5
a16
  8
Layer_4
  10
192.24866
  20
153.04816
  0
VERTEX
  5
a17
  8
Layer_4
  10
191.99567
  20
152.81512
  0
VERTEX
  5
a18
  8
Layer_4
  10
191.90338
  20
152.68903
  0
VERTEX
  5
a19
  8
Layer_4
  10
191.83575
  20
152.55756
  0
VERTEX
  5
a1a
  8
Layer_4
  10
191.79416
  20
152.42133
  0
VERTEX
  5
a1b
  8
Layer_4
  10
191.78
  20
152.28101
  0
SEQEND
  0
POLYLINE
  5
a1d
  8
Layer_4
  62
13
  66
1
  10
0
  20
0
  30
0
  0
VERTEX
  5
a1d
  8
Layer_4
  10
191.78
  20
152.28101
  0
VERTEX
  5
a1e
  8
Layer_4
  10
191.79416
  20
152.14072
  0
VERTEX
  5
a1f
  8
Layer_4
  10
191.83575
  20
152.00452
  0
VERTEX
  5
a20
  8
Layer_4
  10
191.90338
  20
151.87305
  0
VERTEX
  5
a21
  8
Layer_4
  10
191.99567
  20
151.74698
  0
VERTEX
  5
a22
  8
Layer_4
  10
192.24866
  20
151.51398
  0
VERTEX
  5
a23
  8
Layer_4
  10
192.58377
  20
151.31097
  0
VERTEX
  5
a24
  8
Layer_4
  10
192.98993
  20
151.14349
  0
VERTEX
  5
a25
  8
Layer_4
  10
193.45609
  20
151.01706
  0
VERTEX
  5
a26
  8
Layer_4
  10
193.97122
  20
150.93713
  0
VERTEX
  5
a27
  8
Layer_4
  10
194.52432
  20
150.9093
  0
SEQEND
  0
POLYLINE
  5
a29
  8
Layer_4
  62
13
  66
1
  10
0
  20
0
  30
0
  0
VERTEX
  5
a29
  8
Layer_4
  10
194.52432
  20
150.9093
  0
VERTEX
  5
a2a
  8
Layer_4
  10
195.07706
  20
150.93713
  0
VERTEX
  5
a2b
  8
Layer_4
  10
195.59198
  20
151.01706
  0
VERTEX
  5
a2c
  8
Layer_4
  10
196.05798
  20
151.14349
  0
VERTEX
  5
a2d
  8
Layer_4
  10
196.46405
  20
151.31097
  0
VERTEX
  5
a2e
  8
Layer_4
  10
196.79913
  20
151.51398
  0
VERTEX
  5
a2f
  8
Layer_4
  10
197.05219
  20
151.74698
  0
VERTEX
  5
a30
  8
Layer_4
  10
197.1445
  20
151.87305
  0
VERTEX
  5
a31
  8
Layer_4
  10
197.21213
  20
152.00452
  0
VERTEX
  5
a32
  8
Layer_4
  10
197.25372
  20
152.14072
  0
VERTEX
  5
a33
  8
Layer_4
  10
197.26788
  20
152.28101
  0
SEQEND
  0
POLYLINE
  5
a35
  8
Layer_3
  62
138
  66
1
  10
0
  20
0
  30
0
  0
VERTEX
  5
a35
  8
Layer_3
  10
190.64337
  20
257.05603
  0
VERTEX
  5
a36
  8
Layer_3
  10
190.64337
  20
156.16162
  0
SEQEND
  0
POLYLINE
  5
a38
  8
Layer_3
  62
138
  66
1
  10
0
  20
0
  30
0
  0
VERTEX
  5
a38
  8
Layer_3
  10
190.64337
  20
156.16162
  0
VERTEX
  5
a39
  8
Layer_3
  10
147.95685
  20
156.16162
  0
SEQEND
  0
POLYLINE
  5
a3b
  8
Layer_3
  62
138
  66
1
  10
0
  20
0
  30
0
  0
VERTEX
  5
a3b
  8
Layer_3
  10
147.95685
  20
156.16162
  0
VERTEX
  5
a3c
  8
Layer_3
  10
147.95685
  20
257.05603
  0
SEQEND
  0
POLYLINE
  5
a3e
  8
Layer_3
  62
138
  66
1
  10
0
  20
0
  30
0
  0
VERTEX
  5
a3e
  8
Layer_3
  10
147.95685
  20
257.05603
  0
VERTEX
  5
a3f
  8
Layer_3
  10
190.64337
  20
257.05603
  0
SEQEND
  0
POLYLINE
  5
a41
  8
Layer_3
  62
138
  66
1
  10
0
  20
0
  30
0
  0
VERTEX
  5
a41
  8
Layer_3
  10
147.95685
  20
156.16162
  0
VERTEX
  5
a42
  8
Layer_3
  10
147.95685
  20
257.05603
  0
SEQEND
  0
POLYLINE
  5
a44
  8
Layer_3
  62
138
  66
1
  10
0
  20
0
  30
0
  0
VERTEX
  5
a44
  8
Layer_3
  10
147.95685
  20
257.05603
  0
VERTEX
  5
a45
  8
Layer_3
  10
144.07635
  20
257.05603
  0
SEQEND
  0
POLYLINE
  5
a47
  8
Layer_3
  62
138
  66
1
  10
0
  20
0
  30
0
  0
VERTEX
  5
a47
  8
Layer_3
  10
144.07635
  20
156.16162
  0
VERTEX
  5
a48
  8
Layer_3
  10
147.95685
  20
156.16162
  0
SEQEND
  0
POLYLINE
  5
a4a
  8
Layer_3
  62
138
  66
1
  10
0
  20
0
  30
0
  0
VERTEX
  5
a4a
  8
Layer_3
  10
144.07635
  20
156.16162
  0
VERTEX
  5
a4b
  8
Layer_3
  10
101.39063
  20
156.16162
  0
SEQEND
  0
POLYLINE
  5
a4d
  8
Layer_3
  62
138
  66
1
  10
0
  20
0
  30
0
  0
VERTEX
  5
a4d
  8
Layer_3
  10
101.39063
  20
257.05603
  0
VERTEX
  5
a4e
  8
Layer_3
  10
144.07635
  20
257.05603
  0
SEQEND
  0
POLYLINE
  5
a50
  8
Layer_3
  62
138
  66
1
  10
0
  20
0
  30
0
  0
VERTEX
  5
a50
  8
Layer_3
  10
101.39063
  20
152.28101
  0
VERTEX
  5
a51
  8
Layer_3
  10
190.64337
  20
152.28101
  0
SEQEND
  0
POLYLINE
  5
a53
  8
Layer_2
  62
254
  66
1
  10
0
  20
0
  30
0
  0
VERTEX
  5
a53
  8
Layer_2
  10
144.07635
  20
206.60883
  0
VERTEX
  5
a54
  8
Layer_2
  10
144.07635
  20
202.72784
  0
SEQEND
  0
POLYLINE
  5
a56
  8
Layer_2
  62
254
  66
1
  10
0
  20
0
  30
0
  0
VERTEX
  5
a56
  8
Layer_2
  10
144.07635
  20
202.72784
  0
VERTEX
  5
a57
  8
Layer_2
  10
147.95685
  20
202.72784
  0
SEQEND
  0
POLYLINE
  5
a59
  8
Layer_3
  62
138
  66
1
  10
0
  20
0
  30
0
  0
VERTEX
  5
a59
  8
Layer_3
  10
147.95685
  20
202.72784
  0
VERTEX
  5
a5a
  8
Layer_3
  10
147.95685
  20
206.60883
  0
SEQEND
  0
POLYLINE
  5
a5c
  8
Layer_2
  62
254
  66
1
  10
0
  20
0
  30
0
  0
VERTEX
  5
a5c
  8
Layer_2
  10
147.95685
  20
206.60883
  0
VERTEX
  5
a5d
  8
Layer_2
  10
144.07635
  20
206.60883
  0
SEQEND
  0
POLYLINE
  5
a5f
  8
Layer_3
  62
138
  66
1
  10
0
  20
0
  30
0
  0
VERTEX
  5
a5f
  8
Layer_3
  10
182.88184
  20
253.17517
  0
VERTEX
  5
a60
  8
Layer_3
  10
182.88184
  20
249.29535
  0
SEQEND
  0
POLYLINE
  5
a62
  8
Layer_3
  62
138
  66
1
  10
0
  20
0
  30
0
  0
VERTEX
  5
a62
  8
Layer_3
  10
182.88184
  20
249.29535
  0
VERTEX
  5
a63
  8
Layer_3
  10
194.52432
  20
249.29535
  0
SEQEND
  0
POLYLINE
  5
a65
  8
Layer_3
  62
138
  66
1
  10
0
  20
0
  30
0
  0
VERTEX
  5
a65
  8
Layer_3
  10
194.52432
  20
249.29535
  0
VERTEX
  5
a66
  8
Layer_3
  10
194.52432
  20
253.17517
  0
SEQEND
  0
POLYLINE
  5
a68
  8
Layer_3
  62
138
  66
1
  10
0
  20
0
  30
0
  0
VERTEX
  5
a68
  8
Layer_3
  10
194.52432
  20
253.17517
  0
VERTEX
  5
a69
  8
Layer_3
  10
182.88184
  20
253.17517
  0
SEQEND
  0
POLYLINE
  5
a6b
  8
Layer_3
  62
138
  66
1
  10
0
  20
0
  30
0
  0
VERTEX
  5
a6b
  8
Layer_3
  10
182.88184
  20
160.04254
  0
VERTEX
  5
a6c
  8
Layer_3
  10
182.88184
  20
156.16162
  0
SEQEND
  0
POLYLINE
  5
a6e
  8
Layer_3
  62
138
  66
1
  10
0
  20
0
  30
0
  0
VERTEX
  5
a6e
  8
Layer_3
  10
182.88184
  20
156.16162
  0
VERTEX
  5
a6f
  8
Layer_3
  10
194.52432
  20
156.16162
  0
SEQEND
  0
POLYLINE
  5
a71
  8
Layer_3
  62
138
  66
1
  10
0
  20
0
  30
0
  0
VERTEX
  5
a71
  8
Layer_3
  10
194.52432
  20
156.16162
  0
VERTEX
  5
a72
  8
Layer_3
  10
194.52432
  20
160.04254
  0
SEQEND
  0
POLYLINE
  5
a74
  8
Layer_3
  62
138
  66
1
  10
0
  20
0
  30
0
  0
VERTEX
  5
a74
  8
Layer_3
  10
194.52432
  20
160.04254
  0
VERTEX
  5
a75
  8
Layer_3
  10
182.88184
  20
160.04254
  0
SEQEND
  0
POLYLINE
  5
a77
  8
Layer_3
  62
138
  66
1
  10
0
  20
0
  30
0
  0
VERTEX
  5
a77
  8
Layer_3
  10
182.88184
  20
187.20605
  0
VERTEX
  5
a78
  8
Layer_3
  10
182.88184
  20
191.08661
  0
SEQEND
  0
POLYLINE
  5
a7a
  8
Layer_3
  62
138
  66
1
  10
0
  20
0
  30
0
  0
VERTEX
  5
a7a
  8
Layer_3
  10
182.88184
  20
191.08661
  0
VERTEX
  5
a7b
  8
Layer_3
  10
194.52432
  20
191.08661
  0
SEQEND
  0
POLYLINE
  5
a7d
  8
Layer_3
  62
138
  66
1
  10
0
  20
0
  30
0
  0
VERTEX
  5
a7d
  8
Layer_3
  10
194.52432
  20
191.08661
  0
VERTEX
  5
a7e
  8
Layer_3
  10
194.52432
  20
187.20605
  0
SEQEND
  0
POLYLINE
  5
a80
  8
Layer_3
  62
138
  66
1
  10
0
  20
0
  30
0
  0
VERTEX
  5
a80
  8
Layer_3
  10
194.52432
  20
187.20605
  0
VERTEX
  5
a81
  8
Layer_3
  10
182.88184
  20
187.20605
  0
SEQEND
  0
POLYLINE
  5
a83
  8
Layer_3
  62
138
  66
1
  10
0
  20
0
  30
0
  0
VERTEX
  5
a83
  8
Layer_3
  10
182.88184
  20
222.13104
  0
VERTEX
  5
a84
  8
Layer_3
  10
182.88184
  20
218.25006
  0
SEQEND
  0
POLYLINE
  5
a86
  8
Layer_3
  62
138
  66
1
  10
0
  20
0
  30
0
  0
VERTEX
  5
a86
  8
Layer_3
  10
182.88184
  20
218.25006
  0
VERTEX
  5
a87
  8
Layer_3
  10
194.52432
  20
218.25006
  0
SEQEND
  0
POLYLINE
  5
a89
  8
Layer_3
  62
138
  66
1
  10
0
  20
0
  30
0
  0
VERTEX
  5
a89
  8
Layer_3
  10
194.52432
  20
218.25006
  0
VERTEX
  5
a8a
  8
Layer_3
  10
194.52432
  20
222.13104
  0
SEQEND
  0
POLYLINE
  5
a8c
  8
Layer_3
  62
138
  66
1
  10
0
  20
0
  30
0
  0
VERTEX
  5
a8c
  8
Layer_3
  10
194.52432
  20
222.13104
  0
VERTEX
  5
a8d
  8
Layer_3
  10
182.88184
  20
222.13104
  0
SEQEND
  0
POLYLINE
  5
a8f
  8
Layer_3
  62
138
  66
1
  10
0
  20
0
  30
0
  0
VERTEX
  5
a8f
  8
Layer_3
  10
101.39063
  20
148.40009
  0
VERTEX
  5
a90
  8
Layer_3
  10
190.64337
  20
148.40009
  0
SEQEND
  0
POLYLINE
  5
a92
  8
Layer_3
  62
138
  66
1
  10
0
  20
0
  30
0
  0
VERTEX
  5
a92
  8
Layer_3
  10
190.64337
  20
148.40009
  0
VERTEX
  5
a93
  8
Layer_3
  10
190.64337
  20
152.28101
  0
SEQEND
  0
POLYLINE
  5
a95
  8
Layer_3
  62
138
  66
1
  10
0
  20
0
  30
0
  0
VERTEX
  5
a95
  8
Layer_3
  10
190.64337
  20
152.28101
  0
VERTEX
  5
a96
  8
Layer_3
  10
101.39063
  20
152.28101
  0
SEQEND
  0
POLYLINE
  5
a98
  8
Layer_2
  62
254
  66
1
  10
0
  20
0
  30
0
  0
VERTEX
  5
a98
  8
Layer_2
  10
175.12152
  20
260.93658
  0
VERTEX
  5
a99
  8
Layer_2
  10
175.12152
  20
152.28101
  0
SEQEND
  0
POLYLINE
  5
a9b
  8
Layer_2
  62
254
  66
1
  10
0
  20
0
  30
0
  0
VERTEX
  5
a9b
  8
Layer_2
  10
175.12152
  20
152.28101
  0
VERTEX
  5
a9c
  8
Layer_2
  10
171.24066
  20
152.28101
  0
SEQEND
  0
POLYLINE
  5
a9e
  8
Layer_2
  62
254
  66
1
  10
0
  20
0
  30
0
  0
VERTEX
  5
a9e
  8
Layer_2
  10
171.24066
  20
152.28101
  0
VERTEX
  5
a9f
  8
Layer_2
  10
171.24066
  20
260.93658
  0
SEQEND
  0
POLYLINE
  5
aa1
  8
Layer_2
  62
254
  66
1
  10
0
  20
0
  30
0
  0
VERTEX
  5
aa1
  8
Layer_2
  10
155.71838
  20
260.93658
  0
VERTEX
  5
aa2
  8
Layer_2
  10
155.71838
  20
152.28101
  0
SEQEND
  0
POLYLINE
  5
aa4
  8
Layer_2
  62
254
  66
1
  10
0
  20
0
  30
0
  0
VERTEX
  5
aa4
  8
Layer_2
  10
155.71838
  20
152.28101
  0
VERTEX
  5
aa5
  8
Layer_2
  10
151.83783
  20
152.28101
  0
SEQEND
  0
POLYLINE
  5
aa7
  8
Layer_2
  62
254
  66
1
  10
0
  20
0
  30
0
  0
VERTEX
  5
aa7
  8
Layer_2
  10
151.83783
  20
152.28101
  0
VERTEX
  5
aa8
  8
Layer_2
  10
151.83783
  20
260.93658
  0
SEQEND
  0
POLYLINE
  5
aaa
  8
Layer_2
  62
254
  66
1
  10
0
  20
0
  30
0
  0
VERTEX
  5
aaa
  8
Layer_2
  10
175.12152
  20
179.44531
  0
VERTEX
  5
aab
  8
Layer_2
  10
175.12152
  20
175.5647
  0
SEQEND
  0
POLYLINE
  5
aad
  8
Layer_2
  62
254
  66
1
  10
0
  20
0
  30
0
  0
VERTEX
  5
aad
  8
Layer_2
  10
175.12152
  20
175.5647
  0
VERTEX
  5
aae
  8
Layer_2
  10
159.5993
  20
175.5647
  0
SEQEND
  0
POLYLINE
  5
ab0
  8
Layer_2
  62
254
  66
1
  10
0
  20
0
  30
0
  0
VERTEX
  5
ab0
  8
Layer_2
  10
159.5993
  20
175.5647
  0
VERTEX
  5
ab1
  8
Layer_2
  10
159.5993
  20
179.44531
  0
SEQEND
  0
POLYLINE
  5
ab3
  8
Layer_2
  62
254
  66
1
  10
0
  20
0
  30
0
  0
VERTEX
  5
ab3
  8
Layer_2
  10
159.5993
  20
179.44531
  0
VERTEX
  5
ab4
  8
Layer_2
  10
175.12152
  20
179.44531
  0
SEQEND
  0
POLYLINE
  5
ab6
  8
Layer_2
  62
254
  66
1
  10
0
  20
0
  30
0
  0
VERTEX
  5
ab6
  8
Layer_2
  10
151.83783
  20
187.20605
  0
VERTEX
  5
ab7
  8
Layer_2
  10
151.83783
  20
183.32513
  0
SEQEND
  0
POLYLINE
  5
ab9
  8
Layer_2
  62
254
  66
1
  10
0
  20
0
  30
0
  0
VERTEX
  5
ab9
  8
Layer_2
  10
151.83783
  20
183.32513
  0
VERTEX
  5
aba
  8
Layer_2
  10
167.36005
  20
183.32513
  0
SEQEND
  0
POLYLINE
  5
abc
  8
Layer_2
  62
254
  66
1
  10
0
  20
0
  30
0
  0
VERTEX
  5
abc
  8
Layer_2
  10
167.36005
  20
183.32513
  0
VERTEX
  5
abd
  8
Layer_2
  10
167.36005
  20
187.20605
  0
SEQEND
  0
POLYLINE
  5
abf
  8
Layer_2
  62
254
  66
1
  10
0
  20
0
  30
0
  0
VERTEX
  5
abf
  8
Layer_2
  10
167.36005
  20
187.20605
  0
VERTEX
  5
ac0
  8
Layer_2
  10
151.83783
  20
187.20605
  0
SEQEND
  0
POLYLINE
  5
ac2
  8
Layer_3
  62
138
  66
1
  10
0
  20
0
  30
0
  0
VERTEX
  5
ac2
  8
Layer_3
  10
175.12152
  20
260.93658
  0
VERTEX
  5
ac3
  8
Layer_3
  10
175.12152
  20
257.05603
  0
SEQEND
  0
POLYLINE
  5
ac5
  8
Layer_3
  62
138
  66
1
  10
0
  20
0
  30
0
  0
VERTEX
  5
ac5
  8
Layer_3
  10
175.12152
  20
257.05603
  0
VERTEX
  5
ac6
  8
Layer_3
  10
171.24066
  20
257.05603
  0
SEQEND
  0
POLYLINE
  5
ac8
  8
Layer_3
  62
138
  66
1
  10
0
  20
0
  30
0
  0
VERTEX
  5
ac8
  8
Layer_3
  10
171.24066
  20
257.05603
  0
VERTEX
  5
ac9
  8
Layer_3
  10
171.24066
  20
260.93658
  0
SEQEND
  0
POLYLINE
  5
acb
  8
Layer_3
  62
138
  66
1
  10
0
  20
0
  30
0
  0
VERTEX
  5
acb
  8
Layer_3
  10
155.71838
  20
260.93658
  0
VERTEX
  5
acc
  8
Layer_3
  10
155.71838
  20
257.05603
  0
SEQEND
  0
POLYLINE
  5
ace
  8
Layer_3
  62
138
  66
1
  10
0
  20
0
  30
0
  0
VERTEX
  5
ace
  8
Layer_3
  10
155.71838
  20
257.05603
  0
VERTEX
  5
acf
  8
Layer_3
  10
151.83783
  20
257.05603
  0
SEQEND
  0
POLYLINE
  5
ad1
  8
Layer_3
  62
138
  66
1
  10
0
  20
0
  30
0
  0
VERTEX
  5
ad1
  8
Layer_3
  10
151.83783
  20
257.05603
  0
VERTEX
  5
ad2
  8
Layer_3
  10
151.83783
  20
260.93658
  0
SEQEND
  0
POLYLINE
  5
ad4
  8
Layer_3
  62
138
  66
1
  10
0
  20
0
  30
0
  0
VERTEX
  5
ad4
  8
Layer_3
  10
155.71838
  20
156.16162
  0
VERTEX
  5
ad5
  8
Layer_3
  10
155.71838
  20
152.28101
  0
SEQEND
  0
POLYLINE
  5
ad7
  8
Layer_3
  62
138
  66
1
  10
0
  20
0
  30
0
  0
VERTEX
  5
ad7
  8
Layer_3
  10
155.71838
  20
152.28101
  0
VERTEX
  5
ad8
  8
Layer_3
  10
151.83783
  20
152.28101
  0
SEQEND
  0
POLYLINE
  5
ada
  8
Layer_3
  62
138
  66
1
  10
0
  20
0
  30
0
  0
VERTEX
  5
ada
  8
Layer_3
  10
151.83783
  20
152.28101
  0
VERTEX
  5
adb
  8
Layer_3
  10
151.83783
  20
156.16162
  0
SEQEND
  0
POLYLINE
  5
add
  8
Layer_3
  62
138
  66
1
  10
0
  20
0
  30
0
  0
VERTEX
  5
add
  8
Layer_3
  10
151.83783
  20
156.16162
  0
VERTEX
  5
ade
  8
Layer_3
  10
155.71838
  20
156.16162
  0
SEQEND
  0
POLYLINE
  5
ae0
  8
Layer_3
  62
138
  66
1
  10
0
  20
0
  30
0
  0
VERTEX
  5
ae0
  8
Layer_3
  10
175.12152
  20
156.16162
  0
VERTEX
  5
ae1
  8
Layer_3
  10
175.12152
  20
152.28101
  0
SEQEND
  0
POLYLINE
  5
ae3
  8
Layer_3
  62
138
  66
1
  10
0
  20
0
  30
0
  0
VERTEX
  5
ae3
  8
Layer_3
  10
175.12152
  20
152.28101
  0
VERTEX
  5
ae4
  8
Layer_3
  10
171.24066
  20
152.28101
  0
SEQEND
  0
POLYLINE
  5
ae6
  8
Layer_3
  62
138
  66
1
  10
0
  20
0
  30
0
  0
VERTEX
  5
ae6
  8
Layer_3
  10
171.24066
  20
152.28101
  0
VERTEX
  5
ae7
  8
Layer_3
  10
171.24066
  20
156.16162
  0
SEQEND
  0
POLYLINE
  5
ae9
  8
Layer_3
  62
138
  66
1
  10
0
  20
0
  30
0
  0
VERTEX
  5
ae9
  8
Layer_3
  10
171.24066
  20
156.16162
  0
VERTEX
  5
aea
  8
Layer_3
  10
175.12152
  20
156.16162
  0
SEQEND
  0
POLYLINE
  5
aec
  8
Layer_4
  62
13
  66
1
  10
0
  20
0
  30
0
  0
VERTEX
  5
aec
  8
Layer_4
  10
93.629333
  20
148.40317
  0
VERTEX
  5
aed
  8
Layer_4
  10
198.40436
  20
148.40311
  0
SEQEND
  0
POLYLINE
  5
aef
  8
Layer_4
  62
13
  66
1
  10
0
  20
0
  30
0
  0
VERTEX
  5
aef
  8
Layer_4
  10
93.629578
  20
260.94012
  0
VERTEX
  5
af0
  8
Layer_4
  10
198.40503
  20
260.94012
  0
SEQEND
  0
POLYLINE
  5
af2
  8
Layer_4
  62
13
  66
1
  10
0
  20
0
  30
0
  0
VERTEX
  5
af2
  8
Layer_4
  10
93.638916
  20
365.76471
  0
VERTEX
  5
af3
  8
Layer_4
  10
198.44067
  20
365.7486
  0
SEQEND
  0
POLYLINE
  5
af5
  8
Layer_4
  62
13
  66
1
  10
0
  20
0
  30
0
  0
VERTEX
  5
af5
  8
Layer_4
  10
139.93237
  20
474.56699
  0
VERTEX
  5
af6
  8
Layer_4
  10
139.92072
  20
152.43094
  0
SEQEND
  0
POLYLINE
  5
af8
  8
Layer_1
  62
5
  66
1
  10
0
  20
0
  30
0
  0
VERTEX
  5
af8
  8
Layer_1
  10
198.44067
  20
365.7486
  0
VERTEX
  5
af9
  8
Layer_1
  10
198.41394
  20
478.30121
  0
SEQEND
  0
POLYLINE
  5
afb
  8
Layer_1
  62
5
  66
1
  10
0
  20
0
  30
0
  0
VERTEX
  5
afb
  8
Layer_1
  10
198.40503
  20
260.94012
  0
VERTEX
  5
afc
  8
Layer_1
  10
198.44067
  20
148.43707
  0
SEQEND
  0
POLYLINE
  5
afe
  8
Layer_1
  62
5
  66
1
  10
0
  20
0
  30
0
  0
VERTEX
  5
afe
  8
Layer_1
  10
466.19751
  20
253.21207
  0
VERTEX
  5
aff
  8
Layer_1
  10
466.19751
  20
148.43707
  0
SEQEND
  0
POLYLINE
  5
b01
  8
Layer_1
  62
5
  66
1
  10
0
  20
0
  30
0
  0
VERTEX
  5
b01
  8
Layer_1
  10
466.19751
  20
105.00598
  0
VERTEX
  5
b02
  8
Layer_1
  10
466.19751
  20
105.61679
  0
SEQEND
  0
POLYLINE
  5
b04
  8
Layer_4
  62
13
  66
1
  10
0
  20
0
  30
0
  0
VERTEX
  5
b04
  8
Layer_4
  10
466.19751
  20
148.43707
  0
VERTEX
  5
b05
  8
Layer_4
  10
466.19751
  20
43.662048
  0
SEQEND
  0
POLYLINE
  5
b07
  8
Layer_4
  62
13
  66
1
  10
0
  20
0
  30
0
  0
VERTEX
  5
b07
  8
Layer_4
  10
198.40411
  20
148.40363
  0
VERTEX
  5
b08
  8
Layer_4
  10
198.44067
  20
43.662048
  0
SEQEND
  0
POLYLINE
  5
b0a
  8
Layer_1
  62
5
  66
1
  10
0
  20
0
  30
0
  0
VERTEX
  5
b0a
  8
Layer_1
  10
198.44067
  20
43.662048
  0
VERTEX
  5
b0b
  8
Layer_1
  10
466.19751
  20
43.662048
  0
SEQEND
  0
POLYLINE
  5
b0d
  8
Layer_1
  62
5
  66
1
  10
0
  20
0
  30
0
  0
VERTEX
  5
b0d
  8
Layer_1
  10
313.02869
  20
478.28424
  0
VERTEX
  5
b0e
  8
Layer_1
  10
312.46509
  20
478.28424
  0
SEQEND
  0
POLYLINE
  5
b10
  8
Layer_4
  62
13
  66
1
  10
0
  20
0
  30
0
  0
VERTEX
  5
b10
  8
Layer_4
  10
466.22327
  20
478.21686
  0
VERTEX
  5
b11
  8
Layer_4
  10
501.14844
  20
443.29193
  0
SEQEND
  0
POLYLINE
  5
b13
  8
Layer_4
  62
13
  66
1
  10
0
  20
0
  30
0
  0
VERTEX
  5
b13
  8
Layer_4
  10
501.14844
  20
443.29193
  0
VERTEX
  5
b14
  8
Layer_4
  10
501.14844
  20
400.6062
  0
SEQEND
  0
POLYLINE
  5
b16
  8
Layer_4
  62
13
  66
1
  10
0
  20
0
  30
0
  0
VERTEX
  5
b16
  8
Layer_4
  10
501.14844
  20
400.6062
  0
VERTEX
  5
b17
  8
Layer_4
  10
466.22327
  20
365.68121
  0
SEQEND
  0
POLYLINE
  5
b19
  8
Layer_4
  62
13
  66
1
  10
0
  20
0
  30
0
  0
VERTEX
  5
b19
  8
Layer_4
  10
466.48328
  20
260.90186
  0
VERTEX
  5
b1a
  8
Layer_4
  10
501.40845
  20
225.97693
  0
SEQEND
  0
POLYLINE
  5
b1c
  8
Layer_4
  62
13
  66
1
  10
0
  20
0
  30
0
  0
VERTEX
  5
b1c
  8
Layer_4
  10
501.40845
  20
225.97693
  0
VERTEX
  5
b1d
  8
Layer_4
  10
501.40845
  20
183.2912
  0
SEQEND
  0
POLYLINE
  5
b1f
  8
Layer_4
  62
13
  66
1
  10
0
  20
0
  30
0
  0
VERTEX
  5
b1f
  8
Layer_4
  10
501.40845
  20
183.2912
  0
VERTEX
  5
b20
  8
Layer_4
  10
466.48328
  20
148.36621
  0
SEQEND
  0
POLYLINE
  5
b22
  8
Layer_4
  62
13
  66
1
  10
0
  20
0
  30
0
  0
VERTEX
  5
b22
  8
Layer_4
  10
578.83862
  20
365.69421
  0
VERTEX
  5
b23
  8
Layer_4
  10
613.76367
  20
330.76923
  0
SEQEND
  0
POLYLINE
  5
b25
  8
Layer_4
  62
13
  66
1
  10
0
  20
0
  30
0
  0
VERTEX
  5
b25
  8
Layer_4
  10
613.76367
  20
330.76923
  0
VERTEX
  5
b26
  8
Layer_4
  10
613.76367
  20
295.84418
  0
SEQEND
  0
POLYLINE
  5
b28
  8
Layer_4
  62
13
  66
1
  10
0
  20
0
  30
0
  0
VERTEX
  5
b28
  8
Layer_4
  10
613.76367
  20
295.84418
  0
VERTEX
  5
b29
  8
Layer_4
  10
578.83862
  20
260.91919
  0
SEQEND
  0
POLYLINE
  5
b2b
  8
Layer_1
  62
5
  66
1
  10
0
  20
0
  30
0
  0
VERTEX
  5
b2b
  8
Layer_1
  10
578.73279
  20
365.7486
  0
VERTEX
  5
b2c
  8
Layer_1
  10
578.83533
  20
260.91943
  0
SEQEND
  0
POLYLINE
  5
b2e
  8
Layer_4
  62
13
  66
1
  10
0
  20
0
  30
0
  0
VERTEX
  5
b2e
  8
Layer_4
  10
198.46655
  20
43.81366
  0
VERTEX
  5
b2f
  8
Layer_4
  10
233.3916
  20
8.8886719
  0
SEQEND
  0
POLYLINE
  5
b31
  8
Layer_4
  62
13
  66
1
  10
0
  20
0
  30
0
  0
VERTEX
  5
b31
  8
Layer_4
  10
233.3916
  20
8.8886719
  0
VERTEX
  5
b32
  8
Layer_4
  10
431.29834
  20
8.8886719
  0
SEQEND
  0
POLYLINE
  5
b34
  8
Layer_4
  62
13
  66
1
  10
0
  20
0
  30
0
  0
VERTEX
  5
b34
  8
Layer_4
  10
431.29834
  20
8.8886719
  0
VERTEX
  5
b35
  8
Layer_4
  10
466.22327
  20
43.81366
  0
SEQEND
  0
POLYLINE
  5
b37
  8
Layer_1
  62
5
  66
1
  10
0
  20
0
  30
0
  0
VERTEX
  5
b37
  8
Layer_1
  10
198.44067
  20
365.7486
  0
VERTEX
  5
b38
  8
Layer_1
  10
198.40503
  20
260.94012
  0
SEQEND
  0
POLYLINE
  5
b3a
  8
Layer_4
  62
13
  66
1
  10
0
  20
0
  30
0
  0
VERTEX
  5
b3a
  8
Layer_4
  10
147.95685
  20
206.61237
  0
VERTEX
  5
b3b
  8
Layer_4
  10
147.95685
  20
202.73138
  0
SEQEND
  0
POLYLINE
  5
b3d
  8
Layer_4
  62
13
  66
1
  10
0
  20
0
  30
0
  0
VERTEX
  5
b3d
  8
Layer_4
  10
147.96667
  20
423.97345
  0
VERTEX
  5
b3e
  8
Layer_4
  10
147.96667
  20
420.09247
  0
SEQEND
  0
POLYLINE
  5
b40
  8
Layer_4
  62
13
  66
1
  10
0
  20
0
  30
0
  0
VERTEX
  5
b40
  8
Layer_4
  10
190.6524
  20
365.76471
  0
VERTEX
  5
b41
  8
Layer_4
  10
190.64337
  20
260.94012
  0
SEQEND
  0
POLYLINE
  5
b43
  8
Layer_4
  62
13
  66
1
  10
0
  20
0
  30
0
  0
VERTEX
  5
b43
  8
Layer_4
  10
144.09686
  20
422.03607
  0
VERTEX
  5
b44
  8
Layer_4
  10
147.97668
  20
422.06351
  0
SEQEND
  0
POLYLINE
  5
b46
  8
Layer_4
  62
13
  66
1
  10
0
  20
0
  30
0
  0
VERTEX
  5
b46
  8
Layer_4
  10
142.12427
  20
422.06351
  0
VERTEX
  5
b47
  8
Layer_4
  10
136.07147
  20
420.01917
  0
SEQEND
  0
POLYLINE
  5
b49
  8
Layer_4
  62
13
  66
1
  10
0
  20
0
  30
0
  0
VERTEX
  5
b49
  8
Layer_4
  10
144.09686
  20
422.03607
  0
VERTEX
  5
b4a
  8
Layer_4
  10
142.12427
  20
422.06351
  0
VERTEX
  5
b4b
  8
Layer_4
  10
136.13135
  20
423.99921
  0
SEQEND
  0
POLYLINE
  5
b4d
  8
Layer_4
  62
13
  66
1
  10
0
  20
0
  30
0
  0
VERTEX
  5
b4d
  8
Layer_4
  10
148.0556
  20
204.70404
  0
VERTEX
  5
b4e
  8
Layer_4
  10
142.18103
  20
204.67941
  0
VERTEX
  5
b4f
  8
Layer_4
  10
136.24847
  20
206.76086
  0
SEQEND
  0
POLYLINE
  5
b51
  8
Layer_4
  62
13
  66
1
  10
0
  20
0
  30
0
  0
VERTEX
  5
b51
  8
Layer_4
  10
142.18103
  20
204.67941
  0
VERTEX
  5
b52
  8
Layer_4
  10
136.22369
  20
202.8085
  0
SEQEND
  0
POLYLINE
  5
b54
  8
Layer_4
  62
13
  66
1
  10
0
  20
0
  30
0
  0
VERTEX
  5
b54
  8
Layer_4
  10
139.92072
  20
152.43094
  0
VERTEX
  5
b55
  8
Layer_4
  10
139.93329
  20
148.40363
  0
SEQEND
  0
POLYLINE
  5
b57
  8
Layer_4
  62
13
  66
1
  10
0
  20
0
  30
0
  0
VERTEX
  5
b57
  8
Layer_4
  10
139.93237
  20
474.56699
  0
VERTEX
  5
b58
  8
Layer_4
  10
139.90405
  20
478.30121
  0
SEQEND
  0
ENDSEC
  0
EOF
